<?xml version="1.0" encoding="UTF-8" standalone="no"?>
<!-- Created with Inkscape (http://www.inkscape.org/) -->

<svg
   width="172.66708mm"
   height="60.875332mm"
   viewBox="0 0 172.66708 60.875332"
   version="1.1"
   id="svg33032"
   inkscape:version="1.2.2 (b0a84865, 2022-12-01)"
   sodipodi:docname="EventDate.svg"
   xmlns:inkscape="http://www.inkscape.org/namespaces/inkscape"
   xmlns:sodipodi="http://sodipodi.sourceforge.net/DTD/sodipodi-0.dtd"
   xmlns="http://www.w3.org/2000/svg"
   xmlns:svg="http://www.w3.org/2000/svg">
  <sodipodi:namedview
     id="namedview33034"
     pagecolor="#ffffff"
     bordercolor="#000000"
     borderopacity="0.25"
     inkscape:showpageshadow="2"
     inkscape:pageopacity="0.0"
     inkscape:pagecheckerboard="0"
     inkscape:deskcolor="#d1d1d1"
     inkscape:document-units="mm"
     showgrid="false"
     inkscape:zoom="0.2102413"
     inkscape:cx="387.64981"
     inkscape:cy="546.99052"
     inkscape:window-width="1309"
     inkscape:window-height="456"
     inkscape:window-x="0"
     inkscape:window-y="38"
     inkscape:window-maximized="0"
     inkscape:current-layer="layer1" />
  <defs
     id="defs33029">
    <clipPath
       clipPathUnits="userSpaceOnUse"
       id="clipPath6191">
      <rect
         style="fill:none;stroke:#000000;stroke-width:1.39895;stroke-opacity:1"
         id="rect6193"
         width="1113.9438"
         height="2424.5439"
         x="6.8522811"
         y="6.8522654" />
    </clipPath>
  </defs>
  <g
     inkscape:label="Layer 1"
     inkscape:groupmode="layer"
     id="layer1"
     transform="translate(-3.0181521,-3.5411502)">
    <g
       id="Layer_6"
       clip-path="url(#clipPath6191)"
       transform="matrix(0.26458333,0,0,0.26458333,-94.62368,-440.04074)">
	<g
   id="g1528">
		<path
   class="st3"
   d="m 397.37,1678.32 h 17.92 l 28.33,74.23 H 420.1 l -2.46,-6.68 h -22.62 l -2.46,6.68 h -23.52 z m 14,51.2 -5.04,-13.02 -5.04,13.02 z"
   id="path1440"
   style="fill:#f4a263" />

		<path
   class="st3"
   d="m 503.41,1706.59 c 0,5.12 -0.9,9.48 -2.69,13.08 -1.79,3.6 -4.24,6.51 -7.33,8.74 -3.1,2.23 -6.72,3.86 -10.86,4.9 -4.14,1.04 -8.61,1.56 -13.38,1.56 v 17.7 H 445.3 v -74.23 h 23.85 c 4.78,0 9.24,0.52 13.38,1.56 4.14,1.04 7.76,2.67 10.86,4.9 3.1,2.23 5.54,5.14 7.33,8.74 1.8,3.57 2.69,7.93 2.69,13.05 z m -34.26,8.24 h 1.01 c 3.14,0 5.39,-0.72 6.77,-2.17 1.38,-1.45 2.07,-3.47 2.07,-6.07 0,-2.6 -0.69,-4.62 -2.07,-6.07 -1.38,-1.45 -3.64,-2.17 -6.77,-2.17 h -1.01 z"
   id="path1442"
   style="fill:#f4a263" />

		<path
   class="st3"
   d="m 509.01,1678.32 h 25.75 c 4.78,0 9.2,0.63 13.27,1.89 4.07,1.26 7.6,3.12 10.58,5.56 2.99,2.45 5.32,5.47 7,9.07 1.68,3.6 2.52,7.73 2.52,12.41 0,3.71 -0.52,6.86 -1.57,9.46 -1.05,2.6 -2.2,4.75 -3.47,6.46 -1.49,1.93 -3.17,3.56 -5.04,4.9 l 14,24.48 h -27.99 l -11.2,-18.81 v 18.81 h -23.85 z m 23.85,36.51 h 1.23 c 2.84,0 5.24,-0.63 7.22,-1.89 1.98,-1.26 2.97,-3.38 2.97,-6.34 0,-2.97 -0.99,-5.08 -2.97,-6.34 -1.98,-1.26 -4.39,-1.89 -7.22,-1.89 h -1.23 z"
   id="path1444"
   style="fill:#f4a263" />

		<path
   class="st3"
   d="m 574.29,1678.32 h 25.31 v 74.23 h -25.31 z"
   id="path1446"
   style="fill:#f4a263" />

		<path
   class="st3"
   d="m 607.43,1678.32 h 24.86 v 54.75 h 20.6 v 19.48 h -45.46 z"
   id="path1448"
   style="fill:#f4a263" />

		<path
   class="st3"
   d="m 691.31,1716.94 c 1.57,-2.97 2.58,-5.19 3.02,-6.68 0.45,-1.48 0.67,-2.89 0.67,-4.23 0,-2.37 -0.78,-4.21 -2.35,-5.51 -1.57,-1.3 -3.85,-1.95 -6.83,-1.95 -0.6,0 -1.16,0.02 -1.68,0.06 -0.52,0.04 -1.01,0.09 -1.46,0.17 -0.52,0.07 -1.01,0.11 -1.46,0.11 v -20.59 c 1.04,-0.22 1.98,-0.41 2.8,-0.56 0.82,-0.15 1.62,-0.26 2.41,-0.33 0.78,-0.07 1.6,-0.13 2.46,-0.17 0.86,-0.04 1.85,-0.06 2.97,-0.06 3.58,0 7.11,0.39 10.58,1.17 3.47,0.78 6.59,2.06 9.35,3.84 2.76,1.78 5,4.16 6.72,7.12 1.72,2.97 2.58,6.6 2.58,10.91 0,2 -0.22,3.99 -0.67,5.95 -0.45,1.97 -1.14,4.1 -2.07,6.4 -0.93,2.3 -2.13,4.88 -3.58,7.73 -1.46,2.86 -3.16,6.18 -5.1,9.96 l -1.46,2.78 h 14.11 l -6.38,19.48 h -43.45 z"
   id="path1450"
   style="fill:#f4a263" />

		<path
   class="st3"
   d="m 737.22,1716.94 c 1.57,-2.97 2.58,-5.19 3.02,-6.68 0.45,-1.48 0.67,-2.89 0.67,-4.23 0,-2.37 -0.78,-4.21 -2.35,-5.51 -1.57,-1.3 -3.85,-1.95 -6.83,-1.95 -0.6,0 -1.16,0.02 -1.68,0.06 -0.52,0.04 -1.01,0.09 -1.46,0.17 -0.52,0.07 -1.01,0.11 -1.46,0.11 v -20.59 c 1.04,-0.22 1.98,-0.41 2.8,-0.56 0.82,-0.15 1.62,-0.26 2.41,-0.33 0.78,-0.07 1.6,-0.13 2.46,-0.17 0.86,-0.04 1.85,-0.06 2.97,-0.06 3.58,0 7.11,0.39 10.58,1.17 3.47,0.78 6.59,2.06 9.35,3.84 2.76,1.78 5,4.16 6.72,7.12 1.72,2.97 2.58,6.6 2.58,10.91 0,2 -0.22,3.99 -0.67,5.95 -0.45,1.97 -1.14,4.1 -2.07,6.4 -0.93,2.3 -2.13,4.88 -3.58,7.73 -1.46,2.86 -3.16,6.18 -5.1,9.96 l -1.46,2.78 h 14.11 l -6.38,19.48 H 718.4 Z"
   id="path1452"
   style="fill:#f4a263" />

		<path
   class="st3"
   d="m 776.86,1733.97 h 21.28 l -9.74,30.05 h -19.04 z"
   id="path1454"
   style="fill:#f4a263" />

		<path
   class="st3"
   d="m 838.44,1716.94 c 1.57,-2.97 2.58,-5.19 3.02,-6.68 0.45,-1.48 0.67,-2.89 0.67,-4.23 0,-2.37 -0.78,-4.21 -2.35,-5.51 -1.57,-1.3 -3.85,-1.95 -6.83,-1.95 -0.6,0 -1.16,0.02 -1.68,0.06 -0.52,0.04 -1.01,0.09 -1.46,0.17 -0.52,0.07 -1.01,0.11 -1.46,0.11 v -20.59 c 1.04,-0.22 1.98,-0.41 2.8,-0.56 0.82,-0.15 1.62,-0.26 2.41,-0.33 0.78,-0.07 1.6,-0.13 2.46,-0.17 0.86,-0.04 1.85,-0.06 2.97,-0.06 3.58,0 7.11,0.39 10.58,1.17 3.47,0.78 6.59,2.06 9.35,3.84 2.76,1.78 5,4.16 6.72,7.12 1.72,2.97 2.58,6.6 2.58,10.91 0,2 -0.22,3.99 -0.67,5.95 -0.45,1.97 -1.14,4.1 -2.07,6.4 -0.93,2.3 -2.13,4.88 -3.58,7.73 -1.46,2.86 -3.16,6.18 -5.1,9.96 l -1.46,2.78 h 14.11 l -6.38,19.48 h -43.45 z"
   id="path1456"
   style="fill:#f4a263" />

		<path
   class="st3"
   d="m 931.39,1715.49 c 0,12.61 -2.65,22.26 -7.95,28.94 -5.3,6.68 -12.69,10.02 -22.17,10.02 -9.48,0 -16.87,-3.34 -22.17,-10.02 -5.3,-6.68 -7.95,-16.32 -7.95,-28.94 0,-12.61 2.65,-22.26 7.95,-28.94 5.3,-6.68 12.69,-10.02 22.17,-10.02 9.48,0 16.87,3.34 22.17,10.02 5.29,6.69 7.95,16.33 7.95,28.94 z m -22.96,0 c 0,-11.65 -2.39,-17.47 -7.17,-17.47 -4.78,0 -7.17,5.83 -7.17,17.47 0,11.65 2.39,17.47 7.17,17.47 4.78,0.01 7.17,-5.82 7.17,-17.47 z"
   id="path1458"
   style="fill:#f4a263" />

		<path
   class="st3"
   d="m 944.04,1716.94 c 1.57,-2.97 2.58,-5.19 3.02,-6.68 0.45,-1.48 0.67,-2.89 0.67,-4.23 0,-2.37 -0.78,-4.21 -2.35,-5.51 -1.57,-1.3 -3.85,-1.95 -6.83,-1.95 -0.6,0 -1.16,0.02 -1.68,0.06 -0.52,0.04 -1.01,0.09 -1.46,0.17 -0.52,0.07 -1.01,0.11 -1.46,0.11 v -20.59 c 1.04,-0.22 1.98,-0.41 2.8,-0.56 0.82,-0.15 1.62,-0.26 2.41,-0.33 0.78,-0.07 1.6,-0.13 2.46,-0.17 0.86,-0.04 1.85,-0.06 2.97,-0.06 3.58,0 7.11,0.39 10.58,1.17 3.47,0.78 6.59,2.06 9.35,3.84 2.76,1.78 5,4.16 6.72,7.12 1.72,2.97 2.58,6.6 2.58,10.91 0,2 -0.22,3.99 -0.67,5.95 -0.45,1.97 -1.14,4.1 -2.07,6.4 -0.93,2.3 -2.13,4.88 -3.58,7.73 -1.46,2.86 -3.16,6.18 -5.1,9.96 l -1.46,2.78 h 14.11 l -6.38,19.48 h -43.45 z"
   id="path1460"
   style="fill:#f4a263" />

		<path
   class="st3"
   d="m 977.3,1732.63 c 0.82,0.15 1.59,0.22 2.3,0.22 0.71,0 1.4,0 2.07,0 2.39,0 4.38,-0.24 5.99,-0.72 1.6,-0.48 2.87,-1.13 3.81,-1.95 0.93,-0.82 1.6,-1.73 2.02,-2.73 0.41,-1 0.62,-2.06 0.62,-3.17 0,-1.56 -0.52,-3.04 -1.57,-4.45 -1.05,-1.41 -2.35,-2.69 -3.92,-3.84 -1.57,-1.15 -3.25,-2.21 -5.04,-3.17 -1.79,-0.96 -3.4,-1.78 -4.82,-2.45 1.27,-0.82 2.54,-1.67 3.81,-2.56 1.27,-0.89 2.41,-1.8 3.42,-2.73 1.01,-0.93 1.81,-1.84 2.41,-2.73 0.6,-0.89 0.9,-1.74 0.9,-2.56 0,-1.33 -0.5,-2.24 -1.51,-2.73 -1.01,-0.48 -2.11,-0.72 -3.3,-0.72 -0.97,0 -1.89,0.06 -2.74,0.17 -0.86,0.11 -1.62,0.24 -2.3,0.39 -0.82,0.22 -1.53,0.41 -2.13,0.56 v -18.7 c 1.04,-0.22 2.28,-0.44 3.7,-0.67 1.27,-0.15 2.86,-0.3 4.76,-0.45 1.9,-0.15 4.16,-0.22 6.77,-0.22 7.32,0 12.71,1.65 16.18,4.95 3.47,3.3 5.21,7.62 5.21,12.97 0,1.86 -0.3,3.54 -0.9,5.06 -0.6,1.52 -1.27,2.84 -2.02,3.95 -0.82,1.33 -1.75,2.56 -2.8,3.67 1.87,1.49 3.54,3.19 5.04,5.12 1.27,1.71 2.42,3.75 3.47,6.12 1.04,2.38 1.57,5.05 1.57,8.01 0,4.6 -0.95,8.55 -2.86,11.85 -1.9,3.3 -4.46,6.01 -7.67,8.12 -3.21,2.11 -6.92,3.67 -11.14,4.67 -4.22,1 -8.6,1.5 -13.16,1.5 -0.75,0 -1.62,0 -2.63,0 -1.01,0 -2.18,-0.04 -3.53,-0.11 v -20.67 z"
   id="path1462"
   style="fill:#f4a263" />

		<path
   class="st3"
   d="m 549.82,1797.04 h 18.64 v 41.07 h 15.45 v 14.61 h -34.1 v -55.68 z"
   id="path1464"
   style="fill:#f4a263" />

		<path
   class="st3"
   d="m 603.49,1797.04 h 13.44 l 21.25,55.67 h -17.64 l -1.85,-5.01 h -16.96 l -1.85,5.01 h -17.64 z m 10.5,38.4 -3.78,-9.77 -3.78,9.77 z"
   id="path1466"
   style="fill:#f4a263" />

		<path
   class="st3"
   d="m 653.29,1839.36 h 6.13 c 1.79,0 2.99,-0.33 3.61,-1 0.62,-0.67 0.92,-1.61 0.92,-2.84 v -38.48 h 18.48 v 41.57 c 0,5.18 -1.19,8.82 -3.57,10.93 -2.38,2.12 -6.17,3.17 -11.38,3.17 h -14.19 z"
   id="path1468"
   style="fill:#f4a263" />

		<path
   class="st3"
   d="m 686.8,1824.92 c 0,-4.01 0.77,-7.79 2.31,-11.35 1.54,-3.56 3.64,-6.66 6.3,-9.31 2.66,-2.64 5.78,-4.73 9.36,-6.26 3.58,-1.53 7.39,-2.3 11.42,-2.3 4.03,0 7.84,0.77 11.42,2.3 3.58,1.53 6.7,3.62 9.36,6.26 2.66,2.64 4.76,5.75 6.3,9.31 1.54,3.56 2.31,7.34 2.31,11.35 0,4.01 -0.77,7.79 -2.31,11.35 -1.54,3.56 -3.64,6.67 -6.3,9.31 -2.66,2.64 -5.78,4.73 -9.36,6.26 -3.58,1.53 -7.39,2.29 -11.42,2.29 -4.03,0 -7.84,-0.77 -11.42,-2.29 -3.58,-1.53 -6.71,-3.62 -9.36,-6.26 -2.66,-2.64 -4.76,-5.75 -6.3,-9.31 -1.54,-3.56 -2.31,-7.34 -2.31,-11.35 z m 17.64,0 c 0,1.61 0.31,3.13 0.92,4.55 0.62,1.42 1.46,2.66 2.52,3.71 1.06,1.06 2.31,1.89 3.74,2.5 1.43,0.61 2.95,0.92 4.58,0.92 1.62,0 3.15,-0.3 4.58,-0.92 1.43,-0.61 2.67,-1.45 3.74,-2.5 1.06,-1.06 1.9,-2.3 2.52,-3.71 0.62,-1.42 0.92,-2.93 0.92,-4.55 0,-1.61 -0.31,-3.13 -0.92,-4.55 -0.62,-1.42 -1.46,-2.66 -2.52,-3.71 -1.06,-1.06 -2.31,-1.89 -3.74,-2.5 -1.43,-0.61 -2.95,-0.92 -4.58,-0.92 -1.62,0 -3.15,0.31 -4.58,0.92 -1.43,0.61 -2.67,1.45 -3.74,2.5 -1.06,1.06 -1.9,2.3 -2.52,3.71 -0.62,1.42 -0.92,2.94 -0.92,4.55 z"
   id="path1470"
   style="fill:#f4a263" />

		<path
   class="st3"
   d="m 750.21,1797.04 h 18.64 v 41.07 h 15.45 v 14.61 h -34.1 v -55.68 z"
   id="path1472"
   style="fill:#f4a263" />

		<path
   class="st3"
   d="m 787.24,1797.04 h 18.64 v 41.07 h 15.45 v 14.61 h -34.1 v -55.68 z"
   id="path1474"
   style="fill:#f4a263" />

		<path
   class="st3"
   d="m 840.91,1797.04 h 13.44 l 21.25,55.67 h -17.64 l -1.85,-5.01 h -16.96 l -1.85,5.01 h -17.64 z m 10.5,38.4 -3.78,-9.77 -3.78,9.77 z"
   id="path1476"
   style="fill:#f4a263" />

		<path
   class="st3"
   d="m 879.54,1838.78 h 15.96 l -7.31,22.54 h -14.28 z"
   id="path1478"
   style="fill:#f4a263" />

		<path
   class="st3"
   d="m 915.4,1824.92 c 0,-4.45 0.78,-8.47 2.35,-12.06 1.57,-3.59 3.7,-6.66 6.38,-9.22 2.69,-2.56 5.82,-4.52 9.41,-5.88 3.58,-1.36 7.39,-2.04 11.42,-2.04 3.19,0 6.03,0.31 8.52,0.92 2.49,0.61 4.63,1.31 6.42,2.09 2.07,0.89 3.86,1.87 5.38,2.92 l -8.82,15.44 c -0.9,-0.67 -1.88,-1.31 -2.94,-1.92 -0.95,-0.44 -2.09,-0.88 -3.4,-1.29 -1.32,-0.42 -2.81,-0.63 -4.49,-0.63 -1.74,0 -3.33,0.31 -4.79,0.92 -1.46,0.61 -2.73,1.45 -3.82,2.5 -1.09,1.06 -1.95,2.3 -2.56,3.71 -0.62,1.42 -0.92,2.94 -0.92,4.55 0,1.61 0.32,3.13 0.97,4.55 0.64,1.42 1.52,2.66 2.65,3.71 1.12,1.06 2.44,1.89 3.95,2.5 1.51,0.61 3.16,0.92 4.96,0.92 1.79,0 3.39,-0.22 4.79,-0.67 1.4,-0.44 2.57,-0.95 3.53,-1.5 1.12,-0.61 2.1,-1.34 2.94,-2.17 l 8.82,15.44 c -1.51,1.22 -3.3,2.31 -5.38,3.25 -1.79,0.78 -3.95,1.5 -6.47,2.17 -2.52,0.67 -5.4,1 -8.65,1 -4.37,0 -8.4,-0.71 -12.09,-2.13 -3.7,-1.42 -6.89,-3.41 -9.57,-5.97 -2.69,-2.56 -4.79,-5.63 -6.3,-9.22 -1.54,-3.58 -2.29,-7.55 -2.29,-11.89 z"
   id="path1480"
   style="fill:#f4a263" />

		<path
   class="st3"
   d="m 986.95,1797.04 h 13.44 l 21.25,55.67 H 1004 l -1.85,-5.01 h -16.96 l -1.85,5.01 H 965.7 Z m 10.5,38.4 -3.78,-9.77 -3.78,9.77 z"
   id="path1482"
   style="fill:#f4a263" />

		<path
   class="st4"
   d="m 514.38,1880.36 h 6.79 l 6.71,9.82 6.68,-9.82 h 6.79 v 25.58 h -8.22 v -9.21 l -5.25,7.67 -5.29,-7.67 v 9.21 h -8.22 v -25.58 z"
   id="path1484"
   style="fill:#fad066" />

		<path
   class="st4"
   d="m 543.48,1893.17 c 0,-1.84 0.35,-3.58 1.06,-5.22 0.71,-1.64 1.67,-3.06 2.89,-4.28 1.22,-1.21 2.66,-2.17 4.3,-2.88 1.65,-0.7 3.4,-1.05 5.25,-1.05 1.85,0 3.6,0.35 5.25,1.05 1.65,0.7 3.08,1.66 4.3,2.88 1.22,1.21 2.19,2.64 2.89,4.28 0.71,1.64 1.06,3.38 1.06,5.22 0,1.84 -0.35,3.58 -1.06,5.22 -0.71,1.64 -1.67,3.06 -2.89,4.28 -1.22,1.21 -2.66,2.17 -4.3,2.88 -1.65,0.7 -3.4,1.05 -5.25,1.05 -1.85,0 -3.6,-0.35 -5.25,-1.05 -1.65,-0.7 -3.08,-1.66 -4.3,-2.88 -1.22,-1.21 -2.19,-2.64 -2.89,-4.28 -0.71,-1.64 -1.06,-3.38 -1.06,-5.22 z m 8.1,0 c 0,0.74 0.14,1.44 0.42,2.09 0.28,0.65 0.67,1.22 1.16,1.71 0.49,0.49 1.06,0.87 1.72,1.15 0.66,0.28 1.36,0.42 2.1,0.42 0.74,0 1.45,-0.14 2.1,-0.42 0.65,-0.28 1.23,-0.67 1.72,-1.15 0.49,-0.49 0.87,-1.05 1.16,-1.71 0.29,-0.66 0.42,-1.35 0.42,-2.09 0,-0.74 -0.14,-1.44 -0.42,-2.09 -0.28,-0.65 -0.67,-1.22 -1.16,-1.71 -0.49,-0.49 -1.06,-0.87 -1.72,-1.15 -0.66,-0.28 -1.36,-0.42 -2.1,-0.42 -0.74,0 -1.45,0.14 -2.1,0.42 -0.65,0.28 -1.23,0.67 -1.72,1.15 -0.49,0.49 -0.88,1.05 -1.16,1.71 -0.28,0.65 -0.42,1.35 -0.42,2.09 z"
   id="path1486"
   style="fill:#fad066" />

		<path
   class="st4"
   d="m 572.61,1880.36 h 8.88 c 1.65,0 3.17,0.22 4.57,0.65 1.4,0.44 2.62,1.07 3.65,1.92 1.03,0.85 1.83,1.89 2.41,3.13 0.58,1.24 0.87,2.67 0.87,4.28 0,1.28 -0.18,2.37 -0.54,3.26 -0.36,0.89 -0.76,1.64 -1.2,2.22 -0.51,0.67 -1.09,1.23 -1.74,1.69 l 4.82,8.44 h -9.65 l -3.86,-6.48 v 6.48 h -8.22 v -25.59 z m 8.22,12.58 h 0.42 c 0.98,0 1.81,-0.22 2.49,-0.65 0.68,-0.43 1.02,-1.16 1.02,-2.19 0,-1.03 -0.34,-1.75 -1.02,-2.19 -0.68,-0.44 -1.51,-0.65 -2.49,-0.65 h -0.42 z"
   id="path1488"
   style="fill:#fad066" />

		<path
   class="st4"
   d="m 595.11,1880.36 h 15.17 v 6.71 h -6.95 v 2.84 h 6.83 v 6.37 h -6.83 v 2.95 h 7.22 v 6.71 h -15.44 z"
   id="path1490"
   style="fill:#fad066" />

		<path
   class="st4"
   d="m 620.58,1905.94 v -25.58 h 7.14 c 2.42,0 4.57,0.27 6.46,0.8 1.89,0.54 3.49,1.34 4.79,2.42 1.3,1.08 2.29,2.41 2.97,4.01 0.68,1.6 1.02,3.45 1.02,5.54 0,2.1 -0.34,3.94 -1.02,5.54 -0.68,1.6 -1.67,2.93 -2.97,4.01 -1.3,1.07 -2.89,1.89 -4.79,2.44 -1.9,0.55 -4.05,0.82 -6.46,0.82 z m 8.22,-7.29 c 1.93,0 3.42,-0.45 4.48,-1.36 1.05,-0.91 1.58,-2.29 1.58,-4.16 0,-1.87 -0.53,-3.25 -1.58,-4.14 -1.05,-0.9 -2.55,-1.34 -4.48,-1.34 z"
   id="path1492"
   style="fill:#fad066" />

		<path
   class="st4"
   d="m 645.09,1880.36 h 15.17 v 6.71 h -6.95 v 2.84 h 6.83 v 6.37 h -6.83 v 2.95 h 7.22 v 6.71 h -15.44 z"
   id="path1494"
   style="fill:#fad066" />

		<path
   class="st4"
   d="m 666.23,1887.07 h -4.75 v -6.71 h 17.98 v 6.71 h -4.75 v 18.87 h -8.49 v -18.87 z"
   id="path1496"
   style="fill:#fad066" />

		<path
   class="st4"
   d="m 688.46,1880.36 h 6.17 l 9.76,25.58 h -8.1 l -0.85,-2.3 h -7.79 l -0.85,2.3 h -8.1 z m 4.83,17.64 -1.74,-4.49 -1.74,4.49 z"
   id="path1498"
   style="fill:#fad066" />

		<path
   class="st4"
   d="m 704.98,1880.36 h 8.72 v 25.58 h -8.72 z"
   id="path1500"
   style="fill:#fad066" />

		<path
   class="st4"
   d="m 716.4,1880.36 h 8.57 v 18.87 h 7.1 v 6.71 H 716.4 Z"
   id="path1502"
   style="fill:#fad066" />

		<path
   class="st4"
   d="m 732.73,1898 c 0.57,0.18 1.16,0.32 1.78,0.42 0.51,0.13 1.1,0.23 1.76,0.31 0.66,0.08 1.32,0.12 1.99,0.12 1.18,0 1.78,-0.43 1.78,-1.3 0,-0.33 -0.18,-0.67 -0.54,-1.02 -0.36,-0.34 -0.82,-0.73 -1.37,-1.15 -0.55,-0.42 -1.14,-0.89 -1.77,-1.4 -0.63,-0.51 -1.22,-1.1 -1.78,-1.76 -0.55,-0.67 -1.01,-1.41 -1.37,-2.24 -0.36,-0.83 -0.54,-1.78 -0.54,-2.86 0,-1.2 0.22,-2.26 0.66,-3.18 0.44,-0.92 1.04,-1.69 1.81,-2.3 0.77,-0.61 1.68,-1.08 2.72,-1.4 1.04,-0.32 2.15,-0.48 3.34,-0.48 0.62,0 1.24,0.03 1.85,0.1 0.62,0.06 1.17,0.12 1.66,0.17 0.57,0.08 1.12,0.15 1.66,0.23 v 7.17 c -0.21,-0.02 -0.44,-0.05 -0.69,-0.08 -0.21,-0.03 -0.44,-0.05 -0.69,-0.08 -0.26,-0.03 -0.53,-0.04 -0.81,-0.04 -0.15,0 -0.35,0.01 -0.58,0.02 -0.23,0.01 -0.45,0.04 -0.66,0.1 -0.21,0.05 -0.39,0.14 -0.54,0.27 -0.15,0.13 -0.23,0.31 -0.23,0.54 0,0.2 0.17,0.46 0.52,0.77 0.35,0.31 0.77,0.67 1.27,1.07 0.5,0.41 1.05,0.88 1.66,1.42 0.61,0.54 1.16,1.15 1.66,1.84 0.5,0.69 0.93,1.47 1.27,2.34 0.35,0.87 0.52,1.84 0.52,2.92 0,1.12 -0.18,2.18 -0.54,3.16 -0.36,0.98 -0.92,1.84 -1.68,2.57 -0.76,0.73 -1.73,1.3 -2.91,1.73 -1.18,0.42 -2.59,0.63 -4.21,0.63 -0.98,0 -1.88,-0.04 -2.72,-0.13 -0.84,-0.09 -1.58,-0.2 -2.22,-0.33 -0.75,-0.13 -1.43,-0.28 -2.04,-0.46 V 1898 Z"
   id="path1504"
   style="fill:#fad066" />

		<path
   class="st4"
   d="m 757.93,1893.17 c 0,-2.05 0.36,-3.89 1.08,-5.54 0.72,-1.65 1.7,-3.06 2.93,-4.24 1.24,-1.18 2.68,-2.08 4.32,-2.7 1.65,-0.63 3.4,-0.94 5.25,-0.94 1.47,0 2.77,0.14 3.92,0.42 1.14,0.28 2.13,0.6 2.95,0.96 0.95,0.41 1.77,0.86 2.47,1.34 l -4.05,7.1 c -0.41,-0.31 -0.86,-0.6 -1.35,-0.88 -0.44,-0.2 -0.96,-0.4 -1.56,-0.59 -0.6,-0.19 -1.29,-0.29 -2.06,-0.29 -0.8,0 -1.53,0.14 -2.2,0.42 -0.67,0.28 -1.25,0.67 -1.76,1.15 -0.5,0.49 -0.89,1.05 -1.18,1.71 -0.28,0.65 -0.42,1.35 -0.42,2.09 0,0.74 0.15,1.44 0.44,2.09 0.29,0.65 0.7,1.22 1.21,1.71 0.51,0.49 1.12,0.87 1.81,1.15 0.69,0.28 1.45,0.42 2.28,0.42 0.83,0 1.56,-0.1 2.2,-0.31 0.64,-0.2 1.18,-0.43 1.62,-0.69 0.51,-0.28 0.96,-0.61 1.35,-1 l 4.05,7.1 c -0.69,0.56 -1.52,1.06 -2.47,1.5 -0.82,0.36 -1.81,0.69 -2.97,1 -1.16,0.31 -2.48,0.46 -3.97,0.46 -2.01,0 -3.86,-0.33 -5.56,-0.98 -1.7,-0.65 -3.16,-1.57 -4.4,-2.74 -1.23,-1.18 -2.2,-2.59 -2.89,-4.24 -0.7,-1.67 -1.04,-3.49 -1.04,-5.48 z"
   id="path1506"
   style="fill:#fad066" />

		<path
   class="st4"
   d="m 781.62,1893.17 c 0,-1.84 0.35,-3.58 1.06,-5.22 0.71,-1.64 1.67,-3.06 2.89,-4.28 1.22,-1.21 2.66,-2.17 4.3,-2.88 1.65,-0.7 3.4,-1.05 5.25,-1.05 1.85,0 3.6,0.35 5.25,1.05 1.65,0.7 3.08,1.66 4.3,2.88 1.22,1.21 2.19,2.64 2.89,4.28 0.71,1.64 1.06,3.38 1.06,5.22 0,1.84 -0.35,3.58 -1.06,5.22 -0.71,1.64 -1.67,3.06 -2.89,4.28 -1.22,1.21 -2.66,2.17 -4.3,2.88 -1.65,0.7 -3.4,1.05 -5.25,1.05 -1.85,0 -3.6,-0.35 -5.25,-1.05 -1.65,-0.7 -3.08,-1.66 -4.3,-2.88 -1.22,-1.21 -2.19,-2.64 -2.89,-4.28 -0.71,-1.64 -1.06,-3.38 -1.06,-5.22 z m 8.11,0 c 0,0.74 0.14,1.44 0.42,2.09 0.28,0.65 0.67,1.22 1.16,1.71 0.49,0.49 1.06,0.87 1.72,1.15 0.66,0.28 1.36,0.42 2.1,0.42 0.74,0 1.45,-0.14 2.1,-0.42 0.65,-0.28 1.23,-0.67 1.72,-1.15 0.49,-0.49 0.87,-1.05 1.16,-1.71 0.29,-0.66 0.42,-1.35 0.42,-2.09 0,-0.74 -0.14,-1.44 -0.42,-2.09 -0.28,-0.65 -0.67,-1.22 -1.16,-1.71 -0.49,-0.49 -1.06,-0.87 -1.72,-1.15 -0.66,-0.28 -1.36,-0.42 -2.1,-0.42 -0.74,0 -1.45,0.14 -2.1,0.42 -0.65,0.28 -1.23,0.67 -1.72,1.15 -0.49,0.49 -0.88,1.05 -1.16,1.71 -0.28,0.65 -0.42,1.35 -0.42,2.09 z"
   id="path1508"
   style="fill:#fad066" />

		<path
   class="st4"
   d="m 810.76,1880.36 h 6.79 l 6.71,9.82 6.68,-9.82 h 6.79 v 25.58 h -8.22 v -9.21 l -5.25,7.67 -5.29,-7.67 v 9.21 h -8.22 v -25.58 z"
   id="path1510"
   style="fill:#fad066" />

		<path
   class="st4"
   d="m 840.43,1880.36 h 8.72 v 25.58 h -8.72 z"
   id="path1512"
   style="fill:#fad066" />

		<path
   class="st4"
   d="m 851.86,1880.36 h 6.75 l 7.1,9.86 v -9.86 h 8.07 v 25.58 h -6.79 l -7.06,-9.82 v 9.82 h -8.07 z"
   id="path1514"
   style="fill:#fad066" />

		<path
   class="st4"
   d="m 892.88,1889.06 c -0.46,-0.41 -1.04,-0.72 -1.74,-0.94 -0.7,-0.22 -1.38,-0.33 -2.05,-0.33 -0.75,0 -1.43,0.13 -2.04,0.4 -0.61,0.27 -1.15,0.64 -1.6,1.11 -0.45,0.47 -0.8,1.04 -1.06,1.71 -0.26,0.67 -0.39,1.38 -0.39,2.15 0,0.77 0.14,1.48 0.42,2.15 0.28,0.67 0.67,1.23 1.16,1.71 0.49,0.47 1.06,0.84 1.72,1.11 0.66,0.27 1.36,0.4 2.1,0.4 0.88,0 1.67,-0.19 2.39,-0.56 0.72,-0.37 1.34,-0.88 1.85,-1.51 h -2.32 v -5.37 h 9.92 v 8.51 c -0.59,1.05 -1.3,2 -2.12,2.86 -0.82,0.86 -1.74,1.59 -2.76,2.21 -1.02,0.62 -2.12,1.09 -3.3,1.42 -1.18,0.33 -2.41,0.5 -3.67,0.5 -1.85,0 -3.6,-0.35 -5.25,-1.04 -1.65,-0.69 -3.08,-1.64 -4.3,-2.84 -1.22,-1.2 -2.19,-2.62 -2.89,-4.26 -0.71,-1.64 -1.06,-3.4 -1.06,-5.29 0,-1.84 0.33,-3.58 1,-5.22 0.67,-1.64 1.59,-3.06 2.76,-4.28 1.17,-1.21 2.56,-2.17 4.17,-2.88 1.61,-0.7 3.34,-1.05 5.19,-1.05 1.44,0 2.69,0.14 3.74,0.42 1.05,0.28 1.94,0.6 2.66,0.96 0.85,0.41 1.56,0.86 2.12,1.34 z"
   id="path1516"
   style="fill:#fad066" />

		<path
   class="st4"
   d="m 910.4,1898 c 0.57,0.18 1.16,0.32 1.78,0.42 0.51,0.13 1.1,0.23 1.76,0.31 0.66,0.08 1.32,0.12 1.99,0.12 1.18,0 1.78,-0.43 1.78,-1.3 0,-0.33 -0.18,-0.67 -0.54,-1.02 -0.36,-0.34 -0.82,-0.73 -1.37,-1.15 -0.55,-0.42 -1.14,-0.89 -1.77,-1.4 -0.63,-0.51 -1.22,-1.1 -1.78,-1.76 -0.55,-0.67 -1.01,-1.41 -1.37,-2.24 -0.36,-0.83 -0.54,-1.78 -0.54,-2.86 0,-1.2 0.22,-2.26 0.66,-3.18 0.44,-0.92 1.04,-1.69 1.81,-2.3 0.77,-0.61 1.68,-1.08 2.72,-1.4 1.04,-0.32 2.15,-0.48 3.34,-0.48 0.62,0 1.24,0.03 1.85,0.1 0.62,0.06 1.17,0.12 1.66,0.17 0.57,0.08 1.12,0.15 1.66,0.23 v 7.17 c -0.21,-0.02 -0.44,-0.05 -0.69,-0.08 -0.21,-0.03 -0.44,-0.05 -0.69,-0.08 -0.26,-0.03 -0.53,-0.04 -0.81,-0.04 -0.15,0 -0.35,0.01 -0.58,0.02 -0.23,0.01 -0.45,0.04 -0.66,0.1 -0.21,0.05 -0.39,0.14 -0.54,0.27 -0.15,0.13 -0.23,0.31 -0.23,0.54 0,0.2 0.17,0.46 0.52,0.77 0.35,0.31 0.77,0.67 1.27,1.07 0.5,0.41 1.05,0.88 1.66,1.42 0.61,0.54 1.16,1.15 1.66,1.84 0.5,0.69 0.93,1.47 1.27,2.34 0.35,0.87 0.52,1.84 0.52,2.92 0,1.12 -0.18,2.18 -0.54,3.16 -0.36,0.98 -0.92,1.84 -1.68,2.57 -0.76,0.73 -1.73,1.3 -2.91,1.73 -1.18,0.42 -2.59,0.63 -4.21,0.63 -0.98,0 -1.88,-0.04 -2.72,-0.13 -0.84,-0.09 -1.58,-0.2 -2.22,-0.33 -0.75,-0.13 -1.43,-0.28 -2.04,-0.46 V 1898 Z"
   id="path1518"
   style="fill:#fad066" />

		<path
   class="st4"
   d="m 927.88,1893.17 c 0,-1.84 0.35,-3.58 1.06,-5.22 0.71,-1.64 1.67,-3.06 2.89,-4.28 1.22,-1.21 2.66,-2.17 4.3,-2.88 1.65,-0.7 3.4,-1.05 5.25,-1.05 1.85,0 3.6,0.35 5.25,1.05 1.65,0.7 3.08,1.66 4.3,2.88 1.22,1.21 2.19,2.64 2.89,4.28 0.71,1.64 1.06,3.38 1.06,5.22 0,1.84 -0.35,3.58 -1.06,5.22 -0.71,1.64 -1.67,3.06 -2.89,4.28 -1.22,1.21 -2.66,2.17 -4.3,2.88 -1.65,0.7 -3.4,1.05 -5.25,1.05 -1.85,0 -3.6,-0.35 -5.25,-1.05 -1.65,-0.7 -3.08,-1.66 -4.3,-2.88 -1.22,-1.21 -2.19,-2.64 -2.89,-4.28 -0.71,-1.64 -1.06,-3.38 -1.06,-5.22 z m 8.1,0 c 0,0.74 0.14,1.44 0.42,2.09 0.28,0.65 0.67,1.22 1.16,1.71 0.49,0.49 1.06,0.87 1.72,1.15 0.66,0.28 1.36,0.42 2.1,0.42 0.74,0 1.45,-0.14 2.1,-0.42 0.65,-0.28 1.23,-0.67 1.72,-1.15 0.49,-0.49 0.87,-1.05 1.16,-1.71 0.29,-0.66 0.42,-1.35 0.42,-2.09 0,-0.74 -0.14,-1.44 -0.42,-2.09 -0.28,-0.65 -0.67,-1.22 -1.16,-1.71 -0.49,-0.49 -1.06,-0.87 -1.72,-1.15 -0.66,-0.28 -1.36,-0.42 -2.1,-0.42 -0.74,0 -1.45,0.14 -2.1,0.42 -0.65,0.28 -1.23,0.67 -1.72,1.15 -0.49,0.49 -0.88,1.05 -1.16,1.71 -0.27,0.65 -0.42,1.35 -0.42,2.09 z"
   id="path1520"
   style="fill:#fad066" />

		<path
   class="st4"
   d="m 956.44,1893.17 c 0,-1.84 0.35,-3.58 1.06,-5.22 0.71,-1.64 1.67,-3.06 2.89,-4.28 1.22,-1.21 2.66,-2.17 4.3,-2.88 1.65,-0.7 3.4,-1.05 5.25,-1.05 1.85,0 3.6,0.35 5.25,1.05 1.65,0.7 3.08,1.66 4.3,2.88 1.22,1.21 2.19,2.64 2.89,4.28 0.71,1.64 1.06,3.38 1.06,5.22 0,1.84 -0.35,3.58 -1.06,5.22 -0.71,1.64 -1.67,3.06 -2.89,4.28 -1.22,1.21 -2.66,2.17 -4.3,2.88 -1.65,0.7 -3.4,1.05 -5.25,1.05 -1.85,0 -3.6,-0.35 -5.25,-1.05 -1.65,-0.7 -3.08,-1.66 -4.3,-2.88 -1.22,-1.21 -2.19,-2.64 -2.89,-4.28 -0.71,-1.64 -1.06,-3.38 -1.06,-5.22 z m 8.1,0 c 0,0.74 0.14,1.44 0.42,2.09 0.28,0.65 0.67,1.22 1.16,1.71 0.49,0.49 1.06,0.87 1.72,1.15 0.66,0.28 1.36,0.42 2.1,0.42 0.74,0 1.45,-0.14 2.1,-0.42 0.65,-0.28 1.23,-0.67 1.72,-1.15 0.49,-0.49 0.87,-1.05 1.16,-1.71 0.29,-0.66 0.42,-1.35 0.42,-2.09 0,-0.74 -0.14,-1.44 -0.42,-2.09 -0.28,-0.65 -0.67,-1.22 -1.16,-1.71 -0.49,-0.49 -1.06,-0.87 -1.72,-1.15 -0.66,-0.28 -1.36,-0.42 -2.1,-0.42 -0.74,0 -1.45,0.14 -2.1,0.42 -0.65,0.28 -1.23,0.67 -1.72,1.15 -0.49,0.49 -0.88,1.05 -1.16,1.71 -0.28,0.65 -0.42,1.35 -0.42,2.09 z"
   id="path1522"
   style="fill:#fad066" />

		<path
   class="st4"
   d="m 985.57,1880.36 h 6.75 l 7.1,9.86 v -9.86 h 8.07 v 25.58 h -6.79 l -7.06,-9.82 v 9.82 h -8.07 z"
   id="path1524"
   style="fill:#fad066" />

		<path
   class="st4"
   d="m 1010,1880.36 h 8.8 l -1.31,18.03 h -6.17 z m 0.27,19.18 h 8.26 v 6.41 h -8.26 z"
   id="path1526"
   style="fill:#fad066" />

	</g>

</g>
  </g>
</svg>
