<?xml version="1.0" encoding="utf-8"?>
<!-- Generator: Adobe Illustrator 27.3.1, SVG Export Plug-In . SVG Version: 6.00 Build 0)  -->
<svg version="1.1" xmlns="http://www.w3.org/2000/svg" xmlns:xlink="http://www.w3.org/1999/xlink" x="0px" y="0px"
	 viewBox="0 0 1125 2436" style="enable-background:new 0 0 1125 2436;" xml:space="preserve">
<style type="text/css">
	.st0{fill:#0D1128;}
	.st1{fill:#FFF5D4;}
	.st2{fill:#F499BB;}
	.st3{fill:#F4A263;}
	.st4{fill:#FAD066;}
	.st5{fill:#333333;}
	.st6{fill:#9DC38E;}
	.st7{fill:#FFECC5;}
	.st8{display:none;}
	.st9{display:inline;fill:#E6E7E8;stroke:#9DC38E;stroke-width:17;stroke-miterlimit:10;}
</style>
<g id="Layer_4">
	<polyline class="st0" points="104.53,2044.38 -2.03,2044.37 -1.82,2.14 1382.36,2.28 1382.31,477.21 	"/>
	<line class="st0" x1="-4.31" y1="2250.34" x2="-4.31" y2="2118.12"/>
	<line class="st0" x1="-4.31" y1="2349.64" x2="-4.31" y2="2250.34"/>
	<polyline class="st1" points="1125.92,822.69 1125.93,2511.09 -388.2,2511.08 	"/>
</g>
<g id="Layer_2">
	<polyline class="st2" points="-199.04,2030.32 1562.58,356.89 1673.02,352.25 -239.56,2182.65 	"/>
	<line class="st3" x1="-0.2" y1="2243.54" x2="0" y2="2243.21"/>
	<line class="st3" x1="0" y1="2384.49" x2="-0.23" y2="2384.88"/>
	<polyline class="st3" points="-234.72,2165.69 1519.54,483.14 1624.87,478.72 -274.97,2314.51 	"/>
	<line class="st4" x1="0.14" y1="2495.74" x2="-7.58" y2="2508.5"/>
	<polyline class="st4" points="-268.87,2291.98 1494.36,603.68 1596.46,599.39 -307.43,2436 	"/>
</g>
<g id="Layer_3">
	<path id="BACKGROUND_00000167390569601682181960000008518085596809695141_" class="st1" d="M138.86,675.98l48.11,23.02l38.63,17.91
		c2.3,1.07,3.74,3.41,3.64,5.93l-10.07,259.22c-0.14,3.56,2.73,6.52,6.31,6.52h220.99c3.42,0,6.21-2.7,6.31-6.1l1.05-36.33
		c0.1-3.55,3.14-6.3,6.7-6.08l10.22,0.63c0.12,0.01,0.24,0.01,0.36,0.01l13.83,0.06l347.2,0.97c3.24,0.01,5.97-2.43,6.3-5.63
		l4.08-39.27c0.32-3.11,2.91-5.52,6.05-5.63l40.49-1.44c3.49-0.12,6.21-3.04,6.08-6.5l-2.23-60.02c-0.12-3.16-2.58-5.74-5.75-6.02
		l-55.58-4.9c-4.7-0.41-7.3-5.62-4.79-9.59l46.49-73.64c0.63-1,0.97-2.16,0.97-3.34v-39.17c0-3.47,2.83-6.28,6.31-6.28h115.96
		c3.49,0,6.31-2.81,6.31-6.28V500.59c0-2.09-1.05-4.04-2.79-5.21l-43.66-29.17c-1.04-0.7-2.27-1.07-3.52-1.07h-316.8
		c-3.49,0-6.31-2.81-6.31-6.28v-26.5c0-2.85-1.93-5.34-4.71-6.07l-19.69-5.15c-0.52-0.14-1.05-0.2-1.59-0.21l-291.35-0.84
		c-1.35,0-2.67-0.44-3.75-1.24l-8.07-5.97c-1.12-0.83-2.49-1.27-3.88-1.24l-130.6,2.25c-1.54,0.03-3.02,0.61-4.15,1.64l-19.63,17.84
		"/>
	<path class="st5" d="M834.45,721.08"/>
	<path class="st5" d="M811.12,739.53"/>
	<g id="OUTIDE_00000101074180812505575420000002506026346642584487_">
		<polygon class="st6" points="166.42,667.38 162.6,653.21 160.16,608.29 160.16,532.97 160.16,513.97 161.55,485.29 163.29,456.96 
			166.42,435.54 184.15,431.04 210.57,427.93 235.95,427.93 260.29,427.93 282.19,429.66 291.92,431.04 298.18,433.12 
			302.01,490.47 303.4,546.1 303.4,601.04 303.4,637.32 302.01,650.1 300.27,663.92 298.18,669.45 270.02,670.83 202.58,670.83 		
			"/>
		<polygon class="st6" points="316.96,486.65 365.74,484.92 365.74,528.46 365.74,616.56 391.01,614.49 386.14,535.02 
			431.43,537.79 433.07,586.85 433.07,623.82 433.07,641.79 431.43,655.26 429.25,663.21 417.31,664.25 380.23,665.63 
			353.11,667.01 322.87,667.01 320.43,661.14 318.35,614.84 316.96,565.2 		"/>
		<polygon class="st6" points="385.79,484.92 388.22,522.93 449.06,522.93 451.15,560.24 453.24,588.58 454.97,613.8 456.64,643.86 
			458.45,669.08 506.08,670.83 504.69,626.93 504.34,589.27 503.65,567.85 502.09,540.9 502.09,520.86 524.85,519.13 523.11,492.87 
			523.11,483.65 		"/>
		<polygon class="st6" points="709.22,482.73 710.38,501.39 710.38,524.2 669.59,525.35 643.4,526.5 621.15,526.5 595.66,527.65 
			575.26,528.57 576.42,544.7 577.12,553.22 589.4,553.22 605.85,554.37 619.07,554.37 631.23,555.23 640.62,556.44 646.18,558 
			649.66,559.73 650.01,568.54 650.53,580.63 650.53,596.87 650.53,609.83 650.35,619.16 649.66,634.7 648.79,645.93 648.09,654.4 
			646.88,663.04 644.62,669.77 563.27,668.39 521.55,668.22 521.55,624.34 565.76,626.47 606.38,624.51 606.72,603.26 
			604.64,596.87 598.03,597.04 569.7,597.73 554.23,597.73 540.5,597.73 534.93,596.7 534.06,594.28 533.89,581.49 532.85,565.2 
			532.15,552.99 531.28,537.61 530.41,517.4 530.24,498.4 530.59,489.41 532.67,484.92 		"/>
		<polygon class="st6" points="662.87,536.75 712.93,535.37 714.32,567.5 715.78,595.83 715.78,621.06 715.78,650.08 715.78,663.9 
			715.78,670.83 691.03,669.77 672.6,669.77 662.87,666.66 662.87,629.69 662.87,599.98 		"/>
		<polygon class="st6" points="726.49,480.79 727.88,535.37 728.92,576.25 728.92,603.1 729.85,626.47 731.01,651.58 731.01,666.78 
			762.53,666.78 782.23,665.86 793.12,665.17 810.51,664.25 825.57,662.4 838.55,659.41 844.34,656.87 846.89,645.36 848.28,629.92 
			849.44,615.18 849.44,603.1 849.44,580.63 849.44,561.97 849.44,530.36 849.44,514.12 848.17,491.49 841.39,489.41 827.14,487.34 
			810.97,485.61 779.51,483.37 758.82,482.33 		"/>
		<polygon class="st6" points="858.77,664.25 957.51,665.28 957.51,616.74 936.12,616.74 903.97,616.74 902.23,595.31 
			932.13,594.62 954.03,593.59 954.03,577 954.2,557.83 915.27,557.83 899.8,557.83 899.27,542.28 899.1,533.47 915.96,534.33 
			924.3,534.33 940.3,534.33 952.81,534.5 954.2,509.63 955.77,483.54 944.47,483.54 930.56,483.54 910.22,484.23 897.71,484.23 
			885.54,484.75 877.55,485.27 867.12,485.27 858.77,485.44 858.77,490.62 		"/>
	</g>
	<g id="BIRTHDAY_FESTIVAL_00000056428083484246487730000015438213068965651075_">
		<polygon class="st3" points="428.45,892.6 428.45,924.11 453.24,923.97 448.63,908.35 453.38,890.73 		"/>
		<polygon class="st3" points="468.33,892.6 468.33,924.11 476.67,924.11 477.28,913.93 482.09,924.11 489.39,924.11 484.54,912.53 
			489.39,912.22 488.84,891.73 		"/>
		<polygon class="st3" points="512.97,892.43 519.39,889 520.77,904.66 528.57,908.09 528.57,892.43 536.37,892.43 536.37,923.75 
			528.11,923.75 527.06,915.33 520.31,915.24 521.33,923.75 512.97,923.75 		"/>
		<polygon class="st3" points="539.66,890.73 539.66,924.01 558.86,916.11 558.86,910.75 557.93,906.54 555.98,902.7 552.37,898.53 
			547.8,894.54 		"/>
		<polygon class="st3" points="582.73,891.77 596.01,907.87 596.01,923.97 604.53,923.97 604.53,906.56 611.43,891.77 
			602.73,891.77 598.9,898.25 591.34,891.77 		"/>
		<polygon class="st3" points="628.97,890.73 628.97,923.97 640.79,923.97 639.48,910.6 648.44,910.43 648.44,903.55 637.44,897.81 
			648.44,898.16 648.44,890.73 		"/>
		<polygon class="st3" points="651.57,890.73 651.57,924.62 674.69,924.62 674.69,915.61 659.57,915.09 670.52,907.68 
			661.65,899.89 674.69,900.06 675.39,892.09 		"/>
		<polygon class="st3" points="678.34,890.73 678.34,906.5 691.2,913.37 678.34,913.93 678.34,924.62 701.51,924.11 701.51,904.46 
			686.86,900.23 700.59,900.06 700.24,890.73 		"/>
		<polygon class="st3" points="703.72,890.73 703.72,899.45 708.36,899.45 708.36,923.21 718.84,923.97 718.84,899.02 
			723.71,899.02 723.71,890.73 		"/>
		<polygon class="st3" points="726.11,891.77 725.62,923.97 733.79,923.97 733.79,891.77 		"/>
		<polygon class="st3" points="761.26,891.77 758.47,913.37 756.74,923.21 741.09,923.97 736.05,891.77 743.53,891.77 
			748.65,907.87 749.61,910.6 754.3,890.73 		"/>
		<polygon class="st3" points="763.34,890.73 763.34,924.62 773.25,923.97 772.56,913.37 777.12,913.37 780.82,923.97 
			787.41,923.97 786.29,907.35 784.72,890.73 		"/>
		<polygon class="st3" points="788.89,890.73 788.89,923.97 805.93,923.97 805.93,914.4 798.45,914.23 798.11,890.73 		"/>
		<polygon class="st3" points="560.96,890.35 560.96,924.24 570.87,923.58 570.18,912.99 574.74,912.99 578.44,923.58 
			585.03,923.58 583.91,906.97 582.34,890.35 		"/>
		<polygon class="st3" points="491.18,891.73 491.18,900.45 495.83,900.45 495.83,924.21 506.31,924.97 506.31,900.03 
			511.18,900.03 511.18,891.73 		"/>
		<polygon class="st3" points="457.19,891.82 456.7,924.02 464.87,924.02 464.87,891.82 		"/>
	</g>
	<g id="MANZ_00000058547729479975439980000010635427223025610637_">
		<polygon class="st2" points="465.23,876.22 447.67,875.53 424.38,874.51 424.38,864.47 424.38,845.99 424.38,828.88 424.38,802.8 
			425.25,774.52 425.94,751.49 426.29,724.19 427.68,697.59 428.9,684.29 444.8,683.59 464.53,683.59 488.35,683.59 509.21,683.59 
			519.98,683.59 523.11,696.03 524.16,705.91 526.42,723.29 527.98,737.73 534.06,801.08 536.15,824.22 537.02,837.35 
			538.58,859.12 540.15,874.51 539.45,876.22 498.08,876.22 492.69,822.32 471.14,822.66 468.88,822.84 467.49,834.24 
			466.97,845.81 466.1,862.92 		"/>
		<polygon class="st2" points="590.56,876.22 570.22,876.22 546.93,876.22 546.93,821.46 546.93,790.01 546.93,755.12 
			546.93,730.07 546.93,711.41 546.93,693.96 546.93,685.67 549.54,684.46 553.01,683.59 556.95,683.13 560.89,683.13 
			579.09,683.13 594.38,683.13 596.58,686.93 598.67,692.81 601.57,701.33 603.88,710.08 606.32,718.49 615.97,753.56 
			623.06,782.24 622.19,750.11 622.19,726.68 622.19,699.66 621.67,685.67 640.1,684.8 666.87,683.59 667.91,708.82 668.78,731.79 
			669.48,750.05 669.48,760.87 670.75,789.78 671.56,808.9 671.56,821.69 672.02,834.01 672.84,851.05 673.3,862.57 674.11,874.2 
			618.25,875.47 614.89,873.51 603.31,845.3 595.08,830.44 592.88,826.64 590.09,823.07 589.75,825.14 		"/>
		<path class="st2" d="M823.34,683.59L683,683.39c-0.93,0-1.69,0.75-1.69,1.68v36.52c0,0.92,0.75,1.68,1.68,1.68l68.84,0.38
			c1.34,0.01,2.14,1.48,1.41,2.59l-50.71,77.96l-17.48,24.43c-0.21,0.29-0.31,0.63-0.31,0.98l0.15,31.64c0,0.08,0.01,0.17,0.02,0.25
			l1.93,12.27c0.13,0.8,0.81,1.4,1.63,1.42l56.39,1.24L861.78,879c0.91,0.02,1.67-0.68,1.73-1.59l2.27-40.17
			c0.06-0.98-0.74-1.79-1.72-1.77l-79.59,1.49H751.6c-1.18,0-2-1.17-1.59-2.27l4.49-12.02c0.05-0.12,0.1-0.24,0.18-0.35
			l68.61-102.49C823.69,716.09,823.54,684.11,823.34,683.59L823.34,683.59z"/>
		<path class="st2" d="M253.71,682.81l45.9,0.67c1.11,0.02,2.06,0.78,2.3,1.86l20.31,90.04c0.56,2.48,4.11,2.48,4.67,0l10.49-46.51
			l10.55-46.78c0.03-0.14,0.07-0.27,0.13-0.4l0,0c0.37-0.88,1.24-1.45,2.2-1.45h55.68c1.05,0,1.97,0.67,2.28,1.67l0.17,0.54
			c0.07,0.23,0.11,0.47,0.11,0.71l0.01,18.24v63.39l-0.28,33.56l-0.28,67.7l-0.15,47.37l0.15,31.73l-0.14,24.28
			c-0.01,1.32-1.09,2.38-2.41,2.36l-19.97-0.16l-29.92,0.16c-1.31,0.01-2.38-1.04-2.41-2.34l-0.53-31l-2.76-67.41l-0.05-2.34
			c-0.05-2.12-2.66-3.13-4.13-1.59l-20.9,21.86c-0.98,1.02-2.63,0.98-3.55-0.09l-20.52-23.8c-1.44-1.67-4.19-0.67-4.21,1.53
			l-0.44,55.4v25.57l-0.38,21.89c-0.02,1.3-1.09,2.34-2.39,2.34h-17.6h-24.91h-6.78c-1.35,0-2.44-1.12-2.39-2.46l0.08-2.24
			l0.45-12.91l0.98-27.86l2.45-64.45l2.05-63.55l1.76-50.02l1.41-41.05l0.52-21.93c0-0.12,0.01-0.24,0.04-0.36l0.03-0.19
			C251.52,683.63,252.53,682.8,253.71,682.81z"/>
	</g>
	<g id="SAN_DIEGO_00000070841491124645131900000015231595968041997189_">
		<polygon class="st4" points="342.68,435.86 317.82,436.72 318.52,453.65 331.21,459.01 332.95,460.22 318.87,460.22 
			318.52,472.48 343.38,472.48 343.38,452.79 329.64,446.74 327.91,445.71 342.16,445.88 		"/>
		<polygon class="st4" points="346.33,435.86 346.33,472.48 356.59,471.79 356.59,460.22 360.59,459.87 364.93,471.45 
			372.41,471.62 371.71,435.86 		"/>
		<polygon class="st4" points="375.01,435.86 375.01,471.79 388.57,471.79 383.36,455.73 392.4,471.79 403.52,471.79 402.3,435.86 
			389.27,435.86 392.74,447.09 393.96,450.37 384.92,436.72 		"/>
		<polygon class="st4" points="431.43,433.38 431.43,473.98 456.64,463.76 456.64,455.9 453.49,448.64 449.3,443.77 443.34,439.22 
					"/>
		<rect x="460.28" y="435.46" class="st4" width="9.09" height="36.45"/>
		<polygon class="st4" points="475.76,435.46 475.76,471.9 502.09,471.9 494.61,462.29 499.34,455.28 492.35,449.51 502.09,435.46 
					"/>
		<polygon class="st4" points="529.58,430.97 529.58,441.69 518.8,446.04 520.42,460.46 524.19,451.41 529.92,459.14 531.87,471.84 
			508.44,471.84 508.44,437.67 		"/>
		<polygon class="st4" points="538.3,433.38 538.3,471.84 562.05,471.84 562.92,469.89 562.92,433.38 		"/>
		<polygon class="st4" points="560.83,425.32 560.83,431.71 565.53,432.4 566.57,443.81 571.79,432.06 571.79,425.32 		"/>
		<polygon class="st4" points="573.35,433.38 573.35,450.89 587.52,457.28 574.22,457.28 573.35,471.84 599.42,470.5 599.42,449.33 
			585,443.81 598.55,443.81 599.42,433.38 		"/>
	</g>
	<g id="INSIDE_00000132079288495951733180000014322914154423729547_">
		<polygon class="st1" points="218.92,483.54 218.92,605.51 236.1,607.93 236.1,480.79 		"/>
		<polygon class="st1" points="775.43,528.26 775.43,622.24 797.79,620.51 794.99,528.26 778.13,528.26 		"/>
		<polygon class="st1" points="470.28,746.57 470.28,782.77 487.66,782.77 485.93,745.78 		"/>
		<polygon class="st1" points="438.41,446.32 438.41,461.95 444.04,446.32 		"/>
		<polygon class="st1" points="546.28,441.88 546.28,465.09 554.1,465.09 		"/>
		<polygon class="st1" points="357.29,448.62 357.29,454.14 360.19,454.14 		"/>
		<polygon class="st1" points="438.96,896.72 438.96,901.66 443.3,896.72 		"/>
		<polygon class="st1" points="439.21,913 439.21,917.45 444.89,917.45 		"/>
		<polygon class="st1" points="476.23,895.96 476.68,904.08 484.59,899.19 		"/>
		<polygon class="st1" points="546.24,902.4 546.24,913.56 551.88,902.4 		"/>
		<polyline class="st1" points="776.13,900.55 776.13,906.08 779.08,906.08 		"/>
		<polyline class="st1" points="574.13,899.64 574.13,905.17 577.08,905.17 		"/>
	</g>
	<g id="ANTS_00000088827074322139528290000015312008385175677611_">
		<rect x="265.14" y="959.64" class="st7" width="4.97" height="12.16"/>
		<rect x="265.14" y="937.16" class="st7" width="4.97" height="12.16"/>
		<rect x="265.14" y="914.68" class="st7" width="4.97" height="12.16"/>
		<rect x="265.14" y="892.19" class="st7" width="4.97" height="12.16"/>
		<rect x="267.62" y="869.71" class="st7" width="4.97" height="12.16"/>
		<rect x="270.11" y="847.23" class="st7" width="4.97" height="12.16"/>
		<rect x="270.11" y="824.75" class="st7" width="4.97" height="12.16"/>
		<rect x="270.11" y="802.27" class="st7" width="4.97" height="12.16"/>
		<rect x="270.11" y="779.79" class="st7" width="4.97" height="12.16"/>
		<rect x="270.11" y="757.3" class="st7" width="4.97" height="12.16"/>
		<rect x="270.27" y="734.85" class="st7" width="4.97" height="12.16"/>
		<rect x="270.27" y="712.39" class="st7" width="4.97" height="12.16"/>
		<polygon class="st7" points="284.14,721.63 286.62,733.54 291.48,732.54 289,720.63 		"/>
		<polygon class="st7" points="337.7,830.35 332.99,841.57 337.57,843.47 342.28,832.25 		"/>
		<rect x="270.44" y="699.91" class="st7" width="4.97" height="5.85"/>
		<polygon class="st7" points="329.63,847.12 326.55,852.37 330.84,854.86 333.92,849.61 		"/>
		<polygon class="st7" points="278.68,701.38 281.85,713.13 286.65,711.85 283.48,700.11 		"/>
		<polygon class="st7" points="289.55,742.32 292.72,754.07 297.52,752.79 294.35,741.04 		"/>
		<polygon class="st7" points="296.03,764.23 299.2,775.98 304,774.7 300.83,762.95 		"/>
		<polygon class="st7" points="302.43,786.15 305.59,797.89 310.39,796.62 307.23,784.87 		"/>
		<polygon class="st7" points="308.12,810.06 311.28,821.81 316.08,820.53 312.91,808.78 		"/>
		<polygon class="st7" points="345.03,808.3 341.09,819.82 345.8,821.41 349.73,809.89 		"/>
		<polygon class="st7" points="355.89,763.93 352.75,775.69 357.55,776.96 360.69,765.2 		"/>
		<rect x="379.42" y="959.64" class="st7" width="4.97" height="12.16"/>
		<rect x="379.42" y="939" class="st7" width="4.97" height="12.16"/>
		<rect x="379.42" y="916.82" class="st7" width="4.97" height="12.16"/>
		<rect x="379.46" y="893.11" class="st7" width="4.97" height="12.16"/>
		<rect x="379.42" y="869.41" class="st7" width="4.97" height="12.16"/>
		<rect x="381.9" y="847.23" class="st7" width="4.97" height="12.16"/>
		<rect x="381.95" y="822.97" class="st7" width="4.97" height="12.16"/>
		<rect x="381.9" y="798.71" class="st7" width="4.97" height="12.16"/>
		<rect x="381.9" y="774.45" class="st7" width="4.97" height="12.16"/>
		<rect x="381.95" y="750.19" class="st7" width="4.97" height="12.16"/>
		<rect x="381.95" y="724.55" class="st7" width="4.97" height="12.16"/>
		<rect x="381.9" y="703.02" class="st7" width="4.97" height="12.16"/>
		<polygon class="st7" points="362.68,741.01 358.95,752.59 363.68,754.1 367.41,742.51 		"/>
		<polygon class="st7" points="183.29,629.83 185.33,635.57 190.01,633.92 187.97,628.19 		"/>
		<rect x="180.81" y="607.93" class="st7" width="4.97" height="12.16"/>
		<rect x="180.81" y="586.08" class="st7" width="4.97" height="12.16"/>
		<rect x="180.81" y="562.36" class="st7" width="4.97" height="12.16"/>
		<rect x="180.81" y="539.25" class="st7" width="4.97" height="12.16"/>
		<rect x="182.7" y="516.45" class="st7" width="4.97" height="12.16"/>
		<rect x="183.29" y="493.64" class="st7" width="4.97" height="12.16"/>
		<polygon class="st7" points="186.56,470.74 183.92,482.62 188.77,483.69 191.41,471.81 		"/>
		<polygon class="st7" points="197.94,457.64 191.41,461.56 193.84,465.55 200.37,461.64 		"/>
		<polygon class="st7" points="199.41,639.3 192.54,636.03 190.5,640.24 197.37,643.51 		"/>
		
			<rect x="209.85" y="636.36" transform="matrix(0.039 -0.9992 0.9992 0.039 -437.9531 829.552)" class="st7" width="4.94" height="12.24"/>
		
			<rect x="231.21" y="636.36" transform="matrix(0.0206 -0.9998 0.9998 0.0206 -413.4725 862.8748)" class="st7" width="4.94" height="12.24"/>
		
			<rect x="248.7" y="638.96" transform="matrix(0.0206 -0.9998 0.9998 0.0206 -396.2914 880.3041)" class="st7" width="4.94" height="6.92"/>
		<polygon class="st7" points="264.46,628.27 259.11,639.21 263.57,641.37 268.93,630.43 		"/>
		<rect x="265.74" y="607.93" class="st7" width="4.97" height="12.16"/>
		<rect x="265.74" y="586.08" class="st7" width="4.97" height="12.16"/>
		<rect x="265.74" y="562.36" class="st7" width="4.97" height="12.16"/>
		<rect x="265.74" y="539.25" class="st7" width="4.97" height="12.16"/>
		<rect x="265.74" y="513.17" class="st7" width="4.97" height="12.16"/>
		<rect x="265.74" y="489.07" class="st7" width="4.97" height="12.16"/>
		<rect x="265.74" y="464.66" class="st7" width="4.97" height="12.16"/>
		<polygon class="st7" points="268.21,457.37 263.55,451.38 259.83,454.23 264.49,460.23 		"/>
		<polygon class="st7" points="217.28,449.8 205.73,453.82 207.37,458.48 218.92,454.46 		"/>
		
			<rect x="231.21" y="445.26" transform="matrix(0.0169 -0.9999 0.9999 0.0169 -221.5801 677.4086)" class="st7" width="4.94" height="12.24"/>
		<polygon class="st7" points="256.08,449.63 248.54,448.51 247.85,453.13 255.39,454.25 		"/>
		<polygon class="st7" points="350.7,786.34 347.51,798.08 352.31,799.36 355.5,787.62 		"/>
		<polygon class="st7" points="319.99,848 325.66,858.78 330.07,856.49 324.39,845.71 		"/>
		<polygon class="st7" points="313.37,830.74 317.56,842.17 322.22,840.48 318.03,829.05 		"/>
		<polygon class="st7" points="368.54,717.54 364.81,729.13 369.55,730.63 373.27,719.05 		"/>
		<polygon class="st7" points="373.37,701.63 370.72,709.85 375.45,711.35 378.1,703.14 		"/>
		<rect x="338.41" y="484.92" class="st7" width="4.97" height="12.16"/>
		<rect x="338.41" y="505.8" class="st7" width="4.97" height="12.16"/>
		<rect x="338.41" y="525.33" class="st7" width="4.97" height="12.16"/>
		<rect x="338.41" y="547.41" class="st7" width="4.97" height="12.16"/>
		<rect x="338.41" y="569.88" class="st7" width="4.97" height="12.16"/>
		<rect x="338.41" y="593.8" class="st7" width="4.97" height="12.16"/>
		<rect x="338.41" y="617.75" class="st7" width="4.97" height="12.16"/>
		<polygon class="st7" points="340.28,638.75 345.64,644.19 349.18,640.73 343.82,635.3 		"/>
		
			<rect x="357.72" y="637.39" transform="matrix(2.536872e-03 -1 1 2.536872e-03 -284.2318 1002.0701)" class="st7" width="4.94" height="12.24"/>
		
			<rect x="375.63" y="637.39" transform="matrix(2.536872e-03 -1 1 2.536872e-03 -266.3714 1019.9758)" class="st7" width="4.94" height="12.24"/>
		
			<rect x="393.89" y="639.3" transform="matrix(2.536982e-03 -1 1 2.536982e-03 -248.157 1038.2306)" class="st7" width="4.94" height="8.42"/>
		<polygon class="st7" points="408.41,642.89 413.18,631.69 408.6,629.77 403.83,640.97 		"/>
		<rect x="408.75" y="611.67" class="st7" width="4.97" height="12.16"/>
		<rect x="408.75" y="589.86" class="st7" width="4.97" height="12.16"/>
		<rect x="408.75" y="567.91" class="st7" width="4.97" height="12.16"/>
		<rect x="408.75" y="546.43" class="st7" width="4.97" height="12.16"/>
		<rect x="386.63" y="499.45" class="st7" width="5.5" height="4.94"/>
		<rect x="397.71" y="499.46" class="st7" width="12.24" height="4.94"/>
		<rect x="419.19" y="499.46" class="st7" width="12.24" height="4.94"/>
		<rect x="441.23" y="499.46" class="st7" width="12.24" height="4.94"/>
		<rect x="463.25" y="499.46" class="st7" width="12.24" height="4.94"/>
		<rect x="506.74" y="499.46" class="st7" width="12.24" height="4.94"/>
		<rect x="473.28" y="509.41" class="st7" width="4.97" height="12.16"/>
		<rect x="473.28" y="530.49" class="st7" width="4.97" height="12.16"/>
		<rect x="473.81" y="552.51" class="st7" width="4.97" height="12.16"/>
		<rect x="474.67" y="574" class="st7" width="4.97" height="12.16"/>
		<rect x="475.76" y="614.34" class="st7" width="4.97" height="12.16"/>
		<rect x="476.29" y="634.95" class="st7" width="4.97" height="12.16"/>
		<rect x="477.15" y="652.92" class="st7" width="4.97" height="12.16"/>
		<rect x="475.76" y="594.71" class="st7" width="4.97" height="12.16"/>
		<rect x="486.78" y="499.46" class="st7" width="12.24" height="4.94"/>
		<rect x="701.55" y="499.29" class="st7" width="8.75" height="4.94"/>
		<rect x="679.53" y="499.29" class="st7" width="12.24" height="4.94"/>
		<rect x="656.75" y="499.29" class="st7" width="12.24" height="4.94"/>
		<rect x="633.9" y="499.46" class="st7" width="12.24" height="4.94"/>
		<rect x="611.59" y="499.46" class="st7" width="12.24" height="4.94"/>
		<rect x="589.28" y="499.29" class="st7" width="12.24" height="4.94"/>
		<rect x="567.23" y="499.29" class="st7" width="12.24" height="4.94"/>
		<polygon class="st7" points="560.99,500.27 553.87,506.67 557.43,510.58 564.55,504.18 		"/>
		
			<rect x="550.77" y="513.71" transform="matrix(0.9996 -0.0284 0.0284 0.9996 -14.5214 15.9141)" class="st7" width="4.97" height="11.43"/>
		<rect x="551.61" y="530.52" class="st7" width="4.97" height="12.16"/>
		<rect x="551.61" y="550.88" class="st7" width="4.97" height="12.16"/>
		<polygon class="st7" points="563.1,572.93 556.9,566.17 553.23,569.49 559.43,576.25 		"/>
		<rect x="567.23" y="573.78" class="st7" width="12.24" height="4.94"/>
		<rect x="586.39" y="573.78" class="st7" width="12.24" height="4.94"/>
		<polygon class="st7" points="627.84,580.55 622.53,574.71 618.84,578.02 624.16,583.86 		"/>
		
			<rect x="622.86" y="590.04" transform="matrix(9.720312e-03 -1 1 9.720312e-03 30.3248 1215.6731)" class="st7" width="12.16" height="4.97"/>
		
			<rect x="623.36" y="608.87" transform="matrix(9.720312e-03 -1 1 9.720312e-03 11.9954 1234.8242)" class="st7" width="12.16" height="4.97"/>
		
			<rect x="623.36" y="627.48" transform="matrix(9.720312e-03 -1 1 9.720312e-03 -6.6158 1253.2552)" class="st7" width="12.16" height="4.97"/>
		<polygon class="st7" points="623.27,648.5 629.38,642.97 626.04,639.32 619.93,644.85 		"/>
		
			<rect x="605.19" y="640.32" transform="matrix(9.601271e-03 -1 1 9.601271e-03 -44.5846 1247.8602)" class="st7" width="4.94" height="12.24"/>
		
			<rect x="585.78" y="640.32" transform="matrix(9.601271e-03 -1 1 9.601271e-03 -63.8093 1228.4501)" class="st7" width="4.94" height="12.24"/>
		
			<rect x="564.86" y="639.72" transform="matrix(9.601271e-03 -1 1 9.601271e-03 -83.9226 1206.9351)" class="st7" width="4.94" height="12.24"/>
		
			<rect x="546.27" y="639.72" transform="matrix(9.601271e-03 -1 1 9.601271e-03 -102.3377 1188.3423)" class="st7" width="4.94" height="12.24"/>
		
			<rect x="528.53" y="639.72" transform="matrix(9.601271e-03 -1 1 9.601271e-03 -119.908 1170.6025)" class="st7" width="4.94" height="12.24"/>
		<rect x="603.43" y="573.78" class="st7" width="12.24" height="4.94"/>
		<rect x="686.84" y="535.37" class="st7" width="4.97" height="12.16"/>
		<rect x="686.84" y="554.44" class="st7" width="4.97" height="12.16"/>
		<rect x="686.84" y="574.71" class="st7" width="4.97" height="12.16"/>
		<rect x="686.84" y="594.25" class="st7" width="4.97" height="12.16"/>
		<rect x="686.84" y="614.32" class="st7" width="4.97" height="12.16"/>
		<rect x="686.84" y="635.06" class="st7" width="4.97" height="12.16"/>
		<rect x="686.84" y="654.62" class="st7" width="4.97" height="12.16"/>
		<rect x="749.46" y="501.76" class="st7" width="4.97" height="10.79"/>
		<rect x="749.07" y="517.69" class="st7" width="4.97" height="12.16"/>
		<rect x="749.07" y="537.78" class="st7" width="4.97" height="12.16"/>
		<rect x="749.07" y="559.6" class="st7" width="4.97" height="12.16"/>
		<rect x="749.07" y="580.36" class="st7" width="4.97" height="12.16"/>
		<rect x="749.07" y="601.2" class="st7" width="4.97" height="12.16"/>
		<rect x="752.31" y="642.29" class="st7" width="5.73" height="4.94"/>
		<rect x="780.49" y="643.2" class="st7" width="12.24" height="4.94"/>
		
			<rect x="749.82" y="619.55" transform="matrix(1 -3.413147e-03 3.413147e-03 1 -2.131 2.5714)" class="st7" width="4.97" height="12.16"/>
		<rect x="824.39" y="517.69" class="st7" width="4.97" height="12.16"/>
		<rect x="824.39" y="535.37" class="st7" width="4.97" height="12.16"/>
		<rect x="824.39" y="552.29" class="st7" width="4.97" height="12.16"/>
		<rect x="824.39" y="569.17" class="st7" width="4.97" height="12.16"/>
		<rect x="824.39" y="586.45" class="st7" width="4.97" height="12.16"/>
		<rect x="824.39" y="604.14" class="st7" width="4.97" height="12.16"/>
		<rect x="824.39" y="622.24" class="st7" width="4.97" height="12.16"/>
		<rect x="798.63" y="643.2" class="st7" width="12.24" height="4.94"/>
		<polygon class="st7" points="816.6,647.42 826.1,641.31 823.4,637.16 813.9,643.27 		"/>
		<rect x="751.94" y="499.29" class="st7" width="15.76" height="4.94"/>
		<rect x="774.3" y="499.29" class="st7" width="12.24" height="4.94"/>
		<rect x="794.01" y="499.29" class="st7" width="12.24" height="4.94"/>
		<polygon class="st7" points="820,501.07 811.3,499.29 810.3,504.13 819,505.91 		"/>
		
			<rect x="749.82" y="635.58" transform="matrix(1 -3.413059e-03 3.413059e-03 1 -2.1821 2.5714)" class="st7" width="4.97" height="10.08"/>
		<polygon class="st7" points="828.77,511.86 824.29,504.23 820,506.73 824.48,514.35 		"/>
		<rect x="763.18" y="643.2" class="st7" width="14.1" height="4.94"/>
		<rect x="948.54" y="503.28" class="st7" width="6.12" height="4.94"/>
		<rect x="929.64" y="503.44" class="st7" width="12.24" height="4.94"/>
		<rect x="909.5" y="503.44" class="st7" width="12.24" height="4.94"/>
		<rect x="889.2" y="503.44" class="st7" width="12.24" height="4.94"/>
		<rect x="875.77" y="503.92" class="st7" width="8.64" height="4.94"/>
		
			<rect x="872.29" y="518.47" transform="matrix(0.019 -0.9998 0.9998 0.019 340.7995 1389.2467)" class="st7" width="12.16" height="4.97"/>
		<rect x="875.89" y="532.97" class="st7" width="4.97" height="12.16"/>
		<rect x="875.89" y="550.65" class="st7" width="4.97" height="12.16"/>
		<rect x="875.89" y="567.58" class="st7" width="4.97" height="12.16"/>
		<rect x="875.89" y="584.46" class="st7" width="4.97" height="12.16"/>
		<rect x="875.89" y="601.73" class="st7" width="4.97" height="12.16"/>
		<rect x="875.89" y="619.43" class="st7" width="4.97" height="12.16"/>
		<rect x="875.89" y="637.53" class="st7" width="4.97" height="6.12"/>
		<rect x="942.23" y="572.7" class="st7" width="11.83" height="4.94"/>
		<rect x="923.32" y="572.86" class="st7" width="12.24" height="4.94"/>
		<rect x="903.18" y="572.86" class="st7" width="12.24" height="4.94"/>
		<rect x="884.41" y="572.86" class="st7" width="12.24" height="4.94"/>
		<rect x="933.3" y="638.07" class="st7" width="11.83" height="4.94"/>
		<rect x="912.57" y="638.23" class="st7" width="12.24" height="4.94"/>
		<rect x="893.42" y="638.23" class="st7" width="12.24" height="4.94"/>
		<rect x="879.1" y="638.67" class="st7" width="7.58" height="4.94"/>
		<rect x="951.05" y="638.07" class="st7" width="6.45" height="4.94"/>
		
			<rect x="485.29" y="706.25" transform="matrix(0.9998 -0.0219 0.0219 0.9998 -15.3715 10.8956)" class="st7" width="11.04" height="4.94"/>
		
			<rect x="468.2" y="706.27" transform="matrix(0.9998 -0.0219 0.0219 0.9998 -15.3759 10.5352)" class="st7" width="12.24" height="4.94"/>
		<polygon class="st7" points="461.38,706.28 453,707.09 453.48,712 461.86,711.2 		"/>
		
			<rect x="435.01" y="856.91" transform="matrix(0.0449 -0.999 0.999 0.0449 -437.5338 1261.1655)" class="st7" width="11.5" height="4.97"/>
		
			<rect x="437.7" y="871.87" transform="matrix(0.9999 -0.015 0.015 0.9999 -13.0853 6.7163)" class="st7" width="4.97" height="3.69"/>
		<rect x="491.87" y="799.01" class="st7" width="12.24" height="4.94"/>
		<rect x="471.24" y="799.01" class="st7" width="12.24" height="4.94"/>
		<rect x="471.24" y="799.01" class="st7" width="12.24" height="4.94"/>
		<rect x="563.6" y="863.55" class="st7" width="4.97" height="12.16"/>
		<rect x="563.6" y="841.71" class="st7" width="4.97" height="12.16"/>
		<rect x="563.6" y="817.99" class="st7" width="4.97" height="12.16"/>
		<rect x="563.6" y="794.88" class="st7" width="4.97" height="12.16"/>
		<rect x="565.5" y="772.07" class="st7" width="4.97" height="12.16"/>
		<rect x="566.09" y="749.27" class="st7" width="4.97" height="12.16"/>
		<rect x="646.14" y="862.75" class="st7" width="4.97" height="12.16"/>
		<rect x="646.14" y="840.91" class="st7" width="4.97" height="12.16"/>
		<rect x="646.14" y="817.19" class="st7" width="4.97" height="12.16"/>
		<rect x="646.14" y="794.08" class="st7" width="4.97" height="12.16"/>
		<rect x="646.14" y="768" class="st7" width="4.97" height="12.16"/>
		<rect x="646.14" y="743.9" class="st7" width="4.97" height="12.16"/>
		<rect x="646.14" y="719.49" class="st7" width="4.97" height="12.16"/>
		<polygon class="st7" points="580.8,742.58 585.11,753.97 589.76,752.23 585.45,740.84 		"/>
		<polygon class="st7" points="589.39,762.18 594.36,773.3 598.9,771.29 593.93,760.18 		"/>
		<polygon class="st7" points="599.22,782.83 604.18,793.94 608.72,791.94 603.76,780.82 		"/>
		<polygon class="st7" points="608.96,803.49 613.93,814.6 618.47,812.6 613.5,801.48 		"/>
		<polygon class="st7" points="618.33,826.23 623.29,837.35 627.83,835.34 622.87,824.23 		"/>
		<polygon class="st7" points="635.99,861.88 643.28,871.64 647.27,868.7 639.98,858.94 		"/>
		<polygon class="st7" points="626.75,845.85 632.68,856.49 637.02,854.1 631.1,843.46 		"/>
		<rect x="566.09" y="725.62" class="st7" width="4.97" height="12.16"/>
		<rect x="566.09" y="703.1" class="st7" width="4.97" height="12.16"/>
		<rect x="646.14" y="700.49" class="st7" width="4.97" height="12.16"/>
		<polygon class="st7" points="573.13,722.18 577.44,733.56 582.09,731.82 577.78,720.44 		"/>
		<polygon class="st7" points="567.27,700.27 571.58,711.65 576.23,709.91 571.92,698.53 		"/>
		<rect x="793.59" y="700.55" class="st7" width="12.9" height="4.94"/>
		<rect x="771.56" y="700.55" class="st7" width="12.24" height="4.94"/>
		<rect x="748.79" y="700.55" class="st7" width="12.24" height="4.94"/>
		<rect x="725.93" y="700.71" class="st7" width="12.24" height="4.94"/>
		<rect x="703.62" y="700.71" class="st7" width="12.24" height="4.94"/>
		<rect x="681.31" y="700.55" class="st7" width="12.24" height="4.94"/>
		<polygon class="st7" points="800.11,703.76 793,714.46 797.14,717.18 804.26,706.48 		"/>
		<polygon class="st7" points="788.09,720.29 780.98,730.99 785.12,733.71 792.24,723.01 		"/>
		<polygon class="st7" points="775.03,739.23 767.92,749.93 772.06,752.66 779.17,741.96 		"/>
		<polygon class="st7" points="762.51,760.03 755.39,770.73 759.54,773.45 766.65,762.75 		"/>
		<polygon class="st7" points="748.16,780.67 741.05,791.37 745.2,794.1 752.31,783.39 		"/>
		<polygon class="st7" points="733.54,801.33 726.42,812.03 730.57,814.75 737.68,804.05 		"/>
		<polygon class="st7" points="719.77,822.64 712.66,833.34 716.8,836.07 723.91,825.37 		"/>
		<rect x="841.02" y="853.94" class="st7" width="12.9" height="4.94"/>
		<rect x="818.27" y="854.1" class="st7" width="12.24" height="4.94"/>
		<rect x="796.55" y="854.1" class="st7" width="12.24" height="4.94"/>
		<rect x="773.7" y="854.1" class="st7" width="12.24" height="4.94"/>
		<rect x="751.39" y="854.02" class="st7" width="12.24" height="4.94"/>
		<rect x="729.08" y="854.1" class="st7" width="12.24" height="4.94"/>
		<polygon class="st7" points="707.41,840.44 701.01,850.8 705.24,853.38 711.64,843.02 		"/>
		<rect x="706.54" y="854.1" class="st7" width="12.24" height="4.94"/>
		
			<rect x="435.98" y="837.44" transform="matrix(0.0449 -0.999 0.999 0.0449 -417.1631 1243.5377)" class="st7" width="11.5" height="4.97"/>
		
			<rect x="437.02" y="817.68" transform="matrix(0.0449 -0.999 0.999 0.0449 -396.4308 1225.6949)" class="st7" width="11.5" height="4.97"/>
		
			<rect x="438.72" y="796.9" transform="matrix(0.0449 -0.999 0.999 0.0449 -374.048 1207.5535)" class="st7" width="11.5" height="4.97"/>
		
			<rect x="439.76" y="777.42" transform="matrix(0.0449 -0.999 0.999 0.0449 -353.5994 1189.9819)" class="st7" width="11.5" height="4.97"/>
		
			<rect x="441.46" y="757.4" transform="matrix(0.0449 -0.999 0.999 0.0449 -331.9645 1172.5554)" class="st7" width="11.5" height="4.97"/>
		
			<rect x="442.49" y="736.73" transform="matrix(0.0449 -0.999 0.999 0.0449 -310.3295 1153.8496)" class="st7" width="11.5" height="4.97"/>
		<polygon class="st7" points="448.06,715.07 446.9,726.51 451.84,727.01 453,715.57 		"/>
		
			<rect x="513.86" y="861.07" transform="matrix(0.999 -0.0448 0.0448 0.999 -38.346 24.023)" class="st7" width="4.97" height="11.5"/>
		
			<rect x="512.89" y="841.6" transform="matrix(0.999 -0.0448 0.0448 0.999 -37.4741 23.96)" class="st7" width="4.97" height="11.5"/>
		
			<rect x="511.86" y="821.83" transform="matrix(0.999 -0.0448 0.0448 0.999 -36.589 23.8938)" class="st7" width="4.97" height="11.5"/>
		
			<rect x="510.16" y="801.06" transform="matrix(0.999 -0.0448 0.0448 0.999 -35.6592 23.7965)" class="st7" width="4.97" height="11.5"/>
		
			<rect x="509.12" y="781.58" transform="matrix(0.999 -0.0448 0.0448 0.999 -34.7868 23.7305)" class="st7" width="4.97" height="11.5"/>
		
			<rect x="507.42" y="761.55" transform="matrix(0.999 -0.0448 0.0448 0.999 -33.8906 23.634)" class="st7" width="4.97" height="11.5"/>
		
			<rect x="506.38" y="740.89" transform="matrix(0.999 -0.0448 0.0448 0.999 -32.965 23.5668)" class="st7" width="4.97" height="11.5"/>
		<polygon class="st7" points="509.05,722.49 510.21,733.93 505.27,734.43 504.11,722.99 		"/>
		<rect x="452.36" y="799.01" class="st7" width="12.24" height="4.94"/>
		<polygon class="st7" points="506.64,709.14 508,718.63 503.08,718.95 501.72,709.47 		"/>
	</g>
</g>
<g id="Layer_6">
	<g>
		<path class="st3" d="M448.18,1734h17.92l28.33,74.23h-23.52l-2.46-6.68h-22.62l-2.46,6.68h-23.52L448.18,1734z M462.17,1785.19
			l-5.04-13.02l-5.04,13.02H462.17z"/>
		<path class="st3" d="M554.22,1762.26c0,5.12-0.9,9.48-2.69,13.08c-1.79,3.6-4.24,6.51-7.33,8.74c-3.1,2.23-6.72,3.86-10.86,4.9
			c-4.14,1.04-8.61,1.56-13.38,1.56v17.7H496.1V1734h23.85c4.78,0,9.24,0.52,13.38,1.56c4.14,1.04,7.76,2.67,10.86,4.9
			c3.1,2.23,5.54,5.14,7.33,8.74C553.33,1752.79,554.22,1757.15,554.22,1762.26z M519.96,1770.5h1.01c3.14,0,5.39-0.72,6.77-2.17
			c1.38-1.45,2.07-3.47,2.07-6.07c0-2.6-0.69-4.62-2.07-6.07c-1.38-1.45-3.64-2.17-6.77-2.17h-1.01V1770.5z"/>
		<path class="st3" d="M559.82,1734h25.75c4.78,0,9.2,0.63,13.27,1.89c4.07,1.26,7.6,3.12,10.58,5.56c2.99,2.45,5.32,5.47,7,9.07
			c1.68,3.6,2.52,7.73,2.52,12.41c0,3.71-0.52,6.86-1.57,9.46c-1.05,2.6-2.2,4.75-3.47,6.46c-1.49,1.93-3.17,3.56-5.04,4.9l14,24.48
			h-27.99l-11.2-18.81v18.81h-23.85V1734z M583.67,1770.5h1.23c2.84,0,5.24-0.63,7.22-1.89c1.98-1.26,2.97-3.38,2.97-6.34
			c0-2.97-0.99-5.08-2.97-6.34c-1.98-1.26-4.39-1.89-7.22-1.89h-1.23V1770.5z"/>
		<path class="st3" d="M625.1,1734h25.31v74.23H625.1V1734z"/>
		<path class="st3" d="M658.24,1734h24.86v54.75h20.6v19.48h-45.46V1734z"/>
		<path class="st3" d="M742.11,1772.61c1.57-2.97,2.58-5.19,3.02-6.68c0.45-1.48,0.67-2.89,0.67-4.23c0-2.37-0.78-4.21-2.35-5.51
			c-1.57-1.3-3.85-1.95-6.83-1.95c-0.6,0-1.16,0.02-1.68,0.06c-0.52,0.04-1.01,0.09-1.46,0.17c-0.52,0.07-1.01,0.11-1.46,0.11V1734
			c1.04-0.22,1.98-0.41,2.8-0.56c0.82-0.15,1.62-0.26,2.41-0.33c0.78-0.07,1.6-0.13,2.46-0.17c0.86-0.04,1.85-0.06,2.97-0.06
			c3.58,0,7.11,0.39,10.58,1.17c3.47,0.78,6.59,2.06,9.35,3.84c2.76,1.78,5,4.16,6.72,7.12c1.72,2.97,2.58,6.6,2.58,10.91
			c0,2-0.22,3.99-0.67,5.95c-0.45,1.97-1.14,4.1-2.07,6.4c-0.93,2.3-2.13,4.88-3.58,7.73c-1.46,2.86-3.16,6.18-5.1,9.96l-1.46,2.78
			h14.11l-6.38,19.48H723.3L742.11,1772.61z"/>
		<path class="st3" d="M788.03,1772.61c1.57-2.97,2.58-5.19,3.02-6.68c0.45-1.48,0.67-2.89,0.67-4.23c0-2.37-0.78-4.21-2.35-5.51
			c-1.57-1.3-3.85-1.95-6.83-1.95c-0.6,0-1.16,0.02-1.68,0.06c-0.52,0.04-1.01,0.09-1.46,0.17c-0.52,0.07-1.01,0.11-1.46,0.11V1734
			c1.04-0.22,1.98-0.41,2.8-0.56c0.82-0.15,1.62-0.26,2.41-0.33c0.78-0.07,1.6-0.13,2.46-0.17c0.86-0.04,1.85-0.06,2.97-0.06
			c3.58,0,7.11,0.39,10.58,1.17c3.47,0.78,6.59,2.06,9.35,3.84c2.76,1.78,5,4.16,6.72,7.12c1.72,2.97,2.58,6.6,2.58,10.91
			c0,2-0.22,3.99-0.67,5.95c-0.45,1.97-1.14,4.1-2.07,6.4c-0.93,2.3-2.13,4.88-3.58,7.73c-1.46,2.86-3.16,6.18-5.1,9.96l-1.46,2.78
			h14.11l-6.38,19.48h-43.45L788.03,1772.61z"/>
		<path class="st3" d="M827.67,1789.64h21.28l-9.74,30.05h-19.04L827.67,1789.64z"/>
		<path class="st3" d="M889.25,1772.61c1.57-2.97,2.58-5.19,3.02-6.68c0.45-1.48,0.67-2.89,0.67-4.23c0-2.37-0.78-4.21-2.35-5.51
			c-1.57-1.3-3.85-1.95-6.83-1.95c-0.6,0-1.16,0.02-1.68,0.06c-0.52,0.04-1.01,0.09-1.46,0.17c-0.52,0.07-1.01,0.11-1.46,0.11V1734
			c1.04-0.22,1.98-0.41,2.8-0.56c0.82-0.15,1.62-0.26,2.41-0.33c0.78-0.07,1.6-0.13,2.46-0.17c0.86-0.04,1.85-0.06,2.97-0.06
			c3.58,0,7.11,0.39,10.58,1.17c3.47,0.78,6.59,2.06,9.35,3.84c2.76,1.78,5,4.16,6.72,7.12c1.72,2.97,2.58,6.6,2.58,10.91
			c0,2-0.22,3.99-0.67,5.95c-0.45,1.97-1.14,4.1-2.07,6.4c-0.93,2.3-2.13,4.88-3.58,7.73c-1.46,2.86-3.16,6.18-5.1,9.96l-1.46,2.78
			h14.11l-6.38,19.48h-43.45L889.25,1772.61z"/>
		<path class="st3" d="M982.19,1771.17c0,12.61-2.65,22.26-7.95,28.94c-5.3,6.68-12.69,10.02-22.17,10.02
			c-9.48,0-16.87-3.34-22.17-10.02c-5.3-6.68-7.95-16.32-7.95-28.94c0-12.61,2.65-22.26,7.95-28.94
			c5.3-6.68,12.69-10.02,22.17-10.02c9.48,0,16.87,3.34,22.17,10.02C979.54,1748.91,982.19,1758.56,982.19,1771.17z M959.24,1771.17
			c0-11.65-2.39-17.47-7.17-17.47c-4.78,0-7.17,5.83-7.17,17.47c0,11.65,2.39,17.47,7.17,17.47
			C956.85,1788.64,959.24,1782.82,959.24,1771.17z"/>
		<path class="st3" d="M994.85,1772.61c1.57-2.97,2.58-5.19,3.02-6.68c0.45-1.48,0.67-2.89,0.67-4.23c0-2.37-0.78-4.21-2.35-5.51
			c-1.57-1.3-3.85-1.95-6.83-1.95c-0.6,0-1.16,0.02-1.68,0.06c-0.52,0.04-1.01,0.09-1.46,0.17c-0.52,0.07-1.01,0.11-1.46,0.11V1734
			c1.04-0.22,1.98-0.41,2.8-0.56c0.82-0.15,1.62-0.26,2.41-0.33c0.78-0.07,1.6-0.13,2.46-0.17c0.86-0.04,1.85-0.06,2.97-0.06
			c3.58,0,7.11,0.39,10.58,1.17c3.47,0.78,6.59,2.06,9.35,3.84c2.76,1.78,5,4.16,6.72,7.12c1.72,2.97,2.58,6.6,2.58,10.91
			c0,2-0.22,3.99-0.67,5.95c-0.45,1.97-1.14,4.1-2.07,6.4c-0.93,2.3-2.13,4.88-3.58,7.73c-1.46,2.86-3.16,6.18-5.1,9.96l-1.46,2.78
			h14.11l-6.38,19.48h-43.45L994.85,1772.61z"/>
		<path class="st3" d="M1028.1,1788.31c0.82,0.15,1.59,0.22,2.3,0.22c0.71,0,1.4,0,2.07,0c2.39,0,4.38-0.24,5.99-0.72
			c1.6-0.48,2.87-1.13,3.81-1.95c0.93-0.82,1.6-1.73,2.02-2.73c0.41-1,0.62-2.06,0.62-3.17c0-1.56-0.52-3.04-1.57-4.45
			c-1.05-1.41-2.35-2.69-3.92-3.84c-1.57-1.15-3.25-2.21-5.04-3.17c-1.79-0.96-3.4-1.78-4.82-2.45c1.27-0.82,2.54-1.67,3.81-2.56
			c1.27-0.89,2.41-1.8,3.42-2.73c1.01-0.93,1.81-1.84,2.41-2.73c0.6-0.89,0.9-1.74,0.9-2.56c0-1.33-0.5-2.24-1.51-2.73
			c-1.01-0.48-2.11-0.72-3.3-0.72c-0.97,0-1.89,0.06-2.74,0.17c-0.86,0.11-1.62,0.24-2.3,0.39c-0.82,0.22-1.53,0.41-2.13,0.56v-18.7
			c1.04-0.22,2.28-0.44,3.7-0.67c1.27-0.15,2.86-0.3,4.76-0.45c1.9-0.15,4.16-0.22,6.77-0.22c7.32,0,12.71,1.65,16.18,4.95
			c3.47,3.3,5.21,7.62,5.21,12.97c0,1.86-0.3,3.54-0.9,5.06c-0.6,1.52-1.27,2.84-2.02,3.95c-0.82,1.33-1.75,2.56-2.8,3.67
			c1.87,1.49,3.54,3.19,5.04,5.12c1.27,1.71,2.42,3.75,3.47,6.12c1.04,2.38,1.57,5.05,1.57,8.01c0,4.6-0.95,8.55-2.86,11.85
			c-1.9,3.3-4.46,6.01-7.67,8.12c-3.21,2.11-6.92,3.67-11.14,4.67c-4.22,1-8.6,1.5-13.16,1.5c-0.75,0-1.62,0-2.63,0
			s-2.18-0.04-3.53-0.11V1788.31z"/>
		<path class="st3" d="M600.63,1852.72h18.64v41.07h15.45v14.61h-34.1V1852.72z"/>
		<path class="st3" d="M654.3,1852.72h13.44l21.25,55.67h-17.64l-1.85-5.01h-16.96l-1.85,5.01h-17.64L654.3,1852.72z M664.8,1891.11
			l-3.78-9.77l-3.78,9.77H664.8z"/>
		<path class="st3" d="M704.1,1895.03h6.13c1.79,0,2.99-0.33,3.61-1c0.62-0.67,0.92-1.61,0.92-2.84v-38.48h18.48v41.57
			c0,5.18-1.19,8.82-3.57,10.93c-2.38,2.12-6.17,3.17-11.38,3.17H704.1V1895.03z"/>
		<path class="st3" d="M737.61,1880.59c0-4.01,0.77-7.79,2.31-11.35c1.54-3.56,3.64-6.66,6.3-9.31c2.66-2.64,5.78-4.73,9.36-6.26
			c3.58-1.53,7.39-2.3,11.42-2.3s7.84,0.77,11.42,2.3c3.58,1.53,6.7,3.62,9.36,6.26c2.66,2.64,4.76,5.75,6.3,9.31
			c1.54,3.56,2.31,7.34,2.31,11.35s-0.77,7.79-2.31,11.35c-1.54,3.56-3.64,6.67-6.3,9.31c-2.66,2.64-5.78,4.73-9.36,6.26
			c-3.58,1.53-7.39,2.29-11.42,2.29s-7.84-0.77-11.42-2.29c-3.58-1.53-6.71-3.62-9.36-6.26c-2.66-2.64-4.76-5.75-6.3-9.31
			C738.38,1888.38,737.61,1884.6,737.61,1880.59z M755.24,1880.59c0,1.61,0.31,3.13,0.92,4.55c0.62,1.42,1.46,2.66,2.52,3.71
			c1.06,1.06,2.31,1.89,3.74,2.5c1.43,0.61,2.95,0.92,4.58,0.92c1.62,0,3.15-0.3,4.58-0.92c1.43-0.61,2.67-1.45,3.74-2.5
			c1.06-1.06,1.9-2.3,2.52-3.71c0.62-1.42,0.92-2.93,0.92-4.55c0-1.61-0.31-3.13-0.92-4.55c-0.62-1.42-1.46-2.66-2.52-3.71
			c-1.06-1.06-2.31-1.89-3.74-2.5c-1.43-0.61-2.95-0.92-4.58-0.92c-1.62,0-3.15,0.31-4.58,0.92c-1.43,0.61-2.67,1.45-3.74,2.5
			c-1.06,1.06-1.9,2.3-2.52,3.71C755.55,1877.46,755.24,1878.98,755.24,1880.59z"/>
		<path class="st3" d="M801.02,1852.72h18.64v41.07h15.45v14.61h-34.1V1852.72z"/>
		<path class="st3" d="M838.05,1852.72h18.64v41.07h15.45v14.61h-34.1V1852.72z"/>
		<path class="st3" d="M891.72,1852.72h13.44l21.25,55.67h-17.64l-1.85-5.01h-16.96l-1.85,5.01h-17.64L891.72,1852.72z
			 M902.22,1891.11l-3.78-9.77l-3.78,9.77H902.22z"/>
		<path class="st3" d="M930.35,1894.45h15.96l-7.31,22.54h-14.28L930.35,1894.45z"/>
		<path class="st3" d="M966.21,1880.59c0-4.45,0.78-8.47,2.35-12.06c1.57-3.59,3.7-6.66,6.38-9.22c2.69-2.56,5.82-4.52,9.41-5.88
			c3.58-1.36,7.39-2.04,11.42-2.04c3.19,0,6.03,0.31,8.52,0.92c2.49,0.61,4.63,1.31,6.42,2.09c2.07,0.89,3.86,1.87,5.38,2.92
			l-8.82,15.44c-0.9-0.67-1.88-1.31-2.94-1.92c-0.95-0.44-2.09-0.88-3.4-1.29c-1.32-0.42-2.81-0.63-4.49-0.63
			c-1.74,0-3.33,0.31-4.79,0.92c-1.46,0.61-2.73,1.45-3.82,2.5c-1.09,1.06-1.95,2.3-2.56,3.71c-0.62,1.42-0.92,2.94-0.92,4.55
			c0,1.61,0.32,3.13,0.97,4.55c0.64,1.42,1.52,2.66,2.65,3.71c1.12,1.06,2.44,1.89,3.95,2.5c1.51,0.61,3.16,0.92,4.96,0.92
			c1.79,0,3.39-0.22,4.79-0.67c1.4-0.44,2.57-0.95,3.53-1.5c1.12-0.61,2.1-1.34,2.94-2.17l8.82,15.44c-1.51,1.22-3.3,2.31-5.38,3.25
			c-1.79,0.78-3.95,1.5-6.47,2.17c-2.52,0.67-5.4,1-8.65,1c-4.37,0-8.4-0.71-12.09-2.13c-3.7-1.42-6.89-3.41-9.57-5.97
			c-2.69-2.56-4.79-5.63-6.3-9.22C966.96,1888.9,966.21,1884.93,966.21,1880.59z"/>
		<path class="st3" d="M1037.76,1852.72h13.44l21.25,55.67h-17.64l-1.85-5.01H1036l-1.85,5.01h-17.64L1037.76,1852.72z
			 M1048.26,1891.11l-3.78-9.77l-3.78,9.77H1048.26z"/>
		<path class="st4" d="M565.19,1936.03h6.79l6.71,9.82l6.68-9.82h6.79v25.58h-8.22v-9.21l-5.25,7.67l-5.29-7.67v9.21h-8.22V1936.03z
			"/>
		<path class="st4" d="M594.29,1948.84c0-1.84,0.35-3.58,1.06-5.22c0.71-1.64,1.67-3.06,2.89-4.28c1.22-1.21,2.66-2.17,4.3-2.88
			c1.65-0.7,3.4-1.05,5.25-1.05c1.85,0,3.6,0.35,5.25,1.05c1.65,0.7,3.08,1.66,4.3,2.88c1.22,1.21,2.19,2.64,2.89,4.28
			c0.71,1.64,1.06,3.38,1.06,5.22c0,1.84-0.35,3.58-1.06,5.22c-0.71,1.64-1.67,3.06-2.89,4.28c-1.22,1.21-2.66,2.17-4.3,2.88
			c-1.65,0.7-3.4,1.05-5.25,1.05c-1.85,0-3.6-0.35-5.25-1.05c-1.65-0.7-3.08-1.66-4.3-2.88c-1.22-1.21-2.19-2.64-2.89-4.28
			C594.64,1952.42,594.29,1950.68,594.29,1948.84z M602.39,1948.84c0,0.74,0.14,1.44,0.42,2.09c0.28,0.65,0.67,1.22,1.16,1.71
			c0.49,0.49,1.06,0.87,1.72,1.15s1.36,0.42,2.1,0.42s1.45-0.14,2.1-0.42s1.23-0.67,1.72-1.15c0.49-0.49,0.87-1.05,1.16-1.71
			s0.42-1.35,0.42-2.09c0-0.74-0.14-1.44-0.42-2.09s-0.67-1.22-1.16-1.71c-0.49-0.49-1.06-0.87-1.72-1.15s-1.36-0.42-2.1-0.42
			s-1.45,0.14-2.1,0.42s-1.23,0.67-1.72,1.15c-0.49,0.49-0.88,1.05-1.16,1.71C602.53,1947.4,602.39,1948.1,602.39,1948.84z"/>
		<path class="st4" d="M623.42,1936.03h8.88c1.65,0,3.17,0.22,4.57,0.65c1.4,0.44,2.62,1.07,3.65,1.92s1.83,1.89,2.41,3.13
			s0.87,2.67,0.87,4.28c0,1.28-0.18,2.37-0.54,3.26c-0.36,0.89-0.76,1.64-1.2,2.22c-0.51,0.67-1.09,1.23-1.74,1.69l4.82,8.44h-9.65
			l-3.86-6.48v6.48h-8.22V1936.03z M631.64,1948.61h0.42c0.98,0,1.81-0.22,2.49-0.65c0.68-0.43,1.02-1.16,1.02-2.19
			s-0.34-1.75-1.02-2.19s-1.51-0.65-2.49-0.65h-0.42V1948.61z"/>
		<path class="st4" d="M645.92,1936.03h15.17v6.71h-6.95v2.84h6.83v6.37h-6.83v2.95h7.22v6.71h-15.44V1936.03z"/>
		<path class="st4" d="M671.39,1961.61v-25.58h7.14c2.42,0,4.57,0.27,6.46,0.8c1.89,0.54,3.49,1.34,4.79,2.42s2.29,2.41,2.97,4.01
			c0.68,1.6,1.02,3.45,1.02,5.54c0,2.1-0.34,3.94-1.02,5.54c-0.68,1.6-1.67,2.93-2.97,4.01c-1.3,1.07-2.89,1.89-4.79,2.44
			s-4.05,0.82-6.46,0.82H671.39z M679.61,1954.33c1.93,0,3.42-0.45,4.48-1.36c1.05-0.91,1.58-2.29,1.58-4.16
			c0-1.87-0.53-3.25-1.58-4.14c-1.05-0.9-2.55-1.34-4.48-1.34V1954.33z"/>
		<path class="st4" d="M695.9,1936.03h15.17v6.71h-6.95v2.84h6.83v6.37h-6.83v2.95h7.22v6.71H695.9V1936.03z"/>
		<path class="st4" d="M717.04,1942.74h-4.75v-6.71h17.98v6.71h-4.75v18.87h-8.49V1942.74z"/>
		<path class="st4" d="M739.27,1936.03h6.17l9.76,25.58h-8.1l-0.85-2.3h-7.79l-0.85,2.3h-8.1L739.27,1936.03z M744.1,1953.67
			l-1.74-4.49l-1.74,4.49H744.1z"/>
		<path class="st4" d="M755.79,1936.03h8.72v25.58h-8.72V1936.03z"/>
		<path class="st4" d="M767.21,1936.03h8.57v18.87h7.1v6.71h-15.67V1936.03z"/>
		<path class="st4" d="M783.54,1953.67c0.57,0.18,1.16,0.32,1.78,0.42c0.51,0.13,1.1,0.23,1.76,0.31c0.66,0.08,1.32,0.12,1.99,0.12
			c1.18,0,1.78-0.43,1.78-1.3c0-0.33-0.18-0.67-0.54-1.02c-0.36-0.34-0.82-0.73-1.37-1.15c-0.55-0.42-1.14-0.89-1.77-1.4
			c-0.63-0.51-1.22-1.1-1.78-1.76c-0.55-0.67-1.01-1.41-1.37-2.24c-0.36-0.83-0.54-1.78-0.54-2.86c0-1.2,0.22-2.26,0.66-3.18
			c0.44-0.92,1.04-1.69,1.81-2.3c0.77-0.61,1.68-1.08,2.72-1.4c1.04-0.32,2.15-0.48,3.34-0.48c0.62,0,1.24,0.03,1.85,0.1
			c0.62,0.06,1.17,0.12,1.66,0.17c0.57,0.08,1.12,0.15,1.66,0.23v7.17c-0.21-0.02-0.44-0.05-0.69-0.08
			c-0.21-0.03-0.44-0.05-0.69-0.08c-0.26-0.03-0.53-0.04-0.81-0.04c-0.15,0-0.35,0.01-0.58,0.02s-0.45,0.04-0.66,0.1
			c-0.21,0.05-0.39,0.14-0.54,0.27s-0.23,0.31-0.23,0.54c0,0.2,0.17,0.46,0.52,0.77c0.35,0.31,0.77,0.67,1.27,1.07
			c0.5,0.41,1.05,0.88,1.66,1.42s1.16,1.15,1.66,1.84s0.93,1.47,1.27,2.34c0.35,0.87,0.52,1.84,0.52,2.92
			c0,1.12-0.18,2.18-0.54,3.16s-0.92,1.84-1.68,2.57s-1.73,1.3-2.91,1.73c-1.18,0.42-2.59,0.63-4.21,0.63
			c-0.98,0-1.88-0.04-2.72-0.13s-1.58-0.2-2.22-0.33c-0.75-0.13-1.43-0.28-2.04-0.46V1953.67z"/>
		<path class="st4" d="M808.73,1948.84c0-2.05,0.36-3.89,1.08-5.54c0.72-1.65,1.7-3.06,2.93-4.24c1.24-1.18,2.68-2.08,4.32-2.7
			c1.65-0.63,3.4-0.94,5.25-0.94c1.47,0,2.77,0.14,3.92,0.42c1.14,0.28,2.13,0.6,2.95,0.96c0.95,0.41,1.77,0.86,2.47,1.34l-4.05,7.1
			c-0.41-0.31-0.86-0.6-1.35-0.88c-0.44-0.2-0.96-0.4-1.56-0.59c-0.6-0.19-1.29-0.29-2.06-0.29c-0.8,0-1.53,0.14-2.2,0.42
			s-1.25,0.67-1.76,1.15c-0.5,0.49-0.89,1.05-1.18,1.71c-0.28,0.65-0.42,1.35-0.42,2.09c0,0.74,0.15,1.44,0.44,2.09
			c0.29,0.65,0.7,1.22,1.21,1.71s1.12,0.87,1.81,1.15c0.69,0.28,1.45,0.42,2.28,0.42s1.56-0.1,2.2-0.31
			c0.64-0.2,1.18-0.43,1.62-0.69c0.51-0.28,0.96-0.61,1.35-1l4.05,7.1c-0.69,0.56-1.52,1.06-2.47,1.5c-0.82,0.36-1.81,0.69-2.97,1
			c-1.16,0.31-2.48,0.46-3.97,0.46c-2.01,0-3.86-0.33-5.56-0.98s-3.16-1.57-4.4-2.74c-1.23-1.18-2.2-2.59-2.89-4.24
			C809.08,1952.66,808.73,1950.84,808.73,1948.84z"/>
		<path class="st4" d="M832.43,1948.84c0-1.84,0.35-3.58,1.06-5.22c0.71-1.64,1.67-3.06,2.89-4.28c1.22-1.21,2.66-2.17,4.3-2.88
			c1.65-0.7,3.4-1.05,5.25-1.05c1.85,0,3.6,0.35,5.25,1.05c1.65,0.7,3.08,1.66,4.3,2.88c1.22,1.21,2.19,2.64,2.89,4.28
			c0.71,1.64,1.06,3.38,1.06,5.22c0,1.84-0.35,3.58-1.06,5.22c-0.71,1.64-1.67,3.06-2.89,4.28c-1.22,1.21-2.66,2.17-4.3,2.88
			c-1.65,0.7-3.4,1.05-5.25,1.05c-1.85,0-3.6-0.35-5.25-1.05c-1.65-0.7-3.08-1.66-4.3-2.88c-1.22-1.21-2.19-2.64-2.89-4.28
			C832.78,1952.42,832.43,1950.68,832.43,1948.84z M840.53,1948.84c0,0.74,0.14,1.44,0.42,2.09c0.28,0.65,0.67,1.22,1.16,1.71
			c0.49,0.49,1.06,0.87,1.72,1.15s1.36,0.42,2.1,0.42s1.45-0.14,2.1-0.42s1.23-0.67,1.72-1.15c0.49-0.49,0.87-1.05,1.16-1.71
			s0.42-1.35,0.42-2.09c0-0.74-0.14-1.44-0.42-2.09s-0.67-1.22-1.16-1.71c-0.49-0.49-1.06-0.87-1.72-1.15s-1.36-0.42-2.1-0.42
			s-1.45,0.14-2.1,0.42s-1.23,0.67-1.72,1.15c-0.49,0.49-0.88,1.05-1.16,1.71C840.68,1947.4,840.53,1948.1,840.53,1948.84z"/>
		<path class="st4" d="M861.57,1936.03h6.79l6.71,9.82l6.68-9.82h6.79v25.58h-8.22v-9.21l-5.25,7.67l-5.29-7.67v9.21h-8.22V1936.03z
			"/>
		<path class="st4" d="M891.24,1936.03h8.72v25.58h-8.72V1936.03z"/>
		<path class="st4" d="M902.67,1936.03h6.75l7.1,9.86v-9.86h8.07v25.58h-6.79l-7.06-9.82v9.82h-8.07V1936.03z"/>
		<path class="st4" d="M943.69,1944.74c-0.46-0.41-1.04-0.72-1.74-0.94c-0.7-0.22-1.38-0.33-2.05-0.33c-0.75,0-1.43,0.13-2.04,0.4
			s-1.15,0.64-1.6,1.11c-0.45,0.47-0.8,1.04-1.06,1.71c-0.26,0.67-0.39,1.38-0.39,2.15c0,0.77,0.14,1.48,0.42,2.15
			c0.28,0.67,0.67,1.23,1.16,1.71c0.49,0.47,1.06,0.84,1.72,1.11s1.36,0.4,2.1,0.4c0.88,0,1.67-0.19,2.39-0.56
			c0.72-0.37,1.34-0.88,1.85-1.51h-2.32v-5.37h9.92v8.51c-0.59,1.05-1.3,2-2.12,2.86c-0.82,0.86-1.74,1.59-2.76,2.21
			s-2.12,1.09-3.3,1.42c-1.18,0.33-2.41,0.5-3.67,0.5c-1.85,0-3.6-0.35-5.25-1.04s-3.08-1.64-4.3-2.84
			c-1.22-1.2-2.19-2.62-2.89-4.26c-0.71-1.64-1.06-3.4-1.06-5.29c0-1.84,0.33-3.58,1-5.22c0.67-1.64,1.59-3.06,2.76-4.28
			c1.17-1.21,2.56-2.17,4.17-2.88c1.61-0.7,3.34-1.05,5.19-1.05c1.44,0,2.69,0.14,3.74,0.42c1.05,0.28,1.94,0.6,2.66,0.96
			c0.85,0.41,1.56,0.86,2.12,1.34L943.69,1944.74z"/>
		<path class="st4" d="M961.21,1953.67c0.57,0.18,1.16,0.32,1.78,0.42c0.51,0.13,1.1,0.23,1.76,0.31c0.66,0.08,1.32,0.12,1.99,0.12
			c1.18,0,1.78-0.43,1.78-1.3c0-0.33-0.18-0.67-0.54-1.02c-0.36-0.34-0.82-0.73-1.37-1.15c-0.55-0.42-1.14-0.89-1.77-1.4
			c-0.63-0.51-1.22-1.1-1.78-1.76c-0.55-0.67-1.01-1.41-1.37-2.24c-0.36-0.83-0.54-1.78-0.54-2.86c0-1.2,0.22-2.26,0.66-3.18
			c0.44-0.92,1.04-1.69,1.81-2.3c0.77-0.61,1.68-1.08,2.72-1.4c1.04-0.32,2.15-0.48,3.34-0.48c0.62,0,1.24,0.03,1.85,0.1
			c0.62,0.06,1.17,0.12,1.66,0.17c0.57,0.08,1.12,0.15,1.66,0.23v7.17c-0.21-0.02-0.44-0.05-0.69-0.08
			c-0.21-0.03-0.44-0.05-0.69-0.08c-0.26-0.03-0.53-0.04-0.81-0.04c-0.15,0-0.35,0.01-0.58,0.02s-0.45,0.04-0.66,0.1
			c-0.21,0.05-0.39,0.14-0.54,0.27s-0.23,0.31-0.23,0.54c0,0.2,0.17,0.46,0.52,0.77c0.35,0.31,0.77,0.67,1.27,1.07
			c0.5,0.41,1.05,0.88,1.66,1.42s1.16,1.15,1.66,1.84s0.93,1.47,1.27,2.34c0.35,0.87,0.52,1.84,0.52,2.92
			c0,1.12-0.18,2.18-0.54,3.16s-0.92,1.84-1.68,2.57s-1.73,1.3-2.91,1.73c-1.18,0.42-2.59,0.63-4.21,0.63
			c-0.98,0-1.88-0.04-2.72-0.13s-1.58-0.2-2.22-0.33c-0.75-0.13-1.43-0.28-2.04-0.46V1953.67z"/>
		<path class="st4" d="M978.69,1948.84c0-1.84,0.35-3.58,1.06-5.22c0.71-1.64,1.67-3.06,2.89-4.28c1.22-1.21,2.66-2.17,4.3-2.88
			c1.65-0.7,3.4-1.05,5.25-1.05c1.85,0,3.6,0.35,5.25,1.05c1.65,0.7,3.08,1.66,4.3,2.88c1.22,1.21,2.19,2.64,2.89,4.28
			c0.71,1.64,1.06,3.38,1.06,5.22c0,1.84-0.35,3.58-1.06,5.22c-0.71,1.64-1.67,3.06-2.89,4.28c-1.22,1.21-2.66,2.17-4.3,2.88
			c-1.65,0.7-3.4,1.05-5.25,1.05c-1.85,0-3.6-0.35-5.25-1.05c-1.65-0.7-3.08-1.66-4.3-2.88c-1.22-1.21-2.19-2.64-2.89-4.28
			C979.04,1952.42,978.69,1950.68,978.69,1948.84z M986.79,1948.84c0,0.74,0.14,1.44,0.42,2.09c0.28,0.65,0.67,1.22,1.16,1.71
			c0.49,0.49,1.06,0.87,1.72,1.15s1.36,0.42,2.1,0.42s1.45-0.14,2.1-0.42s1.23-0.67,1.72-1.15c0.49-0.49,0.87-1.05,1.16-1.71
			s0.42-1.35,0.42-2.09c0-0.74-0.14-1.44-0.42-2.09s-0.67-1.22-1.16-1.71c-0.49-0.49-1.06-0.87-1.72-1.15s-1.36-0.42-2.1-0.42
			s-1.45,0.14-2.1,0.42s-1.23,0.67-1.72,1.15c-0.49,0.49-0.88,1.05-1.16,1.71C986.94,1947.4,986.79,1948.1,986.79,1948.84z"/>
		<path class="st4" d="M1007.25,1948.84c0-1.84,0.35-3.58,1.06-5.22c0.71-1.64,1.67-3.06,2.89-4.28c1.22-1.21,2.66-2.17,4.3-2.88
			c1.65-0.7,3.4-1.05,5.25-1.05c1.85,0,3.6,0.35,5.25,1.05c1.65,0.7,3.08,1.66,4.3,2.88c1.22,1.21,2.19,2.64,2.89,4.28
			c0.71,1.64,1.06,3.38,1.06,5.22c0,1.84-0.35,3.58-1.06,5.22c-0.71,1.64-1.67,3.06-2.89,4.28c-1.22,1.21-2.66,2.17-4.3,2.88
			c-1.65,0.7-3.4,1.05-5.25,1.05c-1.85,0-3.6-0.35-5.25-1.05c-1.65-0.7-3.08-1.66-4.3-2.88c-1.22-1.21-2.19-2.64-2.89-4.28
			C1007.6,1952.42,1007.25,1950.68,1007.25,1948.84z M1015.35,1948.84c0,0.74,0.14,1.44,0.42,2.09c0.28,0.65,0.67,1.22,1.16,1.71
			c0.49,0.49,1.06,0.87,1.72,1.15s1.36,0.42,2.1,0.42s1.45-0.14,2.1-0.42s1.23-0.67,1.72-1.15c0.49-0.49,0.87-1.05,1.16-1.71
			s0.42-1.35,0.42-2.09c0-0.74-0.14-1.44-0.42-2.09s-0.67-1.22-1.16-1.71c-0.49-0.49-1.06-0.87-1.72-1.15s-1.36-0.42-2.1-0.42
			s-1.45,0.14-2.1,0.42s-1.23,0.67-1.72,1.15c-0.49,0.49-0.88,1.05-1.16,1.71C1015.49,1947.4,1015.35,1948.1,1015.35,1948.84z"/>
		<path class="st4" d="M1036.38,1936.03h6.75l7.1,9.86v-9.86h8.07v25.58h-6.79l-7.06-9.82v9.82h-8.07V1936.03z"/>
		<path class="st4" d="M1060.81,1936.03h8.8l-1.31,18.03h-6.17L1060.81,1936.03z M1061.08,1955.21h8.26v6.41h-8.26V1955.21z"/>
	</g>
</g>
<g id="Layer_5">
	<g>
		<path class="st1" d="M192.05,278.83c1.78,0.57,3.65,1.01,5.59,1.33c1.62,0.41,3.46,0.73,5.53,0.97s4.15,0.36,6.26,0.36
			c3.73,0,5.59-1.37,5.59-4.12c0-1.05-0.57-2.12-1.7-3.21c-1.14-1.09-2.57-2.3-4.32-3.64c-1.74-1.33-3.61-2.81-5.59-4.43
			c-1.99-1.62-3.85-3.48-5.59-5.58c-1.74-2.1-3.18-4.47-4.32-7.1c-1.14-2.63-1.7-5.64-1.7-9.04c0-3.8,0.69-7.16,2.07-10.07
			c1.38-2.91,3.28-5.34,5.71-7.28c2.43-1.94,5.29-3.42,8.57-4.43c3.28-1.01,6.79-1.52,10.52-1.52c1.94,0,3.89,0.1,5.83,0.3
			c1.94,0.2,3.69,0.38,5.23,0.55c1.78,0.24,3.52,0.49,5.23,0.73v22.69c-0.65-0.08-1.38-0.16-2.19-0.24
			c-0.65-0.08-1.38-0.16-2.19-0.24c-0.81-0.08-1.66-0.12-2.55-0.12c-0.49,0-1.09,0.02-1.82,0.06c-0.73,0.04-1.42,0.14-2.07,0.3
			c-0.65,0.16-1.22,0.45-1.7,0.85c-0.49,0.41-0.73,0.97-0.73,1.7c0,0.65,0.55,1.46,1.64,2.43c1.09,0.97,2.43,2.1,4.01,3.4
			c1.58,1.29,3.32,2.79,5.23,4.49c1.9,1.7,3.65,3.64,5.23,5.82c1.58,2.18,2.92,4.65,4.01,7.4c1.09,2.75,1.64,5.82,1.64,9.22
			c0,3.56-0.57,6.9-1.7,10.01c-1.14,3.11-2.9,5.82-5.29,8.13c-2.39,2.31-5.45,4.12-9.18,5.46c-3.73,1.33-8.14,2-13.25,2
			c-3.08,0-5.94-0.14-8.57-0.42c-2.63-0.28-4.96-0.63-6.99-1.03c-2.35-0.41-4.5-0.89-6.44-1.46V278.83z"/>
		<path class="st1" d="M273.01,223.03h19.45l30.75,80.92h-25.53l-2.67-7.28h-24.56l-2.67,7.28h-25.53L273.01,223.03z M288.2,278.83
			l-5.47-14.19l-5.47,14.19H288.2z"/>
		<path class="st1" d="M332.09,223.03l13.74,35.18l13.86-35.18H388l-31.61,80.92h-21.03l-31.61-80.92H332.09z"/>
		<path class="st1" d="M389.83,223.03h47.77v21.23h-21.88v8.98h21.52v20.14h-21.52v9.34h22.73v21.23h-48.62V223.03z"/>
		<path class="st1" d="M480.75,244.26H465.8v-21.23h56.65v21.23H507.5v59.69h-26.74V244.26z"/>
		<path class="st1" d="M526.7,223.03h25.89v27.54h14.47v-27.54h26.01v80.92h-26.01v-29.96h-14.47v29.96H526.7V223.03z"/>
		<path class="st1" d="M601.58,223.03h47.77v21.23h-21.88v8.98h21.52v20.14h-21.52v9.34h22.73v21.23h-48.62V223.03z"/>
		<path class="st1" d="M681.81,303.94v-80.92h22.49c7.62,0,14.41,0.85,20.36,2.55c5.96,1.7,10.98,4.25,15.07,7.64
			c4.09,3.4,7.21,7.62,9.36,12.68c2.15,5.06,3.22,10.9,3.22,17.53c0,6.63-1.08,12.48-3.22,17.53c-2.15,5.06-5.27,9.28-9.36,12.68
			c-4.09,3.4-9.12,5.97-15.07,7.7c-5.96,1.74-12.74,2.61-20.36,2.61H681.81z M707.7,280.89c6.08,0,10.78-1.44,14.1-4.31
			c3.32-2.87,4.98-7.26,4.98-13.16c0-5.9-1.66-10.27-4.98-13.1c-3.32-2.83-8.02-4.25-14.1-4.25V280.89z"/>
		<path class="st1" d="M783.07,223.03h19.45l30.75,80.92h-25.53l-2.67-7.28h-24.56l-2.67,7.28h-25.53L783.07,223.03z M798.27,278.83
			l-5.47-14.19l-5.47,14.19H798.27z"/>
		<path class="st1" d="M845.8,244.26h-14.95v-21.23h56.65v21.23h-14.95v59.69H845.8V244.26z"/>
		<path class="st1" d="M891.74,223.03h47.77v21.23h-21.88v8.98h21.52v20.14h-21.52v9.34h22.73v21.23h-48.62V223.03z"/>
	</g>
</g>
<g id="Layer_7" class="st8">
	<rect x="173.13" y="2562.55" class="st9" width="762.87" height="142.21"/>
</g>
<g id="Layer_8" class="st8">
	<text transform="matrix(1 0 0 1 203.1044 2657.9739)" style="display:inline;"><tspan x="0" y="0" style="fill:#414042; font-family:'Phosphate-Solid'; font-size:61.23px;">eager be</tspan><tspan x="247.79" y="0" style="fill:#414042; font-family:'Phosphate-Solid'; font-size:61.23px; letter-spacing:-7;">a</tspan><tspan x="278.78" y="0" style="fill:#414042; font-family:'Phosphate-Solid'; font-size:61.23px;">vers rsvp </tspan><tspan x="572.74" y="0" style="fill:#414042; font-family:'Phosphate-Solid'; font-size:61.23px; letter-spacing:-1;">here</tspan></text>
</g>
</svg>
