<?xml version="1.0" encoding="utf-8"?>
<!-- Generator: Adobe Illustrator 27.3.1, SVG Export Plug-In . SVG Version: 6.00 Build 0)  -->
<svg version="1.1" xmlns="http://www.w3.org/2000/svg" xmlns:xlink="http://www.w3.org/1999/xlink" x="0px" y="0px"
	 viewBox="0 0 1125 2436" style="enable-background:new 0 0 1125 2436;" xml:space="preserve">
<style type="text/css">
	.st0{fill:#0D1128;}
	.st1{fill:#FFF5D4;}
	.st2{fill:#F499BB;}
	.st3{fill:#F4A263;}
	.st4{fill:#FAD066;}
	.st5{fill:#333333;}
	.st6{fill:#9DC38E;}
	.st7{fill:#FFECC5;}
	.st8{display:none;}
	.st9{display:inline;fill:#E6E7E8;stroke:#9DC38E;stroke-width:17;stroke-miterlimit:10;}
</style>
<g id="Layer_4">
	<polyline class="st0" points="104.53,2044.38 -2.03,2044.37 -1.82,2.14 1382.36,2.28 1382.31,477.21 	"/>
	<line class="st0" x1="-4.31" y1="2250.34" x2="-4.31" y2="2118.12"/>
	<line class="st0" x1="-4.31" y1="2349.64" x2="-4.31" y2="2250.34"/>
	<polyline class="st1" points="1199.79,745.04 1199.8,2433.44 -482.8,2433.43 	"/>
</g>
<g id="Layer_2">
	<polyline class="st2" points="-248.43,1903.64 1513.2,230.21 1623.64,225.57 -288.95,2055.97 	"/>
	<line class="st3" x1="-0.2" y1="2243.54" x2="0" y2="2243.21"/>
	<line class="st3" x1="0" y1="2384.49" x2="-0.23" y2="2384.88"/>
	<polyline class="st3" points="-284.1,2039.01 1470.15,356.47 1575.48,352.04 -324.35,2187.83 	"/>
	<line class="st4" x1="0.14" y1="2495.74" x2="-7.58" y2="2508.5"/>
	<polyline class="st4" points="-318.25,2165.3 1444.97,477 1547.08,472.71 -356.81,2309.32 	"/>
</g>
<g id="Layer_3">
	<path id="BACKGROUND_00000167390569601682181960000008518085596809695141_" class="st1" d="M132.26,544.8l48.11,23.02l38.63,17.91
		c2.3,1.07,3.74,3.41,3.64,5.93l-10.07,259.22c-0.14,3.56,2.73,6.52,6.31,6.52h220.99c3.42,0,6.21-2.7,6.31-6.1l1.05-36.33
		c0.1-3.55,3.14-6.3,6.7-6.08l10.22,0.63c0.12,0.01,0.24,0.01,0.36,0.01l13.83,0.06l347.2,0.97c3.24,0.01,5.97-2.43,6.3-5.63
		l4.08-39.27c0.32-3.11,2.91-5.52,6.05-5.63l40.49-1.44c3.49-0.12,6.21-3.04,6.08-6.5l-2.23-60.02c-0.12-3.16-2.58-5.74-5.75-6.02
		l-55.58-4.9c-4.7-0.41-7.3-5.62-4.79-9.59l46.49-73.64c0.63-1,0.97-2.16,0.97-3.34v-39.17c0-3.47,2.83-6.28,6.31-6.28h115.96
		c3.49,0,6.31-2.81,6.31-6.28V369.41c0-2.09-1.05-4.04-2.79-5.21l-43.66-29.17c-1.04-0.7-2.27-1.07-3.52-1.07h-316.8
		c-3.49,0-6.31-2.81-6.31-6.28v-26.5c0-2.85-1.93-5.34-4.71-6.07l-19.69-5.15c-0.52-0.14-1.05-0.2-1.59-0.21l-291.35-0.84
		c-1.35,0-2.67-0.44-3.75-1.24L294,281.7c-1.12-0.83-2.49-1.27-3.88-1.24l-130.6,2.25c-1.54,0.03-3.02,0.61-4.15,1.64l-19.63,17.84"
		/>
	<path class="st5" d="M827.84,589.9"/>
	<path class="st5" d="M804.51,608.35"/>
	<g id="OUTIDE_00000101074180812505575420000002506026346642584487_">
		<polygon class="st6" points="159.82,536.2 155.99,522.03 153.56,477.11 153.56,401.79 153.56,382.79 154.95,354.11 156.69,325.78 
			159.82,304.35 177.55,299.86 203.97,296.75 229.35,296.75 253.68,296.75 275.58,298.48 285.32,299.86 291.58,301.94 295.4,359.29 
			296.79,414.92 296.79,469.86 296.79,506.14 295.4,518.92 293.66,532.74 291.58,538.27 263.42,539.65 195.97,539.65 		"/>
		<polygon class="st6" points="310.35,355.47 359.14,353.74 359.14,397.28 359.14,485.38 384.4,483.31 379.53,403.84 424.82,406.6 
			426.47,455.67 426.47,492.64 426.47,510.61 424.82,524.08 422.64,532.03 410.7,533.06 373.62,534.45 346.51,535.83 316.26,535.83 
			313.83,529.95 311.74,483.65 310.35,434.02 		"/>
		<polygon class="st6" points="379.19,353.74 381.62,391.75 442.46,391.75 444.54,429.06 446.63,457.4 448.37,482.62 450.03,512.68 
			451.84,537.9 499.47,539.65 498.08,495.75 497.73,458.09 497.04,436.66 495.49,409.71 495.49,389.67 518.25,387.95 516.51,361.69 
			516.51,352.47 		"/>
		<polygon class="st6" points="702.62,351.55 703.78,370.21 703.78,393.01 662.99,394.17 636.8,395.32 614.55,395.32 589.05,396.47 
			568.66,397.39 569.82,413.51 570.51,422.04 582.79,422.04 599.25,423.19 612.46,423.19 624.63,424.05 634.01,425.26 
			639.58,426.82 643.05,428.54 643.4,437.36 643.92,449.45 643.92,465.69 643.92,478.64 643.75,487.97 643.05,503.52 642.18,514.75 
			641.49,523.22 640.27,531.85 638.01,538.59 556.66,537.21 514.94,537.04 514.94,493.16 559.15,495.29 599.77,493.33 
			600.12,472.08 598.03,465.69 591.43,465.86 563.09,466.55 547.62,466.55 533.89,466.55 528.33,465.52 527.46,463.1 527.29,450.31 
			526.24,434.02 525.55,421.81 524.68,406.43 523.81,386.22 523.64,367.22 523.98,358.23 526.07,353.74 		"/>
		<polygon class="st6" points="656.26,405.57 706.33,404.19 707.72,436.32 709.18,464.65 709.18,489.87 709.18,518.9 709.18,532.72 
			709.18,539.65 684.42,538.59 666,538.59 656.26,535.48 656.26,498.51 656.26,468.8 		"/>
		<polygon class="st6" points="719.89,349.61 721.28,404.19 722.32,445.07 722.32,471.92 723.25,495.29 724.4,520.39 724.4,535.6 
			755.92,535.6 775.63,534.68 786.52,533.99 803.9,533.06 818.97,531.22 831.95,528.23 837.74,525.69 840.29,514.18 841.68,498.74 
			842.84,484 842.84,471.92 842.84,449.45 842.84,430.79 842.84,399.18 842.84,382.94 841.56,360.31 834.78,358.23 820.53,356.16 
			804.36,354.43 772.9,352.19 752.22,351.15 		"/>
		<polygon class="st6" points="852.17,533.06 950.9,534.1 950.9,485.56 929.52,485.56 897.36,485.56 895.62,464.13 925.52,463.44 
			947.42,462.41 947.42,445.82 947.6,426.64 908.66,426.64 893.19,426.64 892.67,411.1 892.49,402.29 909.36,403.15 917.7,403.15 
			933.69,403.15 946.21,403.32 947.6,378.44 949.16,352.36 937.86,352.36 923.96,352.36 903.62,353.05 891.1,353.05 878.94,353.57 
			870.94,354.09 860.51,354.09 852.17,354.26 852.17,359.44 		"/>
	</g>
	<g id="BIRTHDAY_FESTIVAL_00000056428083484246487730000015438213068965651075_">
		<polygon class="st3" points="421.84,761.42 421.84,792.93 446.63,792.79 442.02,777.17 446.78,759.55 		"/>
		<polygon class="st3" points="461.72,761.42 461.72,792.93 470.06,792.93 470.67,782.75 475.48,792.93 482.79,792.93 
			477.94,781.35 482.79,781.04 482.23,760.55 		"/>
		<polygon class="st3" points="506.36,761.25 512.79,757.82 514.17,773.48 521.97,776.91 521.97,761.25 529.77,761.25 
			529.77,792.57 521.51,792.57 520.46,784.15 513.71,784.06 514.72,792.57 506.36,792.57 		"/>
		<polygon class="st3" points="533.05,759.55 533.05,792.83 552.26,784.93 552.26,779.57 551.32,775.36 549.37,771.52 
			545.76,767.35 541.19,763.36 		"/>
		<polygon class="st3" points="576.13,760.59 589.4,776.69 589.4,792.79 597.92,792.79 597.92,775.38 604.83,760.59 596.12,760.59 
			592.3,767.07 584.73,760.59 		"/>
		<polygon class="st3" points="622.37,759.55 622.37,792.79 634.19,792.79 632.87,779.42 641.84,779.24 641.84,772.37 
			630.84,766.63 641.84,766.98 641.84,759.55 		"/>
		<polygon class="st3" points="644.97,759.55 644.97,793.44 668.08,793.44 668.08,784.43 652.97,783.91 663.91,776.49 
			655.05,768.71 668.08,768.88 668.78,760.9 		"/>
		<polygon class="st3" points="671.74,759.55 671.74,775.32 684.6,782.19 671.74,782.75 671.74,793.44 694.9,792.93 694.9,773.28 
			680.25,769.05 693.98,768.88 693.64,759.55 		"/>
		<polygon class="st3" points="697.11,759.55 697.11,768.27 701.75,768.27 701.75,792.03 712.24,792.79 712.24,767.84 717.1,767.84 
			717.1,759.55 		"/>
		<polygon class="st3" points="719.5,760.59 719.01,792.79 727.19,792.79 727.19,760.59 		"/>
		<polygon class="st3" points="754.65,760.59 751.87,782.19 750.13,792.03 734.49,792.79 729.45,760.59 736.92,760.59 
			742.05,776.69 743,779.42 747.7,759.55 		"/>
		<polygon class="st3" points="756.74,759.55 756.74,793.44 766.64,792.79 765.96,782.19 770.51,782.19 774.21,792.79 
			780.81,792.79 779.68,776.17 778.12,759.55 		"/>
		<polygon class="st3" points="782.29,759.55 782.29,792.79 799.32,792.79 799.32,783.22 791.85,783.05 791.5,759.55 		"/>
		<polygon class="st3" points="554.36,759.17 554.36,793.06 564.26,792.4 563.58,781.8 568.13,781.8 571.83,792.4 578.43,792.4 
			577.3,775.78 575.74,759.17 		"/>
		<polygon class="st3" points="484.58,760.55 484.58,769.27 489.22,769.27 489.22,793.03 499.71,793.79 499.71,768.85 
			504.57,768.85 504.57,760.55 		"/>
		<polygon class="st3" points="450.58,760.64 450.09,792.84 458.26,792.84 458.26,760.64 		"/>
	</g>
	<g id="MANZ_00000058547729479975439980000010635427223025610637_">
		<polygon class="st2" points="458.62,745.04 441.07,744.35 417.77,743.32 417.77,733.29 417.77,714.81 417.77,697.7 417.77,671.62 
			418.64,643.34 419.34,620.31 419.69,593.01 421.08,566.41 422.29,553.1 438.2,552.41 457.93,552.41 481.74,552.41 502.6,552.41 
			513.38,552.41 516.51,564.85 517.55,574.73 519.81,592.11 521.38,606.55 527.46,669.9 529.55,693.04 530.41,706.17 531.98,727.94 
			533.54,743.32 532.85,745.04 491.48,745.04 486.09,691.14 464.53,691.48 462.27,691.66 460.88,703.06 460.36,714.63 
			459.49,731.74 		"/>
		<polygon class="st2" points="583.95,745.04 563.62,745.04 540.32,745.04 540.32,690.27 540.32,658.83 540.32,623.93 
			540.32,598.88 540.32,580.23 540.32,562.78 540.32,554.49 542.93,553.28 546.41,552.41 550.35,551.95 554.29,551.95 
			572.48,551.95 587.78,551.95 589.98,555.75 592.06,561.63 594.96,570.15 597.28,578.9 599.71,587.31 609.36,622.38 616.46,651.06 
			615.59,618.92 615.59,595.5 615.59,568.48 615.07,554.49 633.49,553.62 660.26,552.41 661.31,577.64 662.17,600.61 662.87,618.87 
			662.87,629.69 664.14,658.6 664.96,677.72 664.96,690.5 665.42,702.83 666.23,719.87 666.69,731.39 667.51,743.02 611.65,744.29 
			608.29,742.33 596.7,714.11 588.47,699.26 586.27,695.46 583.49,691.89 583.14,693.96 		"/>
		<path class="st2" d="M816.73,552.41l-140.34-0.2c-0.93,0-1.69,0.75-1.69,1.68v36.52c0,0.92,0.75,1.68,1.68,1.68l68.84,0.38
			c1.34,0.01,2.14,1.48,1.41,2.59l-50.71,77.96l-17.48,24.43c-0.21,0.29-0.31,0.63-0.31,0.98l0.15,31.64c0,0.08,0.01,0.17,0.02,0.25
			l1.93,12.27c0.13,0.8,0.81,1.4,1.63,1.42l56.39,1.24l116.92,2.57c0.91,0.02,1.67-0.68,1.73-1.59l2.27-40.17
			c0.06-0.98-0.74-1.79-1.72-1.77l-79.59,1.49H745c-1.18,0-2-1.17-1.59-2.27l4.49-12.02c0.05-0.12,0.1-0.24,0.18-0.35l68.61-102.49
			C817.08,584.91,816.94,552.92,816.73,552.41L816.73,552.41z"/>
		<path class="st2" d="M247.1,551.63l45.9,0.67c1.11,0.02,2.06,0.78,2.3,1.86l20.31,90.04c0.56,2.48,4.11,2.48,4.67,0l10.49-46.51
			l10.55-46.78c0.03-0.14,0.07-0.27,0.13-0.4l0,0c0.37-0.88,1.24-1.45,2.2-1.45h55.68c1.05,0,1.97,0.67,2.28,1.67l0.17,0.54
			c0.07,0.23,0.11,0.47,0.11,0.71l0.01,18.24v63.39l-0.28,33.56l-0.28,67.7l-0.15,47.37l0.15,31.73l-0.14,24.28
			c-0.01,1.32-1.09,2.38-2.41,2.36l-19.97-0.16l-29.92,0.16c-1.31,0.01-2.38-1.04-2.41-2.34l-0.53-31l-2.76-67.41l-0.05-2.34
			c-0.05-2.12-2.66-3.13-4.13-1.59l-20.9,21.86c-0.98,1.02-2.63,0.98-3.55-0.09l-20.52-23.8c-1.44-1.67-4.19-0.67-4.21,1.53
			l-0.44,55.4v25.57l-0.38,21.89c-0.02,1.3-1.09,2.34-2.39,2.34h-17.6h-24.91h-6.78c-1.35,0-2.44-1.12-2.39-2.46l0.08-2.24
			l0.45-12.91l0.98-27.86l2.45-64.45l2.05-63.55l1.76-50.02l1.41-41.05l0.52-21.93c0-0.12,0.01-0.24,0.04-0.36l0.03-0.19
			C244.91,552.45,245.93,551.62,247.1,551.63z"/>
	</g>
	<g id="SAN_DIEGO_00000070841491124645131900000015231595968041997189_">
		<polygon class="st4" points="336.08,304.68 311.22,305.54 311.91,322.47 324.6,327.83 326.34,329.04 312.26,329.04 311.91,341.3 
			336.77,341.3 336.77,321.61 323.04,315.56 321.3,314.52 335.56,314.7 		"/>
		<polygon class="st4" points="339.73,304.68 339.73,341.3 349.98,340.61 349.98,329.04 353.98,328.69 358.33,340.27 365.8,340.44 
			365.11,304.68 		"/>
		<polygon class="st4" points="368.41,304.68 368.41,340.61 381.97,340.61 376.75,324.54 385.79,340.61 396.92,340.61 395.7,304.68 
			382.66,304.68 386.14,315.91 387.36,319.19 378.32,305.54 		"/>
		<polygon class="st4" points="424.82,302.2 424.82,342.8 450.03,332.58 450.03,324.72 446.89,317.46 442.7,312.59 436.73,308.04 		
			"/>
		<rect x="453.67" y="304.28" class="st4" width="9.09" height="36.45"/>
		<polygon class="st4" points="469.16,304.28 469.16,340.72 495.49,340.72 488,331.11 492.73,324.1 485.74,318.32 495.49,304.28 		
			"/>
		<polygon class="st4" points="522.98,299.79 522.98,310.51 512.2,314.86 513.82,329.28 517.58,320.22 523.31,327.95 525.27,340.66 
			501.83,340.66 501.83,306.49 		"/>
		<polygon class="st4" points="531.7,302.2 531.7,340.66 555.45,340.66 556.31,338.71 556.31,302.2 		"/>
		<polygon class="st4" points="554.23,294.14 554.23,300.53 558.92,301.22 559.96,312.62 565.18,300.88 565.18,294.14 		"/>
		<polygon class="st4" points="566.74,302.2 566.74,319.71 580.92,326.1 567.61,326.1 566.74,340.66 592.82,339.32 592.82,318.15 
			578.39,312.62 591.95,312.62 592.82,302.2 		"/>
	</g>
	<g id="INSIDE_00000132079288495951733180000014322914154423729547_">
		<polygon class="st1" points="212.31,352.36 212.31,474.33 229.5,476.74 229.5,349.61 		"/>
		<polygon class="st1" points="768.83,397.08 768.83,491.06 791.18,489.33 788.38,397.08 771.53,397.08 		"/>
		<polygon class="st1" points="463.68,615.39 463.68,651.59 481.06,651.59 479.32,614.59 		"/>
		<polygon class="st1" points="431.8,315.14 431.8,330.77 437.44,315.14 		"/>
		<polygon class="st1" points="539.68,310.7 539.68,333.9 547.49,333.9 		"/>
		<polygon class="st1" points="350.69,317.44 350.69,322.96 353.59,322.96 		"/>
		<polygon class="st1" points="432.35,765.54 432.35,770.48 436.69,765.54 		"/>
		<polygon class="st1" points="432.6,781.82 432.6,786.27 438.28,786.27 		"/>
		<polygon class="st1" points="469.62,764.78 470.08,772.9 477.98,768.01 		"/>
		<polygon class="st1" points="539.64,771.22 539.64,782.38 545.27,771.22 		"/>
		<polyline class="st1" points="769.52,769.37 769.52,774.9 772.48,774.9 		"/>
		<polyline class="st1" points="567.52,768.46 567.52,773.99 570.48,773.99 		"/>
	</g>
	<g id="ANTS_00000088827074322139528290000015312008385175677611_">
		<rect x="258.53" y="828.46" class="st7" width="4.97" height="12.16"/>
		<rect x="258.53" y="805.98" class="st7" width="4.97" height="12.16"/>
		<rect x="258.53" y="783.49" class="st7" width="4.97" height="12.16"/>
		<rect x="258.53" y="761.01" class="st7" width="4.97" height="12.16"/>
		<rect x="261.02" y="738.53" class="st7" width="4.97" height="12.16"/>
		<rect x="263.5" y="716.05" class="st7" width="4.97" height="12.16"/>
		<rect x="263.5" y="693.57" class="st7" width="4.97" height="12.16"/>
		<rect x="263.5" y="671.09" class="st7" width="4.97" height="12.16"/>
		<rect x="263.5" y="648.61" class="st7" width="4.97" height="12.16"/>
		<rect x="263.5" y="626.12" class="st7" width="4.97" height="12.16"/>
		<rect x="263.66" y="603.67" class="st7" width="4.97" height="12.16"/>
		<rect x="263.66" y="581.21" class="st7" width="4.97" height="12.16"/>
		<polygon class="st7" points="277.53,590.45 280.01,602.36 284.88,601.36 282.4,589.45 		"/>
		<polygon class="st7" points="331.09,699.17 326.38,710.39 330.97,712.29 335.68,701.07 		"/>
		<rect x="263.83" y="568.73" class="st7" width="4.97" height="5.85"/>
		<polygon class="st7" points="323.03,715.94 319.94,721.19 324.23,723.68 327.32,718.43 		"/>
		<polygon class="st7" points="272.07,570.2 275.24,581.95 280.04,580.67 276.87,568.92 		"/>
		<polygon class="st7" points="282.95,611.14 286.12,622.88 290.91,621.61 287.75,609.86 		"/>
		<polygon class="st7" points="289.42,633.05 292.59,644.8 297.39,643.52 294.22,631.77 		"/>
		<polygon class="st7" points="295.82,654.96 298.99,666.71 303.79,665.43 300.62,653.69 		"/>
		<polygon class="st7" points="301.51,678.88 304.68,690.63 309.48,689.35 306.31,677.6 		"/>
		<polygon class="st7" points="338.42,677.12 334.49,688.64 339.19,690.23 343.13,678.71 		"/>
		<polygon class="st7" points="349.29,632.75 346.14,644.51 350.94,645.78 354.09,634.02 		"/>
		<rect x="372.81" y="828.46" class="st7" width="4.97" height="12.16"/>
		<rect x="372.81" y="807.82" class="st7" width="4.97" height="12.16"/>
		<rect x="372.81" y="785.64" class="st7" width="4.97" height="12.16"/>
		<rect x="372.86" y="761.93" class="st7" width="4.97" height="12.16"/>
		<rect x="372.81" y="738.23" class="st7" width="4.97" height="12.16"/>
		<rect x="375.29" y="716.05" class="st7" width="4.97" height="12.16"/>
		<rect x="375.34" y="691.79" class="st7" width="4.97" height="12.16"/>
		<rect x="375.29" y="667.53" class="st7" width="4.97" height="12.16"/>
		<rect x="375.29" y="643.27" class="st7" width="4.97" height="12.16"/>
		<rect x="375.34" y="619.01" class="st7" width="4.97" height="12.16"/>
		<rect x="375.34" y="593.37" class="st7" width="4.97" height="12.16"/>
		<rect x="375.29" y="571.84" class="st7" width="4.97" height="12.16"/>
		<polygon class="st7" points="356.07,609.83 352.35,621.41 357.08,622.92 360.81,611.33 		"/>
		<polygon class="st7" points="176.68,498.65 178.72,504.39 183.41,502.74 181.37,497.01 		"/>
		<rect x="174.2" y="476.74" class="st7" width="4.97" height="12.16"/>
		<rect x="174.2" y="454.9" class="st7" width="4.97" height="12.16"/>
		<rect x="174.2" y="431.18" class="st7" width="4.97" height="12.16"/>
		<rect x="174.2" y="408.07" class="st7" width="4.97" height="12.16"/>
		<rect x="176.1" y="385.26" class="st7" width="4.97" height="12.16"/>
		<rect x="176.68" y="362.46" class="st7" width="4.97" height="12.16"/>
		<polygon class="st7" points="179.96,339.56 177.32,351.44 182.17,352.5 184.81,340.63 		"/>
		<polygon class="st7" points="191.33,326.46 184.81,330.38 187.24,334.37 193.76,330.46 		"/>
		<polygon class="st7" points="192.8,508.12 185.93,504.85 183.9,509.05 190.77,512.33 		"/>
		
			<rect x="203.25" y="505.18" transform="matrix(0.039 -0.9992 0.9992 0.039 -313.2193 696.8919)" class="st7" width="4.94" height="12.24"/>
		
			<rect x="224.6" y="505.18" transform="matrix(0.0206 -0.9998 0.9998 0.0206 -288.7884 727.7908)" class="st7" width="4.94" height="12.24"/>
		
			<rect x="242.09" y="507.78" transform="matrix(0.0206 -0.9998 0.9998 0.0206 -271.6072 745.22)" class="st7" width="4.94" height="6.92"/>
		<polygon class="st7" points="257.86,497.09 252.5,508.02 256.97,510.19 262.33,499.25 		"/>
		<rect x="259.13" y="476.74" class="st7" width="4.97" height="12.16"/>
		<rect x="259.13" y="454.9" class="st7" width="4.97" height="12.16"/>
		<rect x="259.13" y="431.18" class="st7" width="4.97" height="12.16"/>
		<rect x="259.13" y="408.07" class="st7" width="4.97" height="12.16"/>
		<rect x="259.13" y="381.99" class="st7" width="4.97" height="12.16"/>
		<rect x="259.13" y="357.89" class="st7" width="4.97" height="12.16"/>
		<rect x="259.13" y="333.48" class="st7" width="4.97" height="12.16"/>
		<polygon class="st7" points="261.6,326.19 256.94,320.2 253.23,323.05 257.88,329.05 		"/>
		<polygon class="st7" points="210.67,318.62 199.12,322.63 200.76,327.29 212.31,323.28 		"/>
		
			<rect x="224.6" y="314.08" transform="matrix(0.0169 -0.9999 0.9999 0.0169 -96.9114 541.8364)" class="st7" width="4.94" height="12.24"/>
		<polygon class="st7" points="249.48,318.45 241.94,317.33 241.25,321.95 248.78,323.07 		"/>
		<polygon class="st7" points="344.1,655.15 340.91,666.9 345.71,668.18 348.89,656.44 		"/>
		<polygon class="st7" points="313.39,716.82 319.06,727.6 323.46,725.31 317.79,714.53 		"/>
		<polygon class="st7" points="306.76,699.56 310.95,710.99 315.62,709.3 311.43,697.87 		"/>
		<polygon class="st7" points="361.94,586.36 358.21,597.95 362.94,599.45 366.67,587.87 		"/>
		<polygon class="st7" points="366.76,570.45 364.12,578.67 368.85,580.17 371.49,571.96 		"/>
		<rect x="331.8" y="353.74" class="st7" width="4.97" height="12.16"/>
		<rect x="331.8" y="374.62" class="st7" width="4.97" height="12.16"/>
		<rect x="331.8" y="394.15" class="st7" width="4.97" height="12.16"/>
		<rect x="331.8" y="416.23" class="st7" width="4.97" height="12.16"/>
		<rect x="331.8" y="438.7" class="st7" width="4.97" height="12.16"/>
		<rect x="331.8" y="462.62" class="st7" width="4.97" height="12.16"/>
		<rect x="331.8" y="486.57" class="st7" width="4.97" height="12.16"/>
		<polygon class="st7" points="333.67,507.57 339.03,513.01 342.58,509.55 337.22,504.12 		"/>
		
			<rect x="351.12" y="506.21" transform="matrix(2.536872e-03 -1 1 2.536872e-03 -159.6395 864.6161)" class="st7" width="4.94" height="12.24"/>
		
			<rect x="369.02" y="506.21" transform="matrix(2.536872e-03 -1 1 2.536872e-03 -141.7791 882.5219)" class="st7" width="4.94" height="12.24"/>
		
			<rect x="387.28" y="508.12" transform="matrix(2.536982e-03 -1 1 2.536982e-03 -123.5648 900.7767)" class="st7" width="4.94" height="8.42"/>
		<polygon class="st7" points="401.8,511.71 406.57,500.51 402,498.59 397.23,509.79 		"/>
		<rect x="402.15" y="480.49" class="st7" width="4.97" height="12.16"/>
		<rect x="402.15" y="458.68" class="st7" width="4.97" height="12.16"/>
		<rect x="402.15" y="436.73" class="st7" width="4.97" height="12.16"/>
		<rect x="402.15" y="415.25" class="st7" width="4.97" height="12.16"/>
		<rect x="380.03" y="368.27" class="st7" width="5.5" height="4.94"/>
		<rect x="391.11" y="368.27" class="st7" width="12.24" height="4.94"/>
		<rect x="412.58" y="368.27" class="st7" width="12.24" height="4.94"/>
		<rect x="434.62" y="368.27" class="st7" width="12.24" height="4.94"/>
		<rect x="456.65" y="368.27" class="st7" width="12.24" height="4.94"/>
		<rect x="500.14" y="368.27" class="st7" width="12.24" height="4.94"/>
		<rect x="466.67" y="378.23" class="st7" width="4.97" height="12.16"/>
		<rect x="466.67" y="399.31" class="st7" width="4.97" height="12.16"/>
		<rect x="467.2" y="421.33" class="st7" width="4.97" height="12.16"/>
		<rect x="468.06" y="442.81" class="st7" width="4.97" height="12.16"/>
		<rect x="469.16" y="483.16" class="st7" width="4.97" height="12.16"/>
		<rect x="469.69" y="503.77" class="st7" width="4.97" height="12.16"/>
		<rect x="470.55" y="521.74" class="st7" width="4.97" height="12.16"/>
		<rect x="469.16" y="463.53" class="st7" width="4.97" height="12.16"/>
		<rect x="480.17" y="368.27" class="st7" width="12.24" height="4.94"/>
		<rect x="694.95" y="368.11" class="st7" width="8.75" height="4.94"/>
		<rect x="672.92" y="368.11" class="st7" width="12.24" height="4.94"/>
		<rect x="650.15" y="368.11" class="st7" width="12.24" height="4.94"/>
		<rect x="627.29" y="368.27" class="st7" width="12.24" height="4.94"/>
		<rect x="604.98" y="368.27" class="st7" width="12.24" height="4.94"/>
		<rect x="582.67" y="368.11" class="st7" width="12.24" height="4.94"/>
		<rect x="560.63" y="368.11" class="st7" width="12.24" height="4.94"/>
		<polygon class="st7" points="554.38,369.09 547.26,375.49 550.82,379.4 557.94,373 		"/>
		
			<rect x="544.17" y="382.53" transform="matrix(0.9996 -0.0284 0.0284 0.9996 -10.8004 15.6737)" class="st7" width="4.97" height="11.43"/>
		<rect x="545.01" y="399.34" class="st7" width="4.97" height="12.16"/>
		<rect x="545.01" y="419.7" class="st7" width="4.97" height="12.16"/>
		<polygon class="st7" points="556.5,441.75 550.3,434.98 546.62,438.31 552.82,445.07 		"/>
		<rect x="560.63" y="442.6" class="st7" width="12.24" height="4.94"/>
		<rect x="579.78" y="442.6" class="st7" width="12.24" height="4.94"/>
		<polygon class="st7" points="621.24,449.37 615.92,443.52 612.24,446.84 617.55,452.68 		"/>
		
			<rect x="616.25" y="458.86" transform="matrix(9.720312e-03 -1 1 9.720312e-03 154.9587 1079.1617)" class="st7" width="12.16" height="4.97"/>
		
			<rect x="616.75" y="477.69" transform="matrix(9.720312e-03 -1 1 9.720312e-03 136.6293 1098.3129)" class="st7" width="12.16" height="4.97"/>
		
			<rect x="616.75" y="496.3" transform="matrix(9.720312e-03 -1 1 9.720312e-03 118.0182 1116.744)" class="st7" width="12.16" height="4.97"/>
		<polygon class="st7" points="616.66,517.32 622.77,511.79 619.43,508.14 613.32,513.67 		"/>
		
			<rect x="598.58" y="509.14" transform="matrix(9.601271e-03 -1 1 9.601271e-03 80.0487 1111.3334)" class="st7" width="4.94" height="12.24"/>
		
			<rect x="579.17" y="509.14" transform="matrix(9.601271e-03 -1 1 9.601271e-03 60.8239 1091.9232)" class="st7" width="4.94" height="12.24"/>
		
			<rect x="558.25" y="508.53" transform="matrix(9.601271e-03 -1 1 9.601271e-03 40.7107 1070.4082)" class="st7" width="4.94" height="12.24"/>
		
			<rect x="539.66" y="508.53" transform="matrix(9.601271e-03 -1 1 9.601271e-03 22.2956 1051.8153)" class="st7" width="4.94" height="12.24"/>
		
			<rect x="521.92" y="508.53" transform="matrix(9.601271e-03 -1 1 9.601271e-03 4.7253 1034.0756)" class="st7" width="4.94" height="12.24"/>
		<rect x="596.83" y="442.6" class="st7" width="12.24" height="4.94"/>
		<rect x="680.24" y="404.19" class="st7" width="4.97" height="12.16"/>
		<rect x="680.24" y="423.26" class="st7" width="4.97" height="12.16"/>
		<rect x="680.24" y="443.53" class="st7" width="4.97" height="12.16"/>
		<rect x="680.24" y="463.07" class="st7" width="4.97" height="12.16"/>
		<rect x="680.24" y="483.14" class="st7" width="4.97" height="12.16"/>
		<rect x="680.24" y="503.88" class="st7" width="4.97" height="12.16"/>
		<rect x="680.24" y="523.43" class="st7" width="4.97" height="12.16"/>
		<rect x="742.85" y="370.58" class="st7" width="4.97" height="10.79"/>
		<rect x="742.47" y="386.51" class="st7" width="4.97" height="12.16"/>
		<rect x="742.47" y="406.6" class="st7" width="4.97" height="12.16"/>
		<rect x="742.47" y="428.42" class="st7" width="4.97" height="12.16"/>
		<rect x="742.47" y="449.18" class="st7" width="4.97" height="12.16"/>
		<rect x="742.47" y="470.02" class="st7" width="4.97" height="12.16"/>
		<rect x="745.7" y="511.11" class="st7" width="5.73" height="4.94"/>
		<rect x="773.88" y="512.02" class="st7" width="12.24" height="4.94"/>
		
			<rect x="743.22" y="488.37" transform="matrix(1 -3.413147e-03 3.413147e-03 1 -1.6833 2.5481)" class="st7" width="4.97" height="12.16"/>
		<rect x="817.78" y="386.51" class="st7" width="4.97" height="12.16"/>
		<rect x="817.78" y="404.19" class="st7" width="4.97" height="12.16"/>
		<rect x="817.78" y="421.11" class="st7" width="4.97" height="12.16"/>
		<rect x="817.78" y="437.99" class="st7" width="4.97" height="12.16"/>
		<rect x="817.78" y="455.26" class="st7" width="4.97" height="12.16"/>
		<rect x="817.78" y="472.96" class="st7" width="4.97" height="12.16"/>
		<rect x="817.78" y="491.06" class="st7" width="4.97" height="12.16"/>
		<rect x="792.02" y="512.02" class="st7" width="12.24" height="4.94"/>
		<polygon class="st7" points="810,516.24 819.5,510.12 816.8,505.98 807.3,512.09 		"/>
		<rect x="745.34" y="368.11" class="st7" width="15.76" height="4.94"/>
		<rect x="767.69" y="368.11" class="st7" width="12.24" height="4.94"/>
		<rect x="787.4" y="368.11" class="st7" width="12.24" height="4.94"/>
		<polygon class="st7" points="813.4,369.89 804.7,368.11 803.69,372.94 812.39,374.73 		"/>
		
			<rect x="743.22" y="504.4" transform="matrix(1 -3.413059e-03 3.413059e-03 1 -1.7344 2.5481)" class="st7" width="4.97" height="10.08"/>
		<polygon class="st7" points="822.17,380.68 817.68,373.05 813.4,375.54 817.88,383.17 		"/>
		<rect x="756.58" y="512.02" class="st7" width="14.1" height="4.94"/>
		<rect x="941.94" y="372.1" class="st7" width="6.12" height="4.94"/>
		<rect x="923.03" y="372.26" class="st7" width="12.24" height="4.94"/>
		<rect x="902.89" y="372.26" class="st7" width="12.24" height="4.94"/>
		<rect x="882.6" y="372.26" class="st7" width="12.24" height="4.94"/>
		<rect x="869.17" y="372.74" class="st7" width="8.64" height="4.94"/>
		
			<rect x="865.68" y="387.28" transform="matrix(0.019 -0.9998 0.9998 0.019 465.4774 1253.9575)" class="st7" width="12.16" height="4.97"/>
		<rect x="869.28" y="401.79" class="st7" width="4.97" height="12.16"/>
		<rect x="869.28" y="419.47" class="st7" width="4.97" height="12.16"/>
		<rect x="869.28" y="436.4" class="st7" width="4.97" height="12.16"/>
		<rect x="869.28" y="453.27" class="st7" width="4.97" height="12.16"/>
		<rect x="869.28" y="470.55" class="st7" width="4.97" height="12.16"/>
		<rect x="869.28" y="488.25" class="st7" width="4.97" height="12.16"/>
		<rect x="869.28" y="506.35" class="st7" width="4.97" height="6.12"/>
		<rect x="935.62" y="441.52" class="st7" width="11.83" height="4.94"/>
		<rect x="916.72" y="441.68" class="st7" width="12.24" height="4.94"/>
		<rect x="896.58" y="441.68" class="st7" width="12.24" height="4.94"/>
		<rect x="877.81" y="441.68" class="st7" width="12.24" height="4.94"/>
		<rect x="926.7" y="506.89" class="st7" width="11.83" height="4.94"/>
		<rect x="905.96" y="507.05" class="st7" width="12.24" height="4.94"/>
		<rect x="886.82" y="507.05" class="st7" width="12.24" height="4.94"/>
		<rect x="872.49" y="507.49" class="st7" width="7.58" height="4.94"/>
		<rect x="944.45" y="506.89" class="st7" width="6.45" height="4.94"/>
		
			<rect x="478.68" y="575.07" transform="matrix(0.9998 -0.0219 0.0219 0.9998 -12.5062 10.7199)" class="st7" width="11.04" height="4.94"/>
		
			<rect x="461.59" y="575.09" transform="matrix(0.9998 -0.0219 0.0219 0.9998 -12.5106 10.3595)" class="st7" width="12.24" height="4.94"/>
		<polygon class="st7" points="454.78,575.1 446.4,575.91 446.87,580.82 455.26,580.02 		"/>
		
			<rect x="428.41" y="725.73" transform="matrix(0.0449 -0.999 0.999 0.0449 -312.7937 1129.2694)" class="st7" width="11.5" height="4.97"/>
		
			<rect x="431.1" y="740.69" transform="matrix(0.9999 -0.015 0.015 0.9999 -11.1139 6.6022)" class="st7" width="4.97" height="3.69"/>
		<rect x="485.27" y="667.83" class="st7" width="12.24" height="4.94"/>
		<rect x="464.64" y="667.83" class="st7" width="12.24" height="4.94"/>
		<rect x="464.64" y="667.83" class="st7" width="12.24" height="4.94"/>
		<rect x="557" y="732.37" class="st7" width="4.97" height="12.16"/>
		<rect x="557" y="710.53" class="st7" width="4.97" height="12.16"/>
		<rect x="557" y="686.81" class="st7" width="4.97" height="12.16"/>
		<rect x="557" y="663.7" class="st7" width="4.97" height="12.16"/>
		<rect x="558.89" y="640.89" class="st7" width="4.97" height="12.16"/>
		<rect x="559.48" y="618.08" class="st7" width="4.97" height="12.16"/>
		<rect x="639.53" y="731.57" class="st7" width="4.97" height="12.16"/>
		<rect x="639.53" y="709.73" class="st7" width="4.97" height="12.16"/>
		<rect x="639.53" y="686.01" class="st7" width="4.97" height="12.16"/>
		<rect x="639.53" y="662.9" class="st7" width="4.97" height="12.16"/>
		<rect x="639.53" y="636.82" class="st7" width="4.97" height="12.16"/>
		<rect x="639.53" y="612.72" class="st7" width="4.97" height="12.16"/>
		<rect x="639.53" y="588.31" class="st7" width="4.97" height="12.16"/>
		<polygon class="st7" points="574.2,611.4 578.51,622.78 583.16,621.05 578.85,609.66 		"/>
		<polygon class="st7" points="582.78,631 587.75,642.12 592.29,640.11 587.32,629 		"/>
		<polygon class="st7" points="592.61,651.65 597.58,662.76 602.12,660.76 597.15,649.64 		"/>
		<polygon class="st7" points="602.36,672.31 607.33,683.42 611.87,681.42 606.9,670.3 		"/>
		<polygon class="st7" points="611.72,695.05 616.69,706.16 621.23,704.16 616.26,693.05 		"/>
		<polygon class="st7" points="629.39,730.7 636.68,740.46 640.67,737.52 633.38,727.75 		"/>
		<polygon class="st7" points="620.14,714.67 626.07,725.31 630.42,722.92 624.49,712.28 		"/>
		<rect x="559.48" y="594.44" class="st7" width="4.97" height="12.16"/>
		<rect x="559.48" y="571.92" class="st7" width="4.97" height="12.16"/>
		<rect x="639.53" y="569.31" class="st7" width="4.97" height="12.16"/>
		<polygon class="st7" points="566.53,591 570.84,602.38 575.49,600.64 571.18,589.26 		"/>
		<polygon class="st7" points="560.67,569.09 564.98,580.47 569.63,578.73 565.32,567.35 		"/>
		<rect x="786.98" y="569.37" class="st7" width="12.9" height="4.94"/>
		<rect x="764.96" y="569.37" class="st7" width="12.24" height="4.94"/>
		<rect x="742.18" y="569.37" class="st7" width="12.24" height="4.94"/>
		<rect x="719.33" y="569.53" class="st7" width="12.24" height="4.94"/>
		<rect x="697.02" y="569.53" class="st7" width="12.24" height="4.94"/>
		<rect x="674.71" y="569.37" class="st7" width="12.24" height="4.94"/>
		<polygon class="st7" points="793.51,572.57 786.39,583.27 790.54,586 797.65,575.3 		"/>
		<polygon class="st7" points="781.49,589.11 774.37,599.81 778.52,602.53 785.63,591.83 		"/>
		<polygon class="st7" points="768.42,608.05 761.31,618.75 765.45,621.47 772.57,610.77 		"/>
		<polygon class="st7" points="755.9,628.85 748.79,639.55 752.93,642.27 760.05,631.57 		"/>
		<polygon class="st7" points="741.56,649.49 734.45,660.19 738.59,662.91 745.7,652.21 		"/>
		<polygon class="st7" points="726.93,670.15 719.82,680.85 723.96,683.57 731.08,672.87 		"/>
		<polygon class="st7" points="713.16,691.46 706.05,702.16 710.2,704.88 717.31,694.18 		"/>
		<rect x="834.41" y="722.76" class="st7" width="12.9" height="4.94"/>
		<rect x="811.66" y="722.92" class="st7" width="12.24" height="4.94"/>
		<rect x="789.95" y="722.92" class="st7" width="12.24" height="4.94"/>
		<rect x="767.09" y="722.92" class="st7" width="12.24" height="4.94"/>
		<rect x="744.78" y="722.84" class="st7" width="12.24" height="4.94"/>
		<rect x="722.47" y="722.92" class="st7" width="12.24" height="4.94"/>
		<polygon class="st7" points="700.8,709.26 694.4,719.62 698.63,722.2 705.04,711.84 		"/>
		<rect x="699.93" y="722.92" class="st7" width="12.24" height="4.94"/>
		
			<rect x="429.38" y="706.26" transform="matrix(0.0449 -0.999 0.999 0.0449 -292.4229 1111.6417)" class="st7" width="11.5" height="4.97"/>
		
			<rect x="430.41" y="686.5" transform="matrix(0.0449 -0.999 0.999 0.0449 -271.6906 1093.799)" class="st7" width="11.5" height="4.97"/>
		
			<rect x="432.11" y="665.72" transform="matrix(0.0449 -0.999 0.999 0.0449 -249.3078 1075.6575)" class="st7" width="11.5" height="4.97"/>
		
			<rect x="433.15" y="646.24" transform="matrix(0.0449 -0.999 0.999 0.0449 -228.8593 1058.0859)" class="st7" width="11.5" height="4.97"/>
		
			<rect x="434.85" y="626.21" transform="matrix(0.0449 -0.999 0.999 0.0449 -207.2243 1040.6594)" class="st7" width="11.5" height="4.97"/>
		
			<rect x="435.89" y="605.55" transform="matrix(0.0449 -0.999 0.999 0.0449 -185.5893 1021.9536)" class="st7" width="11.5" height="4.97"/>
		<polygon class="st7" points="441.45,583.89 440.29,595.33 445.23,595.83 446.4,584.38 		"/>
		
			<rect x="507.26" y="729.88" transform="matrix(0.999 -0.0448 0.0448 0.999 -32.4709 23.5949)" class="st7" width="4.97" height="11.5"/>
		
			<rect x="506.29" y="710.42" transform="matrix(0.999 -0.0448 0.0448 0.999 -31.599 23.532)" class="st7" width="4.97" height="11.5"/>
		
			<rect x="505.25" y="690.65" transform="matrix(0.999 -0.0448 0.0448 0.999 -30.7139 23.4657)" class="st7" width="4.97" height="11.5"/>
		
			<rect x="503.55" y="669.88" transform="matrix(0.999 -0.0448 0.0448 0.999 -29.7841 23.3684)" class="st7" width="4.97" height="11.5"/>
		
			<rect x="502.52" y="650.4" transform="matrix(0.999 -0.0448 0.0448 0.999 -28.9117 23.3024)" class="st7" width="4.97" height="11.5"/>
		
			<rect x="500.81" y="630.37" transform="matrix(0.999 -0.0448 0.0448 0.999 -28.0155 23.2059)" class="st7" width="4.97" height="11.5"/>
		
			<rect x="499.78" y="609.7" transform="matrix(0.999 -0.0448 0.0448 0.999 -27.0899 23.1387)" class="st7" width="4.97" height="11.5"/>
		<polygon class="st7" points="502.45,591.31 503.61,602.75 498.67,603.25 497.51,591.81 		"/>
		<rect x="445.75" y="667.83" class="st7" width="12.24" height="4.94"/>
		<polygon class="st7" points="500.04,577.96 501.4,587.45 496.47,587.77 495.11,578.29 		"/>
	</g>
</g>
<g id="Layer_6">
	<g>
		<path class="st3" d="M397.37,1678.32h17.92l28.33,74.23H420.1l-2.46-6.68h-22.62l-2.46,6.68h-23.52L397.37,1678.32z
			 M411.37,1729.52l-5.04-13.02l-5.04,13.02H411.37z"/>
		<path class="st3" d="M503.41,1706.59c0,5.12-0.9,9.48-2.69,13.08c-1.79,3.6-4.24,6.51-7.33,8.74c-3.1,2.23-6.72,3.86-10.86,4.9
			c-4.14,1.04-8.61,1.56-13.38,1.56v17.7h-23.85v-74.23h23.85c4.78,0,9.24,0.52,13.38,1.56c4.14,1.04,7.76,2.67,10.86,4.9
			c3.1,2.23,5.54,5.14,7.33,8.74C502.52,1697.11,503.41,1701.47,503.41,1706.59z M469.15,1714.83h1.01c3.14,0,5.39-0.72,6.77-2.17
			c1.38-1.45,2.07-3.47,2.07-6.07c0-2.6-0.69-4.62-2.07-6.07c-1.38-1.45-3.64-2.17-6.77-2.17h-1.01V1714.83z"/>
		<path class="st3" d="M509.01,1678.32h25.75c4.78,0,9.2,0.63,13.27,1.89c4.07,1.26,7.6,3.12,10.58,5.56c2.99,2.45,5.32,5.47,7,9.07
			c1.68,3.6,2.52,7.73,2.52,12.41c0,3.71-0.52,6.86-1.57,9.46c-1.05,2.6-2.2,4.75-3.47,6.46c-1.49,1.93-3.17,3.56-5.04,4.9l14,24.48
			h-27.99l-11.2-18.81v18.81h-23.85V1678.32z M532.86,1714.83h1.23c2.84,0,5.24-0.63,7.22-1.89c1.98-1.26,2.97-3.38,2.97-6.34
			c0-2.97-0.99-5.08-2.97-6.34c-1.98-1.26-4.39-1.89-7.22-1.89h-1.23V1714.83z"/>
		<path class="st3" d="M574.29,1678.32h25.31v74.23h-25.31V1678.32z"/>
		<path class="st3" d="M607.43,1678.32h24.86v54.75h20.6v19.48h-45.46V1678.32z"/>
		<path class="st3" d="M691.31,1716.94c1.57-2.97,2.58-5.19,3.02-6.68c0.45-1.48,0.67-2.89,0.67-4.23c0-2.37-0.78-4.21-2.35-5.51
			c-1.57-1.3-3.85-1.95-6.83-1.95c-0.6,0-1.16,0.02-1.68,0.06c-0.52,0.04-1.01,0.09-1.46,0.17c-0.52,0.07-1.01,0.11-1.46,0.11
			v-20.59c1.04-0.22,1.98-0.41,2.8-0.56c0.82-0.15,1.62-0.26,2.41-0.33c0.78-0.07,1.6-0.13,2.46-0.17c0.86-0.04,1.85-0.06,2.97-0.06
			c3.58,0,7.11,0.39,10.58,1.17c3.47,0.78,6.59,2.06,9.35,3.84c2.76,1.78,5,4.16,6.72,7.12c1.72,2.97,2.58,6.6,2.58,10.91
			c0,2-0.22,3.99-0.67,5.95c-0.45,1.97-1.14,4.1-2.07,6.4c-0.93,2.3-2.13,4.88-3.58,7.73c-1.46,2.86-3.16,6.18-5.1,9.96l-1.46,2.78
			h14.11l-6.38,19.48h-43.45L691.31,1716.94z"/>
		<path class="st3" d="M737.22,1716.94c1.57-2.97,2.58-5.19,3.02-6.68c0.45-1.48,0.67-2.89,0.67-4.23c0-2.37-0.78-4.21-2.35-5.51
			c-1.57-1.3-3.85-1.95-6.83-1.95c-0.6,0-1.16,0.02-1.68,0.06c-0.52,0.04-1.01,0.09-1.46,0.17c-0.52,0.07-1.01,0.11-1.46,0.11
			v-20.59c1.04-0.22,1.98-0.41,2.8-0.56c0.82-0.15,1.62-0.26,2.41-0.33c0.78-0.07,1.6-0.13,2.46-0.17c0.86-0.04,1.85-0.06,2.97-0.06
			c3.58,0,7.11,0.39,10.58,1.17c3.47,0.78,6.59,2.06,9.35,3.84c2.76,1.78,5,4.16,6.72,7.12c1.72,2.97,2.58,6.6,2.58,10.91
			c0,2-0.22,3.99-0.67,5.95c-0.45,1.97-1.14,4.1-2.07,6.4c-0.93,2.3-2.13,4.88-3.58,7.73c-1.46,2.86-3.16,6.18-5.1,9.96l-1.46,2.78
			h14.11l-6.38,19.48H718.4L737.22,1716.94z"/>
		<path class="st3" d="M776.86,1733.97h21.28l-9.74,30.05h-19.04L776.86,1733.97z"/>
		<path class="st3" d="M838.44,1716.94c1.57-2.97,2.58-5.19,3.02-6.68c0.45-1.48,0.67-2.89,0.67-4.23c0-2.37-0.78-4.21-2.35-5.51
			c-1.57-1.3-3.85-1.95-6.83-1.95c-0.6,0-1.16,0.02-1.68,0.06c-0.52,0.04-1.01,0.09-1.46,0.17c-0.52,0.07-1.01,0.11-1.46,0.11
			v-20.59c1.04-0.22,1.98-0.41,2.8-0.56c0.82-0.15,1.62-0.26,2.41-0.33c0.78-0.07,1.6-0.13,2.46-0.17c0.86-0.04,1.85-0.06,2.97-0.06
			c3.58,0,7.11,0.39,10.58,1.17c3.47,0.78,6.59,2.06,9.35,3.84c2.76,1.78,5,4.16,6.72,7.12c1.72,2.97,2.58,6.6,2.58,10.91
			c0,2-0.22,3.99-0.67,5.95c-0.45,1.97-1.14,4.1-2.07,6.4c-0.93,2.3-2.13,4.88-3.58,7.73c-1.46,2.86-3.16,6.18-5.1,9.96l-1.46,2.78
			h14.11l-6.38,19.48h-43.45L838.44,1716.94z"/>
		<path class="st3" d="M931.39,1715.49c0,12.61-2.65,22.26-7.95,28.94c-5.3,6.68-12.69,10.02-22.17,10.02
			c-9.48,0-16.87-3.34-22.17-10.02c-5.3-6.68-7.95-16.32-7.95-28.94c0-12.61,2.65-22.26,7.95-28.94
			c5.3-6.68,12.69-10.02,22.17-10.02c9.48,0,16.87,3.34,22.17,10.02C928.73,1693.24,931.39,1702.88,931.39,1715.49z M908.43,1715.49
			c0-11.65-2.39-17.47-7.17-17.47c-4.78,0-7.17,5.83-7.17,17.47c0,11.65,2.39,17.47,7.17,17.47
			C906.04,1732.97,908.43,1727.14,908.43,1715.49z"/>
		<path class="st3" d="M944.04,1716.94c1.57-2.97,2.58-5.19,3.02-6.68c0.45-1.48,0.67-2.89,0.67-4.23c0-2.37-0.78-4.21-2.35-5.51
			c-1.57-1.3-3.85-1.95-6.83-1.95c-0.6,0-1.16,0.02-1.68,0.06c-0.52,0.04-1.01,0.09-1.46,0.17c-0.52,0.07-1.01,0.11-1.46,0.11
			v-20.59c1.04-0.22,1.98-0.41,2.8-0.56c0.82-0.15,1.62-0.26,2.41-0.33c0.78-0.07,1.6-0.13,2.46-0.17c0.86-0.04,1.85-0.06,2.97-0.06
			c3.58,0,7.11,0.39,10.58,1.17c3.47,0.78,6.59,2.06,9.35,3.84c2.76,1.78,5,4.16,6.72,7.12c1.72,2.97,2.58,6.6,2.58,10.91
			c0,2-0.22,3.99-0.67,5.95c-0.45,1.97-1.14,4.1-2.07,6.4c-0.93,2.3-2.13,4.88-3.58,7.73c-1.46,2.86-3.16,6.18-5.1,9.96l-1.46,2.78
			h14.11l-6.38,19.48h-43.45L944.04,1716.94z"/>
		<path class="st3" d="M977.3,1732.63c0.82,0.15,1.59,0.22,2.3,0.22c0.71,0,1.4,0,2.07,0c2.39,0,4.38-0.24,5.99-0.72
			c1.6-0.48,2.87-1.13,3.81-1.95c0.93-0.82,1.6-1.73,2.02-2.73c0.41-1,0.62-2.06,0.62-3.17c0-1.56-0.52-3.04-1.57-4.45
			c-1.05-1.41-2.35-2.69-3.92-3.84c-1.57-1.15-3.25-2.21-5.04-3.17c-1.79-0.96-3.4-1.78-4.82-2.45c1.27-0.82,2.54-1.67,3.81-2.56
			c1.27-0.89,2.41-1.8,3.42-2.73c1.01-0.93,1.81-1.84,2.41-2.73c0.6-0.89,0.9-1.74,0.9-2.56c0-1.33-0.5-2.24-1.51-2.73
			c-1.01-0.48-2.11-0.72-3.3-0.72c-0.97,0-1.89,0.06-2.74,0.17c-0.86,0.11-1.62,0.24-2.3,0.39c-0.82,0.22-1.53,0.41-2.13,0.56v-18.7
			c1.04-0.22,2.28-0.44,3.7-0.67c1.27-0.15,2.86-0.3,4.76-0.45c1.9-0.15,4.16-0.22,6.77-0.22c7.32,0,12.71,1.65,16.18,4.95
			c3.47,3.3,5.21,7.62,5.21,12.97c0,1.86-0.3,3.54-0.9,5.06c-0.6,1.52-1.27,2.84-2.02,3.95c-0.82,1.33-1.75,2.56-2.8,3.67
			c1.87,1.49,3.54,3.19,5.04,5.12c1.27,1.71,2.42,3.75,3.47,6.12c1.04,2.38,1.57,5.05,1.57,8.01c0,4.6-0.95,8.55-2.86,11.85
			c-1.9,3.3-4.46,6.01-7.67,8.12c-3.21,2.11-6.92,3.67-11.14,4.67c-4.22,1-8.6,1.5-13.16,1.5c-0.75,0-1.62,0-2.63,0
			s-2.18-0.04-3.53-0.11V1732.63z"/>
		<path class="st3" d="M549.82,1797.04h18.64v41.07h15.45v14.61h-34.1V1797.04z"/>
		<path class="st3" d="M603.49,1797.04h13.44l21.25,55.67h-17.64l-1.85-5.01h-16.96l-1.85,5.01h-17.64L603.49,1797.04z
			 M613.99,1835.44l-3.78-9.77l-3.78,9.77H613.99z"/>
		<path class="st3" d="M653.29,1839.36h6.13c1.79,0,2.99-0.33,3.61-1c0.62-0.67,0.92-1.61,0.92-2.84v-38.48h18.48v41.57
			c0,5.18-1.19,8.82-3.57,10.93c-2.38,2.12-6.17,3.17-11.38,3.17h-14.19V1839.36z"/>
		<path class="st3" d="M686.8,1824.92c0-4.01,0.77-7.79,2.31-11.35c1.54-3.56,3.64-6.66,6.3-9.31c2.66-2.64,5.78-4.73,9.36-6.26
			c3.58-1.53,7.39-2.3,11.42-2.3s7.84,0.77,11.42,2.3c3.58,1.53,6.7,3.62,9.36,6.26c2.66,2.64,4.76,5.75,6.3,9.31
			c1.54,3.56,2.31,7.34,2.31,11.35s-0.77,7.79-2.31,11.35c-1.54,3.56-3.64,6.67-6.3,9.31c-2.66,2.64-5.78,4.73-9.36,6.26
			c-3.58,1.53-7.39,2.29-11.42,2.29s-7.84-0.77-11.42-2.29c-3.58-1.53-6.71-3.62-9.36-6.26c-2.66-2.64-4.76-5.75-6.3-9.31
			C687.57,1832.71,686.8,1828.93,686.8,1824.92z M704.44,1824.92c0,1.61,0.31,3.13,0.92,4.55c0.62,1.42,1.46,2.66,2.52,3.71
			c1.06,1.06,2.31,1.89,3.74,2.5c1.43,0.61,2.95,0.92,4.58,0.92c1.62,0,3.15-0.3,4.58-0.92c1.43-0.61,2.67-1.45,3.74-2.5
			c1.06-1.06,1.9-2.3,2.52-3.71c0.62-1.42,0.92-2.93,0.92-4.55c0-1.61-0.31-3.13-0.92-4.55c-0.62-1.42-1.46-2.66-2.52-3.71
			c-1.06-1.06-2.31-1.89-3.74-2.5c-1.43-0.61-2.95-0.92-4.58-0.92c-1.62,0-3.15,0.31-4.58,0.92c-1.43,0.61-2.67,1.45-3.74,2.5
			c-1.06,1.06-1.9,2.3-2.52,3.71C704.74,1821.79,704.44,1823.31,704.44,1824.92z"/>
		<path class="st3" d="M750.21,1797.04h18.64v41.07h15.45v14.61h-34.1V1797.04z"/>
		<path class="st3" d="M787.24,1797.04h18.64v41.07h15.45v14.61h-34.1V1797.04z"/>
		<path class="st3" d="M840.91,1797.04h13.44l21.25,55.67h-17.64l-1.85-5.01h-16.96l-1.85,5.01h-17.64L840.91,1797.04z
			 M851.41,1835.44l-3.78-9.77l-3.78,9.77H851.41z"/>
		<path class="st3" d="M879.54,1838.78h15.96l-7.31,22.54h-14.28L879.54,1838.78z"/>
		<path class="st3" d="M915.4,1824.92c0-4.45,0.78-8.47,2.35-12.06c1.57-3.59,3.7-6.66,6.38-9.22c2.69-2.56,5.82-4.52,9.41-5.88
			c3.58-1.36,7.39-2.04,11.42-2.04c3.19,0,6.03,0.31,8.52,0.92c2.49,0.61,4.63,1.31,6.42,2.09c2.07,0.89,3.86,1.87,5.38,2.92
			l-8.82,15.44c-0.9-0.67-1.88-1.31-2.94-1.92c-0.95-0.44-2.09-0.88-3.4-1.29c-1.32-0.42-2.81-0.63-4.49-0.63
			c-1.74,0-3.33,0.31-4.79,0.92c-1.46,0.61-2.73,1.45-3.82,2.5c-1.09,1.06-1.95,2.3-2.56,3.71c-0.62,1.42-0.92,2.94-0.92,4.55
			c0,1.61,0.32,3.13,0.97,4.55c0.64,1.42,1.52,2.66,2.65,3.71c1.12,1.06,2.44,1.89,3.95,2.5c1.51,0.61,3.16,0.92,4.96,0.92
			c1.79,0,3.39-0.22,4.79-0.67c1.4-0.44,2.57-0.95,3.53-1.5c1.12-0.61,2.1-1.34,2.94-2.17l8.82,15.44c-1.51,1.22-3.3,2.31-5.38,3.25
			c-1.79,0.78-3.95,1.5-6.47,2.17c-2.52,0.67-5.4,1-8.65,1c-4.37,0-8.4-0.71-12.09-2.13c-3.7-1.42-6.89-3.41-9.57-5.97
			c-2.69-2.56-4.79-5.63-6.3-9.22C916.15,1833.23,915.4,1829.26,915.4,1824.92z"/>
		<path class="st3" d="M986.95,1797.04h13.44l21.25,55.67H1004l-1.85-5.01h-16.96l-1.85,5.01H965.7L986.95,1797.04z M997.45,1835.44
			l-3.78-9.77l-3.78,9.77H997.45z"/>
		<path class="st4" d="M514.38,1880.36h6.79l6.71,9.82l6.68-9.82h6.79v25.58h-8.22v-9.21l-5.25,7.67l-5.29-7.67v9.21h-8.22V1880.36z
			"/>
		<path class="st4" d="M543.48,1893.17c0-1.84,0.35-3.58,1.06-5.22c0.71-1.64,1.67-3.06,2.89-4.28c1.22-1.21,2.66-2.17,4.3-2.88
			c1.65-0.7,3.4-1.05,5.25-1.05c1.85,0,3.6,0.35,5.25,1.05c1.65,0.7,3.08,1.66,4.3,2.88c1.22,1.21,2.19,2.64,2.89,4.28
			c0.71,1.64,1.06,3.38,1.06,5.22c0,1.84-0.35,3.58-1.06,5.22c-0.71,1.64-1.67,3.06-2.89,4.28c-1.22,1.21-2.66,2.17-4.3,2.88
			c-1.65,0.7-3.4,1.05-5.25,1.05c-1.85,0-3.6-0.35-5.25-1.05c-1.65-0.7-3.08-1.66-4.3-2.88c-1.22-1.21-2.19-2.64-2.89-4.28
			C543.83,1896.75,543.48,1895.01,543.48,1893.17z M551.58,1893.17c0,0.74,0.14,1.44,0.42,2.09c0.28,0.65,0.67,1.22,1.16,1.71
			c0.49,0.49,1.06,0.87,1.72,1.15s1.36,0.42,2.1,0.42s1.45-0.14,2.1-0.42s1.23-0.67,1.72-1.15c0.49-0.49,0.87-1.05,1.16-1.71
			s0.42-1.35,0.42-2.09c0-0.74-0.14-1.44-0.42-2.09s-0.67-1.22-1.16-1.71c-0.49-0.49-1.06-0.87-1.72-1.15s-1.36-0.42-2.1-0.42
			s-1.45,0.14-2.1,0.42s-1.23,0.67-1.72,1.15c-0.49,0.49-0.88,1.05-1.16,1.71C551.72,1891.73,551.58,1892.43,551.58,1893.17z"/>
		<path class="st4" d="M572.61,1880.36h8.88c1.65,0,3.17,0.22,4.57,0.65c1.4,0.44,2.62,1.07,3.65,1.92s1.83,1.89,2.41,3.13
			s0.87,2.67,0.87,4.28c0,1.28-0.18,2.37-0.54,3.26c-0.36,0.89-0.76,1.64-1.2,2.22c-0.51,0.67-1.09,1.23-1.74,1.69l4.82,8.44h-9.65
			l-3.86-6.48v6.48h-8.22V1880.36z M580.83,1892.94h0.42c0.98,0,1.81-0.22,2.49-0.65c0.68-0.43,1.02-1.16,1.02-2.19
			s-0.34-1.75-1.02-2.19s-1.51-0.65-2.49-0.65h-0.42V1892.94z"/>
		<path class="st4" d="M595.11,1880.36h15.17v6.71h-6.95v2.84h6.83v6.37h-6.83v2.95h7.22v6.71h-15.44V1880.36z"/>
		<path class="st4" d="M620.58,1905.94v-25.58h7.14c2.42,0,4.57,0.27,6.46,0.8c1.89,0.54,3.49,1.34,4.79,2.42s2.29,2.41,2.97,4.01
			c0.68,1.6,1.02,3.45,1.02,5.54c0,2.1-0.34,3.94-1.02,5.54c-0.68,1.6-1.67,2.93-2.97,4.01c-1.3,1.07-2.89,1.89-4.79,2.44
			s-4.05,0.82-6.46,0.82H620.58z M628.8,1898.65c1.93,0,3.42-0.45,4.48-1.36c1.05-0.91,1.58-2.29,1.58-4.16
			c0-1.87-0.53-3.25-1.58-4.14c-1.05-0.9-2.55-1.34-4.48-1.34V1898.65z"/>
		<path class="st4" d="M645.09,1880.36h15.17v6.71h-6.95v2.84h6.83v6.37h-6.83v2.95h7.22v6.71h-15.44V1880.36z"/>
		<path class="st4" d="M666.23,1887.07h-4.75v-6.71h17.98v6.71h-4.75v18.87h-8.49V1887.07z"/>
		<path class="st4" d="M688.46,1880.36h6.17l9.76,25.58h-8.1l-0.85-2.3h-7.79l-0.85,2.3h-8.1L688.46,1880.36z M693.29,1898
			l-1.74-4.49l-1.74,4.49H693.29z"/>
		<path class="st4" d="M704.98,1880.36h8.72v25.58h-8.72V1880.36z"/>
		<path class="st4" d="M716.4,1880.36h8.57v18.87h7.1v6.71H716.4V1880.36z"/>
		<path class="st4" d="M732.73,1898c0.57,0.18,1.16,0.32,1.78,0.42c0.51,0.13,1.1,0.23,1.76,0.31c0.66,0.08,1.32,0.12,1.99,0.12
			c1.18,0,1.78-0.43,1.78-1.3c0-0.33-0.18-0.67-0.54-1.02c-0.36-0.34-0.82-0.73-1.37-1.15c-0.55-0.42-1.14-0.89-1.77-1.4
			c-0.63-0.51-1.22-1.1-1.78-1.76c-0.55-0.67-1.01-1.41-1.37-2.24c-0.36-0.83-0.54-1.78-0.54-2.86c0-1.2,0.22-2.26,0.66-3.18
			c0.44-0.92,1.04-1.69,1.81-2.3c0.77-0.61,1.68-1.08,2.72-1.4c1.04-0.32,2.15-0.48,3.34-0.48c0.62,0,1.24,0.03,1.85,0.1
			c0.62,0.06,1.17,0.12,1.66,0.17c0.57,0.08,1.12,0.15,1.66,0.23v7.17c-0.21-0.02-0.44-0.05-0.69-0.08
			c-0.21-0.03-0.44-0.05-0.69-0.08c-0.26-0.03-0.53-0.04-0.81-0.04c-0.15,0-0.35,0.01-0.58,0.02s-0.45,0.04-0.66,0.1
			c-0.21,0.05-0.39,0.14-0.54,0.27s-0.23,0.31-0.23,0.54c0,0.2,0.17,0.46,0.52,0.77c0.35,0.31,0.77,0.67,1.27,1.07
			c0.5,0.41,1.05,0.88,1.66,1.42s1.16,1.15,1.66,1.84s0.93,1.47,1.27,2.34c0.35,0.87,0.52,1.84,0.52,2.92
			c0,1.12-0.18,2.18-0.54,3.16s-0.92,1.84-1.68,2.57s-1.73,1.3-2.91,1.73c-1.18,0.42-2.59,0.63-4.21,0.63
			c-0.98,0-1.88-0.04-2.72-0.13s-1.58-0.2-2.22-0.33c-0.75-0.13-1.43-0.28-2.04-0.46V1898z"/>
		<path class="st4" d="M757.93,1893.17c0-2.05,0.36-3.89,1.08-5.54c0.72-1.65,1.7-3.06,2.93-4.24c1.24-1.18,2.68-2.08,4.32-2.7
			c1.65-0.63,3.4-0.94,5.25-0.94c1.47,0,2.77,0.14,3.92,0.42c1.14,0.28,2.13,0.6,2.95,0.96c0.95,0.41,1.77,0.86,2.47,1.34l-4.05,7.1
			c-0.41-0.31-0.86-0.6-1.35-0.88c-0.44-0.2-0.96-0.4-1.56-0.59c-0.6-0.19-1.29-0.29-2.06-0.29c-0.8,0-1.53,0.14-2.2,0.42
			s-1.25,0.67-1.76,1.15c-0.5,0.49-0.89,1.05-1.18,1.71c-0.28,0.65-0.42,1.35-0.42,2.09c0,0.74,0.15,1.44,0.44,2.09
			c0.29,0.65,0.7,1.22,1.21,1.71s1.12,0.87,1.81,1.15c0.69,0.28,1.45,0.42,2.28,0.42s1.56-0.1,2.2-0.31
			c0.64-0.2,1.18-0.43,1.62-0.69c0.51-0.28,0.96-0.61,1.35-1l4.05,7.1c-0.69,0.56-1.52,1.06-2.47,1.5c-0.82,0.36-1.81,0.69-2.97,1
			c-1.16,0.31-2.48,0.46-3.97,0.46c-2.01,0-3.86-0.33-5.56-0.98s-3.16-1.57-4.4-2.74c-1.23-1.18-2.2-2.59-2.89-4.24
			C758.27,1896.98,757.93,1895.16,757.93,1893.17z"/>
		<path class="st4" d="M781.62,1893.17c0-1.84,0.35-3.58,1.06-5.22c0.71-1.64,1.67-3.06,2.89-4.28c1.22-1.21,2.66-2.17,4.3-2.88
			c1.65-0.7,3.4-1.05,5.25-1.05c1.85,0,3.6,0.35,5.25,1.05c1.65,0.7,3.08,1.66,4.3,2.88c1.22,1.21,2.19,2.64,2.89,4.28
			c0.71,1.64,1.06,3.38,1.06,5.22c0,1.84-0.35,3.58-1.06,5.22c-0.71,1.64-1.67,3.06-2.89,4.28c-1.22,1.21-2.66,2.17-4.3,2.88
			c-1.65,0.7-3.4,1.05-5.25,1.05c-1.85,0-3.6-0.35-5.25-1.05c-1.65-0.7-3.08-1.66-4.3-2.88c-1.22-1.21-2.19-2.64-2.89-4.28
			C781.97,1896.75,781.62,1895.01,781.62,1893.17z M789.73,1893.17c0,0.74,0.14,1.44,0.42,2.09c0.28,0.65,0.67,1.22,1.16,1.71
			c0.49,0.49,1.06,0.87,1.72,1.15s1.36,0.42,2.1,0.42s1.45-0.14,2.1-0.42s1.23-0.67,1.72-1.15c0.49-0.49,0.87-1.05,1.16-1.71
			s0.42-1.35,0.42-2.09c0-0.74-0.14-1.44-0.42-2.09s-0.67-1.22-1.16-1.71c-0.49-0.49-1.06-0.87-1.72-1.15s-1.36-0.42-2.1-0.42
			s-1.45,0.14-2.1,0.42s-1.23,0.67-1.72,1.15c-0.49,0.49-0.88,1.05-1.16,1.71C789.87,1891.73,789.73,1892.43,789.73,1893.17z"/>
		<path class="st4" d="M810.76,1880.36h6.79l6.71,9.82l6.68-9.82h6.79v25.58h-8.22v-9.21l-5.25,7.67l-5.29-7.67v9.21h-8.22V1880.36z
			"/>
		<path class="st4" d="M840.43,1880.36h8.72v25.58h-8.72V1880.36z"/>
		<path class="st4" d="M851.86,1880.36h6.75l7.1,9.86v-9.86h8.07v25.58h-6.79l-7.06-9.82v9.82h-8.07V1880.36z"/>
		<path class="st4" d="M892.88,1889.06c-0.46-0.41-1.04-0.72-1.74-0.94c-0.7-0.22-1.38-0.33-2.05-0.33c-0.75,0-1.43,0.13-2.04,0.4
			s-1.15,0.64-1.6,1.11c-0.45,0.47-0.8,1.04-1.06,1.71c-0.26,0.67-0.39,1.38-0.39,2.15c0,0.77,0.14,1.48,0.42,2.15
			c0.28,0.67,0.67,1.23,1.16,1.71c0.49,0.47,1.06,0.84,1.72,1.11s1.36,0.4,2.1,0.4c0.88,0,1.67-0.19,2.39-0.56
			c0.72-0.37,1.34-0.88,1.85-1.51h-2.32v-5.37h9.92v8.51c-0.59,1.05-1.3,2-2.12,2.86c-0.82,0.86-1.74,1.59-2.76,2.21
			s-2.12,1.09-3.3,1.42c-1.18,0.33-2.41,0.5-3.67,0.5c-1.85,0-3.6-0.35-5.25-1.04s-3.08-1.64-4.3-2.84
			c-1.22-1.2-2.19-2.62-2.89-4.26c-0.71-1.64-1.06-3.4-1.06-5.29c0-1.84,0.33-3.58,1-5.22c0.67-1.64,1.59-3.06,2.76-4.28
			c1.17-1.21,2.56-2.17,4.17-2.88c1.61-0.7,3.34-1.05,5.19-1.05c1.44,0,2.69,0.14,3.74,0.42c1.05,0.28,1.94,0.6,2.66,0.96
			c0.85,0.41,1.56,0.86,2.12,1.34L892.88,1889.06z"/>
		<path class="st4" d="M910.4,1898c0.57,0.18,1.16,0.32,1.78,0.42c0.51,0.13,1.1,0.23,1.76,0.31c0.66,0.08,1.32,0.12,1.99,0.12
			c1.18,0,1.78-0.43,1.78-1.3c0-0.33-0.18-0.67-0.54-1.02c-0.36-0.34-0.82-0.73-1.37-1.15c-0.55-0.42-1.14-0.89-1.77-1.4
			c-0.63-0.51-1.22-1.1-1.78-1.76c-0.55-0.67-1.01-1.41-1.37-2.24c-0.36-0.83-0.54-1.78-0.54-2.86c0-1.2,0.22-2.26,0.66-3.18
			c0.44-0.92,1.04-1.69,1.81-2.3c0.77-0.61,1.68-1.08,2.72-1.4c1.04-0.32,2.15-0.48,3.34-0.48c0.62,0,1.24,0.03,1.85,0.1
			c0.62,0.06,1.17,0.12,1.66,0.17c0.57,0.08,1.12,0.15,1.66,0.23v7.17c-0.21-0.02-0.44-0.05-0.69-0.08
			c-0.21-0.03-0.44-0.05-0.69-0.08c-0.26-0.03-0.53-0.04-0.81-0.04c-0.15,0-0.35,0.01-0.58,0.02s-0.45,0.04-0.66,0.1
			c-0.21,0.05-0.39,0.14-0.54,0.27s-0.23,0.31-0.23,0.54c0,0.2,0.17,0.46,0.52,0.77c0.35,0.31,0.77,0.67,1.27,1.07
			c0.5,0.41,1.05,0.88,1.66,1.42s1.16,1.15,1.66,1.84s0.93,1.47,1.27,2.34c0.35,0.87,0.52,1.84,0.52,2.92
			c0,1.12-0.18,2.18-0.54,3.16s-0.92,1.84-1.68,2.57s-1.73,1.3-2.91,1.73c-1.18,0.42-2.59,0.63-4.21,0.63
			c-0.98,0-1.88-0.04-2.72-0.13s-1.58-0.2-2.22-0.33c-0.75-0.13-1.43-0.28-2.04-0.46V1898z"/>
		<path class="st4" d="M927.88,1893.17c0-1.84,0.35-3.58,1.06-5.22c0.71-1.64,1.67-3.06,2.89-4.28c1.22-1.21,2.66-2.17,4.3-2.88
			c1.65-0.7,3.4-1.05,5.25-1.05c1.85,0,3.6,0.35,5.25,1.05c1.65,0.7,3.08,1.66,4.3,2.88c1.22,1.21,2.19,2.64,2.89,4.28
			c0.71,1.64,1.06,3.38,1.06,5.22c0,1.84-0.35,3.58-1.06,5.22c-0.71,1.64-1.67,3.06-2.89,4.28c-1.22,1.21-2.66,2.17-4.3,2.88
			c-1.65,0.7-3.4,1.05-5.25,1.05c-1.85,0-3.6-0.35-5.25-1.05c-1.65-0.7-3.08-1.66-4.3-2.88c-1.22-1.21-2.19-2.64-2.89-4.28
			C928.23,1896.75,927.88,1895.01,927.88,1893.17z M935.98,1893.17c0,0.74,0.14,1.44,0.42,2.09c0.28,0.65,0.67,1.22,1.16,1.71
			c0.49,0.49,1.06,0.87,1.72,1.15s1.36,0.42,2.1,0.42s1.45-0.14,2.1-0.42s1.23-0.67,1.72-1.15c0.49-0.49,0.87-1.05,1.16-1.71
			s0.42-1.35,0.42-2.09c0-0.74-0.14-1.44-0.42-2.09s-0.67-1.22-1.16-1.71c-0.49-0.49-1.06-0.87-1.72-1.15s-1.36-0.42-2.1-0.42
			s-1.45,0.14-2.1,0.42s-1.23,0.67-1.72,1.15c-0.49,0.49-0.88,1.05-1.16,1.71C936.13,1891.73,935.98,1892.43,935.98,1893.17z"/>
		<path class="st4" d="M956.44,1893.17c0-1.84,0.35-3.58,1.06-5.22c0.71-1.64,1.67-3.06,2.89-4.28c1.22-1.21,2.66-2.17,4.3-2.88
			c1.65-0.7,3.4-1.05,5.25-1.05c1.85,0,3.6,0.35,5.25,1.05c1.65,0.7,3.08,1.66,4.3,2.88c1.22,1.21,2.19,2.64,2.89,4.28
			c0.71,1.64,1.06,3.38,1.06,5.22c0,1.84-0.35,3.58-1.06,5.22c-0.71,1.64-1.67,3.06-2.89,4.28c-1.22,1.21-2.66,2.17-4.3,2.88
			c-1.65,0.7-3.4,1.05-5.25,1.05c-1.85,0-3.6-0.35-5.25-1.05c-1.65-0.7-3.08-1.66-4.3-2.88c-1.22-1.21-2.19-2.64-2.89-4.28
			C956.79,1896.75,956.44,1895.01,956.44,1893.17z M964.54,1893.17c0,0.74,0.14,1.44,0.42,2.09c0.28,0.65,0.67,1.22,1.16,1.71
			c0.49,0.49,1.06,0.87,1.72,1.15s1.36,0.42,2.1,0.42s1.45-0.14,2.1-0.42s1.23-0.67,1.72-1.15c0.49-0.49,0.87-1.05,1.16-1.71
			s0.42-1.35,0.42-2.09c0-0.74-0.14-1.44-0.42-2.09s-0.67-1.22-1.16-1.71c-0.49-0.49-1.06-0.87-1.72-1.15s-1.36-0.42-2.1-0.42
			s-1.45,0.14-2.1,0.42s-1.23,0.67-1.72,1.15c-0.49,0.49-0.88,1.05-1.16,1.71C964.68,1891.73,964.54,1892.43,964.54,1893.17z"/>
		<path class="st4" d="M985.57,1880.36h6.75l7.1,9.86v-9.86h8.07v25.58h-6.79l-7.06-9.82v9.82h-8.07V1880.36z"/>
		<path class="st4" d="M1010,1880.36h8.8l-1.31,18.03h-6.17L1010,1880.36z M1010.27,1899.54h8.26v6.41h-8.26V1899.54z"/>
	</g>
</g>
<g id="Layer_5">
	<g>
		<path class="st1" d="M185.44,147.65c1.78,0.57,3.65,1.01,5.59,1.33c1.62,0.41,3.46,0.73,5.53,0.97s4.15,0.36,6.26,0.36
			c3.73,0,5.59-1.37,5.59-4.12c0-1.05-0.57-2.12-1.7-3.21c-1.14-1.09-2.57-2.3-4.32-3.64c-1.74-1.33-3.61-2.81-5.59-4.43
			c-1.99-1.62-3.85-3.48-5.59-5.58c-1.74-2.1-3.18-4.47-4.32-7.1c-1.14-2.63-1.7-5.64-1.7-9.04c0-3.8,0.69-7.16,2.07-10.07
			c1.38-2.91,3.28-5.34,5.71-7.28c2.43-1.94,5.29-3.42,8.57-4.43c3.28-1.01,6.79-1.52,10.52-1.52c1.94,0,3.89,0.1,5.83,0.3
			c1.94,0.2,3.69,0.38,5.23,0.55c1.78,0.24,3.52,0.49,5.23,0.73v22.69c-0.65-0.08-1.38-0.16-2.19-0.24
			c-0.65-0.08-1.38-0.16-2.19-0.24c-0.81-0.08-1.66-0.12-2.55-0.12c-0.49,0-1.09,0.02-1.82,0.06c-0.73,0.04-1.42,0.14-2.07,0.3
			c-0.65,0.16-1.22,0.45-1.7,0.85c-0.49,0.41-0.73,0.97-0.73,1.7c0,0.65,0.55,1.46,1.64,2.43c1.09,0.97,2.43,2.1,4.01,3.4
			c1.58,1.29,3.32,2.79,5.23,4.49c1.9,1.7,3.65,3.64,5.23,5.82c1.58,2.18,2.92,4.65,4.01,7.4c1.09,2.75,1.64,5.82,1.64,9.22
			c0,3.56-0.57,6.9-1.7,10.01c-1.14,3.11-2.9,5.82-5.29,8.13c-2.39,2.31-5.45,4.12-9.18,5.46c-3.73,1.33-8.14,2-13.25,2
			c-3.08,0-5.94-0.14-8.57-0.42c-2.63-0.28-4.96-0.63-6.99-1.03c-2.35-0.41-4.5-0.89-6.44-1.46V147.65z"/>
		<path class="st1" d="M266.4,91.85h19.45l30.75,80.92h-25.53l-2.67-7.28h-24.56l-2.67,7.28h-25.53L266.4,91.85z M281.6,147.65
			l-5.47-14.19l-5.47,14.19H281.6z"/>
		<path class="st1" d="M325.48,91.85l13.74,35.18l13.86-35.18h28.32l-31.61,80.92h-21.03l-31.61-80.92H325.48z"/>
		<path class="st1" d="M383.22,91.85h47.77v21.23h-21.88v8.98h21.52v20.14h-21.52v9.34h22.73v21.23h-48.62V91.85z"/>
		<path class="st1" d="M474.15,113.08H459.2V91.85h56.65v21.23h-14.95v59.69h-26.74V113.08z"/>
		<path class="st1" d="M520.1,91.85h25.89v27.54h14.47V91.85h26.01v80.92h-26.01V142.8h-14.47v29.96H520.1V91.85z"/>
		<path class="st1" d="M594.98,91.85h47.77v21.23h-21.88v8.98h21.52v20.14h-21.52v9.34h22.73v21.23h-48.62V91.85z"/>
		<path class="st1" d="M675.21,172.76V91.85h22.49c7.62,0,14.41,0.85,20.36,2.55c5.96,1.7,10.98,4.25,15.07,7.64
			c4.09,3.4,7.21,7.62,9.36,12.68c2.15,5.06,3.22,10.9,3.22,17.53c0,6.63-1.08,12.48-3.22,17.53c-2.15,5.06-5.27,9.28-9.36,12.68
			c-4.09,3.4-9.12,5.97-15.07,7.7c-5.96,1.74-12.74,2.61-20.36,2.61H675.21z M701.1,149.71c6.08,0,10.78-1.44,14.1-4.31
			c3.32-2.87,4.98-7.26,4.98-13.16c0-5.9-1.66-10.27-4.98-13.1c-3.32-2.83-8.02-4.25-14.1-4.25V149.71z"/>
		<path class="st1" d="M776.47,91.85h19.45l30.75,80.92h-25.53l-2.67-7.28h-24.56l-2.67,7.28h-25.53L776.47,91.85z M791.66,147.65
			l-5.47-14.19l-5.47,14.19H791.66z"/>
		<path class="st1" d="M839.19,113.08h-14.95V91.85h56.65v21.23h-14.95v59.69h-26.74V113.08z"/>
		<path class="st1" d="M885.14,91.85h47.77v21.23h-21.88v8.98h21.52v20.14h-21.52v9.34h22.73v21.23h-48.62V91.85z"/>
	</g>
</g>
<g id="Layer_7" class="st8">
	<rect x="173.13" y="2562.55" class="st9" width="762.87" height="142.21"/>
</g>
<g id="Layer_8" class="st8">
	<text transform="matrix(1 0 0 1 203.1044 2657.9739)" style="display:inline;"><tspan x="0" y="0" style="fill:#414042; font-family:'Phosphate-Solid'; font-size:61.23px;">eager be</tspan><tspan x="247.79" y="0" style="fill:#414042; font-family:'Phosphate-Solid'; font-size:61.23px; letter-spacing:-7;">a</tspan><tspan x="278.78" y="0" style="fill:#414042; font-family:'Phosphate-Solid'; font-size:61.23px;">vers rsvp </tspan><tspan x="572.74" y="0" style="fill:#414042; font-family:'Phosphate-Solid'; font-size:61.23px; letter-spacing:-1;">here</tspan></text>
</g>
</svg>
