<?xml version="1.0" encoding="utf-8"?>
<!-- Generator: Adobe Illustrator 27.3.1, SVG Export Plug-In . SVG Version: 6.00 Build 0)  -->
<svg version="1.1" xmlns="http://www.w3.org/2000/svg" xmlns:xlink="http://www.w3.org/1999/xlink" x="0px" y="0px"
	 viewBox="0 0 1125 2436" style="enable-background:new 0 0 1125 2436;" xml:space="preserve">
<style type="text/css">
	.st0{fill:#FFFEEE;}
	.st1{fill:#0D1128;}
	.st2{fill:#F499BB;}
	.st3{fill:#F4A263;}
	.st4{fill:#FAD066;}
	.st5{fill:#FFF5D4;}
	.st6{fill:#333333;}
	.st7{fill:#9DC38E;}
	.st8{fill:#FFECC5;}
	.st9{font-family:'Phosphate-Solid';}
	.st10{font-size:111.2906px;}
	.st11{font-size:83.4679px;}
	.st12{font-size:38.3543px;}
	.st13{font-size:121.3123px;}
</style>
<g id="Layer_4">
	<polyline class="st0" points="1038.4,271.42 1125,271.42 1125,2436 0,2436 0,1932.61 	"/>
	<polyline class="st1" points="0,1761.45 0,0 1125,0 	"/>
	<line class="st1" x1="-4.31" y1="1893.67" x2="-4.31" y2="1761.45"/>
	<line class="st1" x1="-4.31" y1="1992.97" x2="-4.31" y2="1893.67"/>
</g>
<g id="Layer_2">
	<polyline class="st2" points="1071.59,1787.09 470.44,1789.65 508.27,1742.61 1103.42,1742.23 	"/>
	<polyline class="st2" points="-0.76,1754.07 1073.19,-1.27 1162.78,-29.9 -0.2,1886.88 	"/>
	<line class="st3" x1="-0.2" y1="1886.88" x2="0" y2="1886.55"/>
	<line class="st3" x1="0" y1="2027.83" x2="-0.23" y2="2028.21"/>
	<polyline class="st3" points="0,1886.55 1159.65,-28.9 1252.59,-58.59 0,2027.83 	"/>
	<line class="st4" x1="0.14" y1="2139.08" x2="-7.58" y2="2151.84"/>
	<polyline class="st4" points="0,1993.11 1254.78,-62.98 1351.53,-93.9 0.14,2139.08 	"/>
</g>
<g id="Layer_3">
	<path id="BACKGROUND_00000167390569601682181960000008518085596809695141_" class="st5" d="M31.92,458.33l48.11,23.02l38.63,17.91
		c2.3,1.07,3.74,3.41,3.64,5.93L112.23,764.4c-0.14,3.56,2.73,6.52,6.31,6.52h220.99c3.42,0,6.21-2.7,6.31-6.1l1.05-36.33
		c0.1-3.55,3.14-6.3,6.7-6.08l10.22,0.63c0.12,0.01,0.24,0.01,0.36,0.01l13.83,0.06l347.2,0.97c3.24,0.01,5.97-2.43,6.3-5.63
		l4.08-39.27c0.32-3.11,2.91-5.52,6.05-5.63l40.49-1.44c3.49-0.12,6.21-3.04,6.08-6.5l-2.23-60.02c-0.12-3.16-2.58-5.74-5.75-6.02
		l-55.58-4.9c-4.7-0.41-7.3-5.62-4.79-9.59l46.49-73.64c0.63-1,0.97-2.16,0.97-3.34v-39.17c0-3.47,2.83-6.28,6.31-6.28h115.96
		c3.49,0,6.31-2.81,6.31-6.28V282.94c0-2.09-1.05-4.04-2.79-5.21l-43.66-29.17c-1.04-0.7-2.27-1.07-3.52-1.07h-316.8
		c-3.49,0-6.31-2.81-6.31-6.28v-26.5c0-2.85-1.93-5.34-4.71-6.07l-19.69-5.15c-0.52-0.14-1.05-0.2-1.59-0.21l-291.35-0.84
		c-1.35,0-2.67-0.44-3.75-1.24l-8.07-5.97c-1.12-0.83-2.49-1.27-3.88-1.24l-130.6,2.25c-1.54,0.03-3.02,0.61-4.15,1.64l-19.63,17.84
		"/>
	<path class="st6" d="M785.04,521.22"/>
	<path class="st6" d="M761.72,539.67"/>
	<g id="OUTIDE_00000101074180812505575420000002506026346642584487_">
		<polygon class="st7" points="59.48,449.73 55.66,435.56 53.22,390.64 53.22,315.32 53.22,296.32 54.61,267.64 56.35,239.31 
			59.48,217.88 77.21,213.39 103.63,210.28 129.01,210.28 153.35,210.28 175.25,212.01 184.98,213.39 191.24,215.46 195.07,272.82 
			196.46,328.45 196.46,383.39 196.46,419.67 195.07,432.45 193.33,446.27 191.24,451.8 163.08,453.18 95.64,453.18 		"/>
		<polygon class="st7" points="210.02,269 258.8,267.27 258.8,310.8 258.8,398.91 284.07,396.84 279.2,317.37 324.49,320.13 
			326.13,369.2 326.13,406.17 326.13,424.13 324.49,437.61 322.31,445.56 310.37,446.59 273.29,447.98 246.17,449.36 215.93,449.36 
			213.49,443.48 211.41,397.18 210.02,347.55 		"/>
		<polygon class="st7" points="278.85,267.27 281.28,305.28 342.12,305.28 344.21,342.59 346.3,370.92 348.03,396.15 349.7,426.21 
			351.51,451.43 399.14,453.18 397.75,409.28 397.4,371.62 396.7,350.19 395.15,323.24 395.15,303.2 417.91,301.48 416.17,275.22 
			416.17,266 		"/>
		<polygon class="st7" points="602.28,265.08 603.44,283.74 603.44,306.54 562.65,307.7 536.46,308.85 514.21,308.85 488.72,310 
			468.32,310.92 469.48,327.04 470.18,335.57 482.46,335.57 498.91,336.72 512.13,336.72 524.29,337.58 533.68,338.79 
			539.24,340.35 542.72,342.07 543.07,350.88 543.59,362.98 543.59,379.22 543.59,392.17 543.41,401.5 542.72,417.05 541.85,428.28 
			541.15,436.75 539.94,445.38 537.68,452.12 456.33,450.74 414.61,450.57 414.61,406.69 458.82,408.82 499.44,406.86 
			499.78,385.61 497.7,379.22 491.09,379.39 462.76,380.08 447.29,380.08 433.56,380.08 427.99,379.04 427.12,376.63 426.95,363.84 
			425.91,347.55 425.21,335.34 424.34,319.96 423.47,299.75 423.3,280.74 423.65,271.76 425.73,267.27 		"/>
		<polygon class="st7" points="555.93,319.1 605.99,317.72 607.38,349.85 608.84,378.18 608.84,403.4 608.84,432.43 608.84,446.25 
			608.84,453.18 584.09,452.12 565.66,452.12 555.93,449.01 555.93,412.04 555.93,382.33 		"/>
		<polygon class="st7" points="619.55,263.14 620.94,317.72 621.98,358.6 621.98,385.45 622.91,408.82 624.07,433.92 624.07,449.13 
			655.59,449.13 675.29,448.21 686.18,447.51 703.57,446.59 718.63,444.75 731.61,441.76 737.4,439.22 739.95,427.7 741.34,412.27 
			742.5,397.53 742.5,385.45 742.5,362.98 742.5,344.32 742.5,312.71 742.5,296.47 741.23,273.83 734.45,271.76 720.2,269.69 
			704.03,267.96 672.57,265.71 651.88,264.68 		"/>
		<polygon class="st7" points="751.83,446.59 850.57,447.63 850.57,399.08 829.18,399.08 797.03,399.08 795.29,377.66 
			825.19,376.97 847.09,375.93 847.09,359.35 847.26,340.17 808.33,340.17 792.86,340.17 792.33,324.63 792.16,315.81 
			809.02,316.68 817.36,316.68 833.36,316.68 845.87,316.85 847.26,291.97 848.83,265.89 837.53,265.89 823.62,265.89 
			803.28,266.58 790.77,266.58 778.6,267.1 770.61,267.62 760.18,267.62 751.83,267.79 751.83,272.97 		"/>
	</g>
	<g id="BIRTHDAY_FESTIVAL_00000056428083484246487730000015438213068965651075_">
		<polygon class="st3" points="324.12,673.74 324.12,705.25 348.9,705.11 344.29,689.49 349.05,671.87 		"/>
		<polygon class="st3" points="364,673.74 364,705.25 372.33,705.25 372.94,695.07 377.75,705.25 385.06,705.25 380.21,693.67 
			385.06,693.36 384.5,672.87 		"/>
		<polygon class="st3" points="408.64,673.57 415.06,670.14 416.44,685.8 424.24,689.23 424.24,673.57 432.04,673.57 432.04,704.89 
			423.78,704.89 422.73,696.47 415.98,696.38 416.99,704.89 408.64,704.89 		"/>
		<polygon class="st3" points="435.32,671.87 435.32,705.15 454.53,697.25 454.53,691.89 453.6,687.68 451.64,683.84 448.03,679.67 
			443.46,675.68 		"/>
		<polygon class="st3" points="478.4,672.91 491.67,689.01 491.67,705.11 500.2,705.11 500.2,687.7 507.1,672.91 498.39,672.91 
			494.57,679.39 487,672.91 		"/>
		<polygon class="st3" points="524.64,671.87 524.64,705.11 536.46,705.11 535.14,691.74 544.11,691.56 544.11,684.69 
			533.11,678.95 544.11,679.3 544.11,671.87 		"/>
		<polygon class="st3" points="547.24,671.87 547.24,705.76 570.36,705.76 570.36,696.75 555.24,696.23 566.19,688.81 
			557.32,681.03 570.36,681.2 571.05,673.22 		"/>
		<polygon class="st3" points="574.01,671.87 574.01,687.64 586.87,694.51 574.01,695.07 574.01,705.76 597.17,705.25 597.17,685.6 
			582.53,681.37 596.26,681.2 595.91,671.87 		"/>
		<polygon class="st3" points="599.38,671.87 599.38,680.59 604.03,680.59 604.03,704.35 614.51,705.11 614.51,680.16 
			619.38,680.16 619.38,671.87 		"/>
		<polygon class="st3" points="621.77,672.91 621.29,705.11 629.46,705.11 629.46,672.91 		"/>
		<polygon class="st3" points="656.92,672.91 654.14,694.51 652.4,704.35 636.76,705.11 631.72,672.91 639.19,672.91 644.32,689.01 
			645.28,691.74 649.97,671.87 		"/>
		<polygon class="st3" points="659.01,671.87 659.01,705.76 668.92,705.11 668.23,694.51 672.78,694.51 676.48,705.11 
			683.08,705.11 681.95,688.49 680.39,671.87 		"/>
		<polygon class="st3" points="684.56,671.87 684.56,705.11 701.6,705.11 701.6,695.54 694.12,695.37 693.77,671.87 		"/>
		<polygon class="st3" points="456.63,671.49 456.63,705.38 466.54,704.72 465.85,694.12 470.4,694.12 474.1,704.72 480.7,704.72 
			479.57,688.1 478.01,671.49 		"/>
		<polygon class="st3" points="386.85,672.87 386.85,681.59 391.5,681.59 391.5,705.35 401.98,706.11 401.98,681.17 406.85,681.17 
			406.85,672.87 		"/>
		<polygon class="st3" points="352.85,672.96 352.36,705.16 360.54,705.16 360.54,672.96 		"/>
	</g>
	<g id="MANZ_00000058547729479975439980000010635427223025610637_">
		<polygon class="st2" points="358.29,658.57 340.73,657.88 317.44,656.85 317.44,646.82 317.44,628.34 317.44,611.23 
			317.44,585.15 318.31,556.87 319,533.84 319.35,506.54 320.74,479.94 321.96,466.63 337.86,465.94 357.59,465.94 381.41,465.94 
			402.27,465.94 413.04,465.94 416.17,478.38 417.22,488.26 419.48,505.64 421.04,520.08 427.12,583.43 429.21,606.57 430.08,619.7 
			431.64,641.46 433.21,656.85 432.51,658.57 391.14,658.57 385.75,604.67 364.2,605.01 361.94,605.19 360.55,616.59 360.03,628.16 
			359.16,645.27 		"/>
		<polygon class="st2" points="483.62,658.57 463.28,658.57 439.99,658.57 439.99,603.8 439.99,572.36 439.99,537.46 439.99,512.41 
			439.99,493.76 439.99,476.31 439.99,468.02 442.6,466.81 446.07,465.94 450.01,465.48 453.95,465.48 472.15,465.48 487.44,465.48 
			489.64,469.28 491.73,475.16 494.63,483.68 496.94,492.43 499.38,500.84 509.03,535.91 516.12,564.59 515.25,532.45 
			515.25,509.03 515.25,482.01 514.73,468.02 533.16,467.15 559.93,465.94 560.97,491.16 561.84,514.14 562.54,532.4 562.54,543.22 
			563.81,572.13 564.62,591.25 564.62,604.03 565.08,616.36 565.9,633.4 566.36,644.92 567.17,656.55 511.31,657.82 507.95,655.86 
			496.37,627.64 488.14,612.79 485.94,608.99 483.15,605.42 482.81,607.49 		"/>
		<path class="st2" d="M716.4,465.94l-140.34-0.2c-0.93,0-1.69,0.75-1.69,1.68v36.52c0,0.92,0.75,1.68,1.68,1.68l68.84,0.38
			c1.34,0.01,2.14,1.48,1.41,2.59l-50.71,77.96l-17.48,24.43c-0.21,0.29-0.31,0.63-0.31,0.98l0.15,31.64c0,0.08,0.01,0.17,0.02,0.25
			l1.93,12.27c0.13,0.8,0.81,1.4,1.63,1.42l56.39,1.24l116.92,2.57c0.91,0.02,1.67-0.68,1.73-1.59l2.27-40.17
			c0.06-0.98-0.74-1.79-1.72-1.77l-79.59,1.49h-32.86c-1.18,0-2-1.17-1.59-2.27l4.49-12.02c0.05-0.12,0.1-0.24,0.18-0.35
			l68.61-102.49C716.75,498.44,716.6,466.45,716.4,465.94L716.4,465.94z"/>
		<path class="st2" d="M146.77,465.16l45.9,0.67c1.11,0.02,2.06,0.78,2.3,1.86l20.31,90.04c0.56,2.48,4.11,2.48,4.67,0l10.49-46.51
			l10.55-46.78c0.03-0.14,0.07-0.27,0.13-0.4l0,0c0.37-0.88,1.24-1.45,2.2-1.45H299c1.05,0,1.97,0.67,2.28,1.67l0.17,0.54
			c0.07,0.23,0.11,0.47,0.11,0.71l0.01,18.24v63.39l-0.28,33.56l-0.28,67.7l-0.15,47.37l0.15,31.73l-0.14,24.28
			c-0.01,1.32-1.09,2.38-2.41,2.36l-19.97-0.16l-29.92,0.16c-1.31,0.01-2.38-1.04-2.41-2.34l-0.53-31l-2.76-67.41l-0.05-2.34
			c-0.05-2.12-2.66-3.13-4.13-1.59l-20.9,21.86c-0.98,1.02-2.63,0.98-3.55-0.09l-20.52-23.8c-1.44-1.67-4.19-0.67-4.21,1.53
			l-0.44,55.4v25.57l-0.38,21.89c-0.02,1.3-1.09,2.34-2.39,2.34h-17.6h-24.91H137c-1.35,0-2.44-1.12-2.39-2.46l0.08-2.24l0.45-12.91
			l0.98-27.86l2.45-64.45l2.05-63.55l1.76-50.02l1.41-41.05l0.52-21.93c0-0.12,0.01-0.24,0.04-0.36l0.03-0.19
			C144.58,465.98,145.59,465.15,146.77,465.16z"/>
	</g>
	<g id="SAN_DIEGO_00000070841491124645131900000015231595968041997189_">
		<polygon class="st4" points="235.74,218.21 210.88,219.07 211.58,236 224.27,241.36 226.01,242.57 211.93,242.57 211.58,254.83 
			236.44,254.83 236.44,235.14 222.7,229.09 220.97,228.05 235.22,228.23 		"/>
		<polygon class="st4" points="239.39,218.21 239.39,254.83 249.65,254.14 249.65,242.57 253.65,242.22 257.99,253.79 
			265.47,253.97 264.77,218.21 		"/>
		<polygon class="st4" points="268.07,218.21 268.07,254.14 281.63,254.14 276.42,238.07 285.46,254.14 296.58,254.14 
			295.36,218.21 282.33,218.21 285.8,229.44 287.02,232.72 277.98,219.07 		"/>
		<polygon class="st4" points="324.49,215.73 324.49,256.33 349.7,246.11 349.7,238.25 346.55,230.99 342.36,226.12 336.4,221.57 		
			"/>
		<rect x="353.34" y="217.8" class="st4" width="9.09" height="36.45"/>
		<polygon class="st4" points="368.82,217.8 368.82,254.25 395.15,254.25 387.67,244.64 392.4,237.63 385.41,231.85 395.15,217.8 		
			"/>
		<polygon class="st4" points="422.64,213.31 422.64,224.04 411.86,228.39 413.48,242.81 417.25,233.75 422.98,241.48 
			424.93,254.19 401.49,254.19 401.49,220.02 		"/>
		<polygon class="st4" points="431.36,215.73 431.36,254.19 455.11,254.19 455.98,252.24 455.98,215.73 		"/>
		<polygon class="st4" points="453.89,207.67 453.89,214.06 458.59,214.75 459.63,226.15 464.84,214.41 464.84,207.67 		"/>
		<polygon class="st4" points="466.41,215.73 466.41,233.24 480.58,239.63 467.28,239.63 466.41,254.19 492.48,252.85 
			492.48,231.68 478.06,226.15 491.61,226.15 492.48,215.73 		"/>
	</g>
	<g id="INSIDE_00000132079288495951733180000014322914154423729547_">
		<polygon class="st5" points="111.98,265.89 111.98,387.86 129.16,390.27 129.16,263.14 		"/>
		<polygon class="st5" points="668.49,310.61 668.49,404.59 690.85,402.86 688.05,310.61 671.19,310.61 		"/>
		<polygon class="st5" points="363.34,528.92 363.34,565.12 380.72,565.12 378.99,528.12 		"/>
		<polygon class="st5" points="331.47,228.67 331.47,244.3 337.1,228.67 		"/>
		<polygon class="st5" points="439.34,224.23 439.34,247.43 447.16,247.43 		"/>
		<polygon class="st5" points="250.35,230.97 250.35,236.49 253.25,236.49 		"/>
		<polygon class="st5" points="332.01,679.07 332.01,684.01 336.36,679.07 		"/>
		<polygon class="st5" points="332.27,695.35 332.27,699.8 337.94,699.8 		"/>
		<polygon class="st5" points="369.29,678.31 369.74,686.43 377.65,681.54 		"/>
		<polygon class="st5" points="439.3,684.75 439.3,695.91 444.94,684.75 		"/>
		<polyline class="st5" points="669.19,682.9 669.19,688.43 672.14,688.43 		"/>
		<polyline class="st5" points="467.19,681.99 467.19,687.52 470.14,687.52 		"/>
	</g>
	<g id="ANTS_00000088827074322139528290000015312008385175677611_">
		<rect x="158.2" y="741.99" class="st8" width="4.97" height="12.16"/>
		<rect x="158.2" y="719.5" class="st8" width="4.97" height="12.16"/>
		<rect x="158.2" y="697.02" class="st8" width="4.97" height="12.16"/>
		<rect x="158.2" y="674.54" class="st8" width="4.97" height="12.16"/>
		<rect x="160.68" y="652.06" class="st8" width="4.97" height="12.16"/>
		<rect x="163.17" y="629.58" class="st8" width="4.97" height="12.16"/>
		<rect x="163.17" y="607.1" class="st8" width="4.97" height="12.16"/>
		<rect x="163.17" y="584.62" class="st8" width="4.97" height="12.16"/>
		<rect x="163.17" y="562.13" class="st8" width="4.97" height="12.16"/>
		<rect x="163.17" y="539.65" class="st8" width="4.97" height="12.16"/>
		<rect x="163.33" y="517.19" class="st8" width="4.97" height="12.16"/>
		<rect x="163.33" y="494.74" class="st8" width="4.97" height="12.16"/>
		<polygon class="st8" points="177.2,503.98 179.68,515.89 184.54,514.89 182.06,502.98 		"/>
		<polygon class="st8" points="230.76,612.7 226.05,623.92 230.63,625.82 235.34,614.6 		"/>
		<rect x="163.5" y="482.26" class="st8" width="4.97" height="5.85"/>
		<polygon class="st8" points="222.69,629.47 219.61,634.72 223.9,637.21 226.98,631.96 		"/>
		<polygon class="st8" points="171.74,483.73 174.91,495.48 179.71,494.2 176.54,482.45 		"/>
		<polygon class="st8" points="182.61,524.67 185.78,536.41 190.58,535.14 187.41,523.39 		"/>
		<polygon class="st8" points="189.09,546.58 192.26,558.33 197.06,557.05 193.89,545.3 		"/>
		<polygon class="st8" points="195.49,568.49 198.65,580.24 203.45,578.96 200.29,567.22 		"/>
		<polygon class="st8" points="201.18,592.41 204.34,604.16 209.14,602.88 205.97,591.13 		"/>
		<polygon class="st8" points="238.09,590.65 234.15,602.17 238.86,603.76 242.79,592.24 		"/>
		<polygon class="st8" points="248.95,546.28 245.81,558.04 250.61,559.3 253.75,547.55 		"/>
		<rect x="272.48" y="741.99" class="st8" width="4.97" height="12.16"/>
		<rect x="272.48" y="721.35" class="st8" width="4.97" height="12.16"/>
		<rect x="272.48" y="699.17" class="st8" width="4.97" height="12.16"/>
		<rect x="272.52" y="675.46" class="st8" width="4.97" height="12.16"/>
		<rect x="272.48" y="651.76" class="st8" width="4.97" height="12.16"/>
		<rect x="274.96" y="629.58" class="st8" width="4.97" height="12.16"/>
		<rect x="275.01" y="605.32" class="st8" width="4.97" height="12.16"/>
		<rect x="274.96" y="581.06" class="st8" width="4.97" height="12.16"/>
		<rect x="274.96" y="556.8" class="st8" width="4.97" height="12.16"/>
		<rect x="275.01" y="532.54" class="st8" width="4.97" height="12.16"/>
		<rect x="275.01" y="506.9" class="st8" width="4.97" height="12.16"/>
		<rect x="274.96" y="485.37" class="st8" width="4.97" height="12.16"/>
		<polygon class="st8" points="255.74,523.36 252.01,534.94 256.74,536.44 260.47,524.86 		"/>
		<polygon class="st8" points="76.35,412.18 78.39,417.92 83.07,416.27 81.03,410.54 		"/>
		<rect x="73.87" y="390.27" class="st8" width="4.97" height="12.16"/>
		<rect x="73.87" y="368.43" class="st8" width="4.97" height="12.16"/>
		<rect x="73.87" y="344.71" class="st8" width="4.97" height="12.16"/>
		<rect x="73.87" y="321.6" class="st8" width="4.97" height="12.16"/>
		<rect x="75.76" y="298.79" class="st8" width="4.97" height="12.16"/>
		<rect x="76.35" y="275.99" class="st8" width="4.97" height="12.16"/>
		<polygon class="st8" points="79.62,253.09 76.98,264.97 81.83,266.03 84.47,254.16 		"/>
		<polygon class="st8" points="91,239.99 84.47,243.91 86.9,247.9 93.43,243.98 		"/>
		<polygon class="st8" points="92.47,421.65 85.6,418.38 83.56,422.58 90.43,425.86 		"/>
		
			<rect x="102.91" y="418.71" transform="matrix(0.039 -0.9992 0.9992 0.039 -323.2321 513.539)" class="st8" width="4.94" height="12.24"/>
		
			<rect x="124.27" y="418.71" transform="matrix(0.0206 -0.9998 0.9998 0.0206 -300.6047 542.7872)" class="st8" width="4.94" height="12.24"/>
		
			<rect x="141.76" y="421.31" transform="matrix(0.0206 -0.9998 0.9998 0.0206 -283.4236 560.2165)" class="st8" width="4.94" height="6.92"/>
		<polygon class="st8" points="157.52,410.62 152.17,421.55 156.63,423.72 161.99,412.78 		"/>
		<rect x="158.8" y="390.27" class="st8" width="4.97" height="12.16"/>
		<rect x="158.8" y="368.43" class="st8" width="4.97" height="12.16"/>
		<rect x="158.8" y="344.71" class="st8" width="4.97" height="12.16"/>
		<rect x="158.8" y="321.6" class="st8" width="4.97" height="12.16"/>
		<rect x="158.8" y="295.52" class="st8" width="4.97" height="12.16"/>
		<rect x="158.8" y="271.42" class="st8" width="4.97" height="12.16"/>
		<rect x="158.8" y="247.01" class="st8" width="4.97" height="12.16"/>
		<polygon class="st8" points="161.27,239.72 156.61,233.73 152.89,236.58 157.55,242.57 		"/>
		<polygon class="st8" points="110.34,232.15 98.79,236.16 100.43,240.82 111.98,236.81 		"/>
		
			<rect x="124.27" y="227.61" transform="matrix(0.0169 -0.9999 0.9999 0.0169 -109.0947 356.5044)" class="st8" width="4.94" height="12.24"/>
		<polygon class="st8" points="149.14,231.98 141.6,230.86 140.91,235.48 148.45,236.59 		"/>
		<polygon class="st8" points="243.76,568.68 240.57,580.43 245.37,581.71 248.56,569.97 		"/>
		<polygon class="st8" points="213.05,630.35 218.72,641.13 223.13,638.84 217.45,628.06 		"/>
		<polygon class="st8" points="206.43,613.09 210.62,624.52 215.28,622.83 211.09,611.4 		"/>
		<polygon class="st8" points="261.6,499.89 257.87,511.48 262.61,512.98 266.33,501.4 		"/>
		<polygon class="st8" points="266.43,483.98 263.78,492.2 268.51,493.7 271.16,485.49 		"/>
		<rect x="231.47" y="267.27" class="st8" width="4.97" height="12.16"/>
		<rect x="231.47" y="288.15" class="st8" width="4.97" height="12.16"/>
		<rect x="231.47" y="307.68" class="st8" width="4.97" height="12.16"/>
		<rect x="231.47" y="329.76" class="st8" width="4.97" height="12.16"/>
		<rect x="231.47" y="352.23" class="st8" width="4.97" height="12.16"/>
		<rect x="231.47" y="376.15" class="st8" width="4.97" height="12.16"/>
		<rect x="231.47" y="400.1" class="st8" width="4.97" height="12.16"/>
		<polygon class="st8" points="233.34,421.1 238.7,426.54 242.24,423.08 236.88,417.64 		"/>
		
			<rect x="250.78" y="419.74" transform="matrix(2.536872e-03 -1 1 2.536872e-03 -173.2494 678.0304)" class="st8" width="4.94" height="12.24"/>
		
			<rect x="268.69" y="419.74" transform="matrix(2.536872e-03 -1 1 2.536872e-03 -155.389 695.9362)" class="st8" width="4.94" height="12.24"/>
		
			<rect x="286.95" y="421.65" transform="matrix(2.536982e-03 -1 1 2.536982e-03 -137.1746 714.191)" class="st8" width="4.94" height="8.42"/>
		<polygon class="st8" points="301.47,425.24 306.24,414.04 301.66,412.12 296.89,423.32 		"/>
		<rect x="301.81" y="394.02" class="st8" width="4.97" height="12.16"/>
		<rect x="301.81" y="372.21" class="st8" width="4.97" height="12.16"/>
		<rect x="301.81" y="350.26" class="st8" width="4.97" height="12.16"/>
		<rect x="301.81" y="328.78" class="st8" width="4.97" height="12.16"/>
		<rect x="279.69" y="281.8" class="st8" width="5.5" height="4.94"/>
		<rect x="290.77" y="281.8" class="st8" width="12.24" height="4.94"/>
		<rect x="312.25" y="281.8" class="st8" width="12.24" height="4.94"/>
		<rect x="334.29" y="281.8" class="st8" width="12.24" height="4.94"/>
		<rect x="356.31" y="281.8" class="st8" width="12.24" height="4.94"/>
		<rect x="399.8" y="281.8" class="st8" width="12.24" height="4.94"/>
		<rect x="366.34" y="291.76" class="st8" width="4.97" height="12.16"/>
		<rect x="366.34" y="312.84" class="st8" width="4.97" height="12.16"/>
		<rect x="366.87" y="334.86" class="st8" width="4.97" height="12.16"/>
		<rect x="367.72" y="356.34" class="st8" width="4.97" height="12.16"/>
		<rect x="368.82" y="396.69" class="st8" width="4.97" height="12.16"/>
		<rect x="369.35" y="417.29" class="st8" width="4.97" height="12.16"/>
		<rect x="370.21" y="435.27" class="st8" width="4.97" height="12.16"/>
		<rect x="368.82" y="377.06" class="st8" width="4.97" height="12.16"/>
		<rect x="379.84" y="281.8" class="st8" width="12.24" height="4.94"/>
		<rect x="594.61" y="281.64" class="st8" width="8.75" height="4.94"/>
		<rect x="572.59" y="281.64" class="st8" width="12.24" height="4.94"/>
		<rect x="549.81" y="281.64" class="st8" width="12.24" height="4.94"/>
		<rect x="526.96" y="281.8" class="st8" width="12.24" height="4.94"/>
		<rect x="504.65" y="281.8" class="st8" width="12.24" height="4.94"/>
		<rect x="482.34" y="281.64" class="st8" width="12.24" height="4.94"/>
		<rect x="460.29" y="281.64" class="st8" width="12.24" height="4.94"/>
		<polygon class="st8" points="454.05,282.62 446.93,289.02 450.49,292.93 457.61,286.53 		"/>
		
			<rect x="443.83" y="296.06" transform="matrix(0.9996 -0.0284 0.0284 0.9996 -8.3862 12.7908)" class="st8" width="4.97" height="11.43"/>
		<rect x="444.67" y="312.87" class="st8" width="4.97" height="12.16"/>
		<rect x="444.67" y="333.23" class="st8" width="4.97" height="12.16"/>
		<polygon class="st8" points="456.16,355.28 449.96,348.51 446.29,351.84 452.49,358.6 		"/>
		<rect x="460.29" y="356.13" class="st8" width="12.24" height="4.94"/>
		<rect x="479.45" y="356.13" class="st8" width="12.24" height="4.94"/>
		<polygon class="st8" points="520.9,362.9 515.59,357.05 511.9,360.37 517.22,366.21 		"/>
		
			<rect x="515.92" y="372.39" transform="matrix(9.720312e-03 -1 1 9.720312e-03 142.0658 893.2016)" class="st8" width="12.16" height="4.97"/>
		
			<rect x="516.42" y="391.22" transform="matrix(9.720312e-03 -1 1 9.720312e-03 123.7364 912.3527)" class="st8" width="12.16" height="4.97"/>
		
			<rect x="516.42" y="409.83" transform="matrix(9.720312e-03 -1 1 9.720312e-03 105.1253 930.7838)" class="st8" width="12.16" height="4.97"/>
		<polygon class="st8" points="516.33,430.85 522.44,425.32 519.1,421.67 512.99,427.2 		"/>
		
			<rect x="498.25" y="422.67" transform="matrix(9.601271e-03 -1 1 9.601271e-03 67.1439 925.3628)" class="st8" width="4.94" height="12.24"/>
		
			<rect x="478.84" y="422.67" transform="matrix(9.601271e-03 -1 1 9.601271e-03 47.9192 905.9526)" class="st8" width="4.94" height="12.24"/>
		
			<rect x="457.92" y="422.06" transform="matrix(9.601271e-03 -1 1 9.601271e-03 27.806 884.4376)" class="st8" width="4.94" height="12.24"/>
		
			<rect x="439.33" y="422.06" transform="matrix(9.601271e-03 -1 1 9.601271e-03 9.3908 865.8448)" class="st8" width="4.94" height="12.24"/>
		
			<rect x="421.59" y="422.06" transform="matrix(9.601271e-03 -1 1 9.601271e-03 -8.1794 848.105)" class="st8" width="4.94" height="12.24"/>
		<rect x="496.49" y="356.13" class="st8" width="12.24" height="4.94"/>
		<rect x="579.9" y="317.72" class="st8" width="4.97" height="12.16"/>
		<rect x="579.9" y="336.79" class="st8" width="4.97" height="12.16"/>
		<rect x="579.9" y="357.05" class="st8" width="4.97" height="12.16"/>
		<rect x="579.9" y="376.6" class="st8" width="4.97" height="12.16"/>
		<rect x="579.9" y="396.67" class="st8" width="4.97" height="12.16"/>
		<rect x="579.9" y="417.41" class="st8" width="4.97" height="12.16"/>
		<rect x="579.9" y="436.96" class="st8" width="4.97" height="12.16"/>
		<rect x="642.52" y="284.11" class="st8" width="4.97" height="10.79"/>
		<rect x="642.13" y="300.04" class="st8" width="4.97" height="12.16"/>
		<rect x="642.13" y="320.13" class="st8" width="4.97" height="12.16"/>
		<rect x="642.13" y="341.95" class="st8" width="4.97" height="12.16"/>
		<rect x="642.13" y="362.71" class="st8" width="4.97" height="12.16"/>
		<rect x="642.13" y="383.55" class="st8" width="4.97" height="12.16"/>
		<rect x="645.37" y="424.64" class="st8" width="5.73" height="4.94"/>
		<rect x="673.55" y="425.55" class="st8" width="12.24" height="4.94"/>
		
			<rect x="642.88" y="401.9" transform="matrix(1 -3.413147e-03 3.413147e-03 1 -1.3887 2.2051)" class="st8" width="4.97" height="12.16"/>
		<rect x="717.45" y="300.04" class="st8" width="4.97" height="12.16"/>
		<rect x="717.45" y="317.72" class="st8" width="4.97" height="12.16"/>
		<rect x="717.45" y="334.64" class="st8" width="4.97" height="12.16"/>
		<rect x="717.45" y="351.52" class="st8" width="4.97" height="12.16"/>
		<rect x="717.45" y="368.79" class="st8" width="4.97" height="12.16"/>
		<rect x="717.45" y="386.49" class="st8" width="4.97" height="12.16"/>
		<rect x="717.45" y="404.59" class="st8" width="4.97" height="12.16"/>
		<rect x="691.69" y="425.55" class="st8" width="12.24" height="4.94"/>
		<polygon class="st8" points="709.66,429.77 719.16,423.65 716.46,419.51 706.96,425.62 		"/>
		<rect x="645" y="281.64" class="st8" width="15.76" height="4.94"/>
		<rect x="667.36" y="281.64" class="st8" width="12.24" height="4.94"/>
		<rect x="687.07" y="281.64" class="st8" width="12.24" height="4.94"/>
		<polygon class="st8" points="713.06,283.42 704.36,281.64 703.36,286.47 712.06,288.26 		"/>
		
			<rect x="642.88" y="417.93" transform="matrix(1 -3.413059e-03 3.413059e-03 1 -1.4399 2.2051)" class="st8" width="4.97" height="10.08"/>
		<polygon class="st8" points="721.83,294.21 717.35,286.58 713.06,289.07 717.54,296.7 		"/>
		<rect x="656.24" y="425.55" class="st8" width="14.1" height="4.94"/>
		<rect x="841.6" y="285.63" class="st8" width="6.12" height="4.94"/>
		<rect x="822.7" y="285.79" class="st8" width="12.24" height="4.94"/>
		<rect x="802.56" y="285.79" class="st8" width="12.24" height="4.94"/>
		<rect x="782.26" y="285.79" class="st8" width="12.24" height="4.94"/>
		<rect x="768.83" y="286.26" class="st8" width="8.64" height="4.94"/>
		
			<rect x="765.35" y="300.81" transform="matrix(0.019 -0.9998 0.9998 0.019 453.5069 1068.8157)" class="st8" width="12.16" height="4.97"/>
		<rect x="768.95" y="315.32" class="st8" width="4.97" height="12.16"/>
		<rect x="768.95" y="333" class="st8" width="4.97" height="12.16"/>
		<rect x="768.95" y="349.92" class="st8" width="4.97" height="12.16"/>
		<rect x="768.95" y="366.8" class="st8" width="4.97" height="12.16"/>
		<rect x="768.95" y="384.08" class="st8" width="4.97" height="12.16"/>
		<rect x="768.95" y="401.77" class="st8" width="4.97" height="12.16"/>
		<rect x="768.95" y="419.88" class="st8" width="4.97" height="6.12"/>
		<rect x="835.29" y="355.05" class="st8" width="11.83" height="4.94"/>
		<rect x="816.38" y="355.21" class="st8" width="12.24" height="4.94"/>
		<rect x="796.24" y="355.21" class="st8" width="12.24" height="4.94"/>
		<rect x="777.47" y="355.21" class="st8" width="12.24" height="4.94"/>
		<rect x="826.36" y="420.42" class="st8" width="11.83" height="4.94"/>
		<rect x="805.63" y="420.58" class="st8" width="12.24" height="4.94"/>
		<rect x="786.48" y="420.58" class="st8" width="12.24" height="4.94"/>
		<rect x="772.16" y="421.02" class="st8" width="7.58" height="4.94"/>
		<rect x="844.11" y="420.42" class="st8" width="6.45" height="4.94"/>
		
			<rect x="378.35" y="488.6" transform="matrix(0.9998 -0.0219 0.0219 0.9998 -10.6404 8.5064)" class="st8" width="11.04" height="4.94"/>
		
			<rect x="361.26" y="488.62" transform="matrix(0.9998 -0.0219 0.0219 0.9998 -10.6448 8.1461)" class="st8" width="12.24" height="4.94"/>
		<polygon class="st8" points="354.44,488.63 346.06,489.44 346.54,494.35 354.92,493.55 		"/>
		
			<rect x="328.07" y="639.26" transform="matrix(0.0449 -0.999 0.999 0.0449 -322.2444 946.4435)" class="st8" width="11.5" height="4.97"/>
		
			<rect x="330.76" y="654.22" transform="matrix(0.9999 -0.015 0.015 0.9999 -9.8253 5.084)" class="st8" width="4.97" height="3.69"/>
		<rect x="384.93" y="581.36" class="st8" width="12.24" height="4.94"/>
		<rect x="364.3" y="581.36" class="st8" width="12.24" height="4.94"/>
		<rect x="364.3" y="581.36" class="st8" width="12.24" height="4.94"/>
		<rect x="456.66" y="645.9" class="st8" width="4.97" height="12.16"/>
		<rect x="456.66" y="624.06" class="st8" width="4.97" height="12.16"/>
		<rect x="456.66" y="600.34" class="st8" width="4.97" height="12.16"/>
		<rect x="456.66" y="577.23" class="st8" width="4.97" height="12.16"/>
		<rect x="458.56" y="554.42" class="st8" width="4.97" height="12.16"/>
		<rect x="459.15" y="531.61" class="st8" width="4.97" height="12.16"/>
		<rect x="539.2" y="645.1" class="st8" width="4.97" height="12.16"/>
		<rect x="539.2" y="623.26" class="st8" width="4.97" height="12.16"/>
		<rect x="539.2" y="599.54" class="st8" width="4.97" height="12.16"/>
		<rect x="539.2" y="576.43" class="st8" width="4.97" height="12.16"/>
		<rect x="539.2" y="550.35" class="st8" width="4.97" height="12.16"/>
		<rect x="539.2" y="526.25" class="st8" width="4.97" height="12.16"/>
		<rect x="539.2" y="501.84" class="st8" width="4.97" height="12.16"/>
		<polygon class="st8" points="473.86,524.93 478.17,536.31 482.82,534.57 478.51,523.19 		"/>
		<polygon class="st8" points="482.45,544.53 487.42,555.65 491.96,553.64 486.99,542.53 		"/>
		<polygon class="st8" points="492.28,565.18 497.24,576.29 501.78,574.29 496.82,563.17 		"/>
		<polygon class="st8" points="502.02,585.84 506.99,596.95 511.53,594.95 506.56,583.83 		"/>
		<polygon class="st8" points="511.39,608.58 516.35,619.69 520.89,617.69 515.93,606.57 		"/>
		<polygon class="st8" points="529.05,644.22 536.34,653.99 540.33,651.05 533.04,641.28 		"/>
		<polygon class="st8" points="519.81,628.2 525.74,638.84 530.08,636.45 524.16,625.81 		"/>
		<rect x="459.15" y="507.97" class="st8" width="4.97" height="12.16"/>
		<rect x="459.15" y="485.44" class="st8" width="4.97" height="12.16"/>
		<rect x="539.2" y="482.84" class="st8" width="4.97" height="12.16"/>
		<polygon class="st8" points="466.19,504.53 470.5,515.91 475.15,514.17 470.84,502.79 		"/>
		<polygon class="st8" points="460.33,482.62 464.64,494 469.29,492.26 464.98,480.88 		"/>
		<rect x="686.65" y="482.9" class="st8" width="12.9" height="4.94"/>
		<rect x="664.62" y="482.9" class="st8" width="12.24" height="4.94"/>
		<rect x="641.85" y="482.9" class="st8" width="12.24" height="4.94"/>
		<rect x="618.99" y="483.06" class="st8" width="12.24" height="4.94"/>
		<rect x="596.68" y="483.06" class="st8" width="12.24" height="4.94"/>
		<rect x="574.37" y="482.9" class="st8" width="12.24" height="4.94"/>
		<polygon class="st8" points="693.17,486.1 686.06,496.8 690.2,499.53 697.32,488.83 		"/>
		<polygon class="st8" points="681.15,502.64 674.04,513.34 678.18,516.06 685.3,505.36 		"/>
		<polygon class="st8" points="668.09,521.58 660.97,532.28 665.12,535 672.23,524.3 		"/>
		<polygon class="st8" points="655.57,542.38 648.45,553.08 652.6,555.8 659.71,545.1 		"/>
		<polygon class="st8" points="641.22,563.02 634.11,573.72 638.26,576.44 645.37,565.74 		"/>
		<polygon class="st8" points="626.6,583.68 619.48,594.38 623.63,597.1 630.74,586.4 		"/>
		<polygon class="st8" points="612.83,604.99 605.72,615.69 609.86,618.41 616.97,607.71 		"/>
		<rect x="734.08" y="636.29" class="st8" width="12.9" height="4.94"/>
		<rect x="711.33" y="636.45" class="st8" width="12.24" height="4.94"/>
		<rect x="689.61" y="636.45" class="st8" width="12.24" height="4.94"/>
		<rect x="666.76" y="636.45" class="st8" width="12.24" height="4.94"/>
		<rect x="644.45" y="636.37" class="st8" width="12.24" height="4.94"/>
		<rect x="622.14" y="636.45" class="st8" width="12.24" height="4.94"/>
		<polygon class="st8" points="600.47,622.78 594.06,633.15 598.3,635.73 604.7,625.37 		"/>
		<rect x="599.6" y="636.45" class="st8" width="12.24" height="4.94"/>
		
			<rect x="329.04" y="619.79" transform="matrix(0.0449 -0.999 0.999 0.0449 -301.8736 928.8158)" class="st8" width="11.5" height="4.97"/>
		
			<rect x="330.08" y="600.03" transform="matrix(0.0449 -0.999 0.999 0.0449 -281.1413 910.973)" class="st8" width="11.5" height="4.97"/>
		
			<rect x="331.78" y="579.25" transform="matrix(0.0449 -0.999 0.999 0.0449 -258.7585 892.8315)" class="st8" width="11.5" height="4.97"/>
		
			<rect x="332.82" y="559.77" transform="matrix(0.0449 -0.999 0.999 0.0449 -238.31 875.26)" class="st8" width="11.5" height="4.97"/>
		
			<rect x="334.52" y="539.74" transform="matrix(0.0449 -0.999 0.999 0.0449 -216.675 857.8336)" class="st8" width="11.5" height="4.97"/>
		
			<rect x="335.55" y="519.08" transform="matrix(0.0449 -0.999 0.999 0.0449 -195.04 839.1277)" class="st8" width="11.5" height="4.97"/>
		<polygon class="st8" points="341.12,497.42 339.96,508.86 344.9,509.35 346.06,497.91 		"/>
		
			<rect x="406.92" y="643.41" transform="matrix(0.999 -0.0448 0.0448 0.999 -28.6947 19.0092)" class="st8" width="4.97" height="11.5"/>
		
			<rect x="405.95" y="623.95" transform="matrix(0.999 -0.0448 0.0448 0.999 -27.8228 18.9463)" class="st8" width="4.97" height="11.5"/>
		
			<rect x="404.92" y="604.18" transform="matrix(0.999 -0.0448 0.0448 0.999 -26.9377 18.88)" class="st8" width="4.97" height="11.5"/>
		
			<rect x="403.22" y="583.41" transform="matrix(0.999 -0.0448 0.0448 0.999 -26.0079 18.7828)" class="st8" width="4.97" height="11.5"/>
		
			<rect x="402.18" y="563.93" transform="matrix(0.999 -0.0448 0.0448 0.999 -25.1356 18.7168)" class="st8" width="4.97" height="11.5"/>
		
			<rect x="400.48" y="543.9" transform="matrix(0.999 -0.0448 0.0448 0.999 -24.2393 18.6202)" class="st8" width="4.97" height="11.5"/>
		
			<rect x="399.44" y="523.23" transform="matrix(0.999 -0.0448 0.0448 0.999 -23.3137 18.5531)" class="st8" width="4.97" height="11.5"/>
		<polygon class="st8" points="402.11,504.84 403.27,516.28 398.33,516.78 397.17,505.34 		"/>
		<rect x="345.42" y="581.36" class="st8" width="12.24" height="4.94"/>
		<polygon class="st8" points="399.7,491.49 401.06,500.98 396.14,501.3 394.78,491.82 		"/>
	</g>
</g>
<g id="Layer_6">
	<text transform="matrix(1.0062 0 0 1 383.545 1633.4702)"><tspan x="0" y="0" class="st3 st9 st10">April 22, 2023</tspan><tspan x="187.18" y="100.16" class="st3 st9 st11">La Jolla, CA</tspan><tspan x="151.45" y="146.19" class="st4 st9 st12">More details coming soon!</tspan></text>
</g>
<g id="Layer_5">
	<text transform="matrix(1.002 0 0 1 34.3261 169.8968)" class="st5 st9 st13">Save the Date</text>
</g>
</svg>
