<?xml version="1.0" encoding="utf-8"?>
<!-- Generator: Adobe Illustrator 27.3.1, SVG Export Plug-In . SVG Version: 6.00 Build 0)  -->
<svg version="1.1" xmlns="http://www.w3.org/2000/svg" xmlns:xlink="http://www.w3.org/1999/xlink" x="0px" y="0px"
	 viewBox="0 0 1125 2436" style="enable-background:new 0 0 1125 2436;" xml:space="preserve">
<style type="text/css">
	.st0{fill:#0D1128;}
	.st1{fill:#FFF5D4;}
	.st2{fill:#F499BB;}
	.st3{fill:#F4A263;}
	.st4{fill:#FAD066;}
	.st5{fill:#333333;}
	.st6{fill:#9DC38E;}
	.st7{fill:#FFECC5;}
	.st8{display:none;}
	.st9{display:inline;fill:#E6E7E8;stroke:#9DC38E;stroke-width:17;stroke-miterlimit:10;}
	.st10{display:inline;}
	.st11{fill:#414042;}
	.st12{font-family:'Phosphate-Solid';}
	.st13{font-size:61.23px;}
	.st14{letter-spacing:-7;}
	.st15{letter-spacing:-1;}
</style>
<g id="Layer_4">
	<polyline class="st0" points="86.49,2165.13 -0.11,2165.12 0.11,0.54 1125.11,0.65 1125.06,504.04 	"/>
	<polyline class="st1" points="1125,598.1 1125,2434.95 2.14,2434.95 	"/>
	<line class="st1" x1="1125" y1="491.63" x2="1125" y2="598.1"/>
	<line class="st0" x1="-4.31" y1="1893.67" x2="-4.31" y2="1761.45"/>
	<line class="st0" x1="-4.31" y1="1992.97" x2="-4.31" y2="1893.67"/>
</g>
<g id="Layer_2">
	<polyline class="st2" points="1070.84,2050.61 469.68,2053.17 507.51,2006.13 1102.66,2005.75 	"/>
	<polyline class="st2" points="2.67,2066.06 1129.69,260 1222.35,231.83 1.73,2204.17 	"/>
	<line class="st3" x1="-0.2" y1="1886.88" x2="0" y2="1886.55"/>
	<line class="st3" x1="0" y1="2027.83" x2="-0.23" y2="2028.21"/>
	<polyline class="st3" points="2.12,2188.72 1120.88,376.54 1209.26,349.68 0.64,2323.79 	"/>
	<line class="st4" x1="0.14" y1="2139.08" x2="-7.58" y2="2151.84"/>
	<polyline class="st4" points="0.87,2303.33 1125.98,484.31 1211.65,458.27 -0.23,2433.96 	"/>
</g>
<g id="Layer_3">
	<path id="BACKGROUND_00000167390569601682181960000008518085596809695141_" class="st1" d="M89.46,476.12l48.11,23.02l38.63,17.91
		c2.3,1.07,3.74,3.41,3.64,5.93l-10.07,259.22c-0.14,3.56,2.73,6.52,6.31,6.52h220.99c3.42,0,6.21-2.7,6.31-6.1l1.05-36.33
		c0.1-3.55,3.14-6.3,6.7-6.08l10.22,0.63c0.12,0.01,0.24,0.01,0.36,0.01l13.83,0.06l347.2,0.97c3.24,0.01,5.97-2.43,6.3-5.63
		l4.08-39.27c0.32-3.11,2.91-5.52,6.05-5.63l40.49-1.44c3.49-0.12,6.21-3.04,6.08-6.5l-2.23-60.02c-0.12-3.16-2.58-5.74-5.75-6.02
		l-55.58-4.9c-4.7-0.41-7.3-5.62-4.79-9.59l46.49-73.64c0.63-1,0.97-2.16,0.97-3.34v-39.17c0-3.47,2.83-6.28,6.31-6.28h115.96
		c3.49,0,6.31-2.81,6.31-6.28V300.73c0-2.09-1.05-4.04-2.79-5.21l-43.66-29.17c-1.04-0.7-2.27-1.07-3.52-1.07h-316.8
		c-3.49,0-6.31-2.81-6.31-6.28v-26.5c0-2.85-1.93-5.34-4.71-6.07l-19.69-5.15c-0.52-0.14-1.05-0.2-1.59-0.21l-291.35-0.84
		c-1.35,0-2.67-0.44-3.75-1.24l-8.07-5.97c-1.12-0.83-2.49-1.27-3.88-1.24l-130.6,2.25c-1.54,0.03-3.02,0.61-4.15,1.64l-19.63,17.84
		"/>
	<path class="st5" d="M785.04,521.22"/>
	<path class="st5" d="M761.72,539.67"/>
	<g id="OUTIDE_00000101074180812505575420000002506026346642584487_">
		<polygon class="st6" points="117.02,467.52 113.2,453.35 110.76,408.43 110.76,333.11 110.76,314.11 112.15,285.43 113.89,257.1 
			117.02,235.68 134.75,231.18 161.17,228.07 186.55,228.07 210.89,228.07 232.79,229.8 242.52,231.18 248.78,233.26 252.6,290.61 
			254,346.24 254,401.18 254,437.46 252.6,450.24 250.87,464.06 248.78,469.59 220.62,470.97 153.18,470.97 		"/>
		<polygon class="st6" points="267.55,286.79 316.34,285.06 316.34,328.6 316.34,416.7 341.6,414.63 336.74,335.16 382.02,337.93 
			383.67,386.99 383.67,423.96 383.67,441.93 382.02,455.4 379.85,463.35 367.91,464.39 330.83,465.77 303.71,467.15 273.46,467.15 
			271.03,461.28 268.94,414.98 267.55,365.34 		"/>
		<polygon class="st6" points="336.39,285.06 338.82,323.07 399.66,323.07 401.75,360.38 403.83,388.72 405.57,413.94 407.24,444 
			409.05,469.22 456.68,470.97 455.29,427.07 454.94,389.41 454.24,367.99 452.69,341.04 452.69,321 475.45,319.27 473.71,293.01 
			473.71,283.8 		"/>
		<polygon class="st6" points="659.82,282.87 660.98,301.53 660.98,324.34 620.19,325.49 594,326.64 571.75,326.64 546.26,327.79 
			525.86,328.71 527.02,344.84 527.71,353.36 540,353.36 556.45,354.51 569.66,354.51 581.83,355.37 591.22,356.58 596.78,358.14 
			600.26,359.87 600.6,368.68 601.13,380.77 601.13,397.01 601.13,409.97 600.95,419.3 600.26,434.84 599.39,446.07 598.69,454.54 
			597.48,463.18 595.22,469.91 513.87,468.53 472.15,468.36 472.15,424.48 516.36,426.61 556.97,424.65 557.32,403.4 555.24,397.01 
			548.63,397.18 520.3,397.87 504.83,397.87 491.09,397.87 485.53,396.84 484.66,394.42 484.49,381.63 483.45,365.34 482.75,353.13 
			481.88,337.75 481.01,317.54 480.84,298.54 481.19,289.55 483.27,285.06 		"/>
		<polygon class="st6" points="613.47,336.89 663.53,335.51 664.92,367.64 666.38,395.97 666.38,421.2 666.38,450.22 666.38,464.04 
			666.38,470.97 641.63,469.91 623.2,469.91 613.47,466.8 613.47,429.83 613.47,400.12 		"/>
		<polygon class="st6" points="677.09,280.93 678.48,335.51 679.52,376.39 679.52,403.24 680.45,426.61 681.61,451.72 
			681.61,466.92 713.13,466.92 732.83,466 743.72,465.31 761.1,464.39 776.17,462.54 789.15,459.55 794.94,457.01 797.49,445.5 
			798.88,430.06 800.04,415.32 800.04,403.24 800.04,380.77 800.04,362.11 800.04,330.5 800.04,314.26 798.77,291.63 791.99,289.55 
			777.73,287.48 761.57,285.75 730.11,283.51 709.42,282.47 		"/>
		<polygon class="st6" points="809.37,464.39 908.1,465.42 908.1,416.88 886.72,416.88 854.56,416.88 852.83,395.45 882.72,394.76 
			904.63,393.73 904.63,377.14 904.8,357.97 865.86,357.97 850.39,357.97 849.87,342.42 849.7,333.61 866.56,334.47 874.9,334.47 
			890.89,334.47 903.41,334.64 904.8,309.77 906.37,283.68 895.07,283.68 881.16,283.68 860.82,284.37 848.31,284.37 836.14,284.89 
			828.14,285.41 817.71,285.41 809.37,285.58 809.37,290.76 		"/>
	</g>
	<g id="BIRTHDAY_FESTIVAL_00000056428083484246487730000015438213068965651075_">
		<polygon class="st3" points="381.65,691.53 381.65,723.04 406.44,722.9 401.83,707.28 406.59,689.66 		"/>
		<polygon class="st3" points="421.54,691.53 421.54,723.04 429.87,723.04 430.48,712.86 435.29,723.04 442.6,723.04 437.75,711.46 
			442.6,711.15 442.04,690.67 		"/>
		<polygon class="st3" points="466.17,691.36 472.6,687.93 473.98,703.59 481.78,707.02 481.78,691.36 489.58,691.36 489.58,722.68 
			481.32,722.68 480.27,714.26 473.52,714.17 474.53,722.68 466.17,722.68 		"/>
		<polygon class="st3" points="492.86,689.66 492.86,722.94 512.07,715.04 512.07,709.68 511.13,705.47 509.18,701.63 
			505.57,697.46 501,693.47 		"/>
		<polygon class="st3" points="535.94,690.7 549.21,706.8 549.21,722.9 557.73,722.9 557.73,705.49 564.64,690.7 555.93,690.7 
			552.11,697.18 544.54,690.7 		"/>
		<polygon class="st3" points="582.18,689.66 582.18,722.9 594,722.9 592.68,709.53 601.65,709.36 601.65,702.48 590.65,696.75 
			601.65,697.09 601.65,689.66 		"/>
		<polygon class="st3" points="604.78,689.66 604.78,723.55 627.9,723.55 627.9,714.54 612.78,714.02 623.72,706.61 614.86,698.82 
			627.9,698.99 628.59,691.02 		"/>
		<polygon class="st3" points="631.55,689.66 631.55,705.43 644.41,712.3 631.55,712.86 631.55,723.55 654.71,723.04 654.71,703.39 
			640.06,699.16 653.8,698.99 653.45,689.66 		"/>
		<polygon class="st3" points="656.92,689.66 656.92,698.38 661.56,698.38 661.56,722.14 672.05,722.9 672.05,697.95 676.91,697.95 
			676.91,689.66 		"/>
		<polygon class="st3" points="679.31,690.7 678.82,722.9 687,722.9 687,690.7 		"/>
		<polygon class="st3" points="714.46,690.7 711.68,712.3 709.94,722.14 694.3,722.9 689.26,690.7 696.73,690.7 701.86,706.8 
			702.81,709.53 707.51,689.66 		"/>
		<polygon class="st3" points="716.55,689.66 716.55,723.55 726.45,722.9 725.77,712.3 730.32,712.3 734.02,722.9 740.62,722.9 
			739.49,706.28 737.93,689.66 		"/>
		<polygon class="st3" points="742.1,689.66 742.1,722.9 759.13,722.9 759.13,713.33 751.66,713.16 751.31,689.66 		"/>
		<polygon class="st3" points="514.17,689.28 514.17,723.17 524.07,722.52 523.39,711.92 527.94,711.92 531.64,722.52 
			538.24,722.52 537.11,705.9 535.55,689.28 		"/>
		<polygon class="st3" points="444.39,690.67 444.39,699.38 449.03,699.38 449.03,723.14 459.52,723.9 459.52,698.96 464.38,698.96 
			464.38,690.67 		"/>
		<polygon class="st3" points="410.39,690.75 409.9,722.95 418.08,722.95 418.08,690.75 		"/>
	</g>
	<g id="MANZ_00000058547729479975439980000010635427223025610637_">
		<polygon class="st2" points="415.83,676.36 398.27,675.67 374.98,674.65 374.98,664.61 374.98,646.13 374.98,629.02 
			374.98,602.94 375.85,574.66 376.54,551.63 376.89,524.33 378.28,497.73 379.5,484.43 395.4,483.73 415.13,483.73 438.95,483.73 
			459.81,483.73 470.58,483.73 473.71,496.17 474.75,506.05 477.01,523.44 478.58,537.87 484.66,601.22 486.75,624.36 
			487.62,637.49 489.18,659.26 490.75,674.65 490.05,676.36 448.68,676.36 443.29,622.46 421.74,622.8 419.48,622.98 418.09,634.38 
			417.57,645.95 416.7,663.06 		"/>
		<polygon class="st2" points="541.16,676.36 520.82,676.36 497.53,676.36 497.53,621.6 497.53,590.15 497.53,555.26 497.53,530.21 
			497.53,511.55 497.53,494.1 497.53,485.81 500.13,484.6 503.61,483.73 507.55,483.27 511.49,483.27 529.68,483.27 544.98,483.27 
			547.18,487.07 549.27,492.95 552.17,501.47 554.48,510.22 556.92,518.63 566.56,553.7 573.66,582.38 572.79,550.25 572.79,526.83 
			572.79,499.8 572.27,485.81 590.7,484.94 617.47,483.73 618.51,508.96 619.38,531.93 620.07,550.19 620.07,561.01 621.35,589.92 
			622.16,609.04 622.16,621.83 622.62,634.15 623.43,651.19 623.9,662.71 624.71,674.34 568.85,675.61 565.49,673.65 553.9,645.44 
			545.68,630.58 543.47,626.78 540.69,623.21 540.34,625.28 		"/>
		<path class="st2" d="M773.94,483.73l-140.34-0.2c-0.93,0-1.69,0.75-1.69,1.68v36.52c0,0.92,0.75,1.68,1.68,1.68l68.84,0.38
			c1.34,0.01,2.14,1.48,1.41,2.59l-50.71,77.96l-17.48,24.43c-0.21,0.29-0.31,0.63-0.31,0.98l0.15,31.64c0,0.08,0.01,0.17,0.02,0.25
			l1.93,12.27c0.13,0.8,0.81,1.4,1.63,1.42l56.39,1.24l116.92,2.57c0.91,0.02,1.67-0.68,1.73-1.59l2.27-40.17
			c0.06-0.98-0.74-1.79-1.72-1.77l-79.59,1.49H702.2c-1.18,0-2-1.17-1.59-2.27l4.49-12.02c0.05-0.12,0.1-0.24,0.18-0.35
			l68.61-102.49C774.29,516.23,774.14,484.25,773.94,483.73L773.94,483.73z"/>
		<path class="st2" d="M204.3,482.95l45.9,0.67c1.11,0.02,2.06,0.78,2.3,1.86l20.31,90.04c0.56,2.48,4.11,2.48,4.67,0l10.49-46.51
			l10.55-46.78c0.03-0.14,0.07-0.27,0.13-0.4l0,0c0.37-0.88,1.24-1.45,2.2-1.45h55.68c1.05,0,1.97,0.67,2.28,1.67l0.17,0.54
			c0.07,0.23,0.11,0.47,0.11,0.71l0.01,18.24v63.39l-0.28,33.56l-0.28,67.7l-0.15,47.37l0.15,31.73l-0.14,24.28
			c-0.01,1.32-1.09,2.38-2.41,2.36l-19.97-0.16l-29.92,0.16c-1.31,0.01-2.38-1.04-2.41-2.34l-0.53-31l-2.76-67.41l-0.05-2.34
			c-0.05-2.12-2.66-3.13-4.13-1.59l-20.9,21.86c-0.98,1.02-2.63,0.98-3.55-0.09l-20.52-23.8c-1.44-1.67-4.19-0.67-4.21,1.53
			l-0.44,55.4v25.57l-0.38,21.89c-0.02,1.3-1.09,2.34-2.39,2.34h-17.6h-24.91h-6.78c-1.35,0-2.44-1.12-2.39-2.46l0.08-2.24
			l0.45-12.91l0.98-27.86l2.45-64.45l2.05-63.55l1.76-50.02l1.41-41.05l0.52-21.93c0-0.12,0.01-0.24,0.04-0.36l0.03-0.19
			C202.12,483.77,203.13,482.94,204.3,482.95z"/>
	</g>
	<g id="SAN_DIEGO_00000070841491124645131900000015231595968041997189_">
		<polygon class="st4" points="293.28,236 268.42,236.86 269.12,253.79 281.81,259.15 283.55,260.36 269.47,260.36 269.12,272.62 
			293.98,272.62 293.98,252.93 280.24,246.88 278.5,245.85 292.76,246.02 		"/>
		<polygon class="st4" points="296.93,236 296.93,272.62 307.19,271.93 307.19,260.36 311.18,260.01 315.53,271.59 323,271.76 
			322.31,236 		"/>
		<polygon class="st4" points="325.61,236 325.61,271.93 339.17,271.93 333.96,255.87 342.99,271.93 354.12,271.93 352.9,236 
			339.87,236 343.34,247.23 344.56,250.51 335.52,236.86 		"/>
		<polygon class="st4" points="382.02,233.52 382.02,274.12 407.24,263.9 407.24,256.04 404.09,248.78 399.9,243.91 393.93,239.36 
					"/>
		<rect x="410.88" y="235.6" class="st4" width="9.09" height="36.45"/>
		<polygon class="st4" points="426.36,235.6 426.36,272.04 452.69,272.04 445.2,262.43 449.94,255.42 442.94,249.65 452.69,235.6 		
			"/>
		<polygon class="st4" points="480.18,231.11 480.18,241.83 469.4,246.18 471.02,260.6 474.78,251.55 480.51,259.28 482.47,271.98 
			459.03,271.98 459.03,237.81 		"/>
		<polygon class="st4" points="488.9,233.52 488.9,271.98 512.65,271.98 513.52,270.03 513.52,233.52 		"/>
		<polygon class="st4" points="511.43,225.46 511.43,231.85 516.13,232.54 517.17,243.95 522.38,232.2 522.38,225.46 		"/>
		<polygon class="st4" points="523.95,233.52 523.95,251.03 538.12,257.42 524.82,257.42 523.95,271.98 550.02,270.64 
			550.02,249.47 535.59,243.95 549.15,243.95 550.02,233.52 		"/>
	</g>
	<g id="INSIDE_00000132079288495951733180000014322914154423729547_">
		<polygon class="st1" points="169.52,283.68 169.52,405.65 186.7,408.07 186.7,280.93 		"/>
		<polygon class="st1" points="726.03,328.4 726.03,422.38 748.38,420.65 745.59,328.4 728.73,328.4 		"/>
		<polygon class="st1" points="420.88,546.71 420.88,582.91 438.26,582.91 436.52,545.92 		"/>
		<polygon class="st1" points="389.01,246.46 389.01,262.09 394.64,246.46 		"/>
		<polygon class="st1" points="496.88,242.02 496.88,265.23 504.69,265.23 		"/>
		<polygon class="st1" points="307.89,248.76 307.89,254.28 310.79,254.28 		"/>
		<polygon class="st1" points="389.55,696.86 389.55,701.8 393.89,696.86 		"/>
		<polygon class="st1" points="389.81,713.14 389.81,717.59 395.48,717.59 		"/>
		<polygon class="st1" points="426.83,696.1 427.28,704.22 435.18,699.33 		"/>
		<polygon class="st1" points="496.84,702.54 496.84,713.7 502.48,702.54 		"/>
		<polyline class="st1" points="726.73,700.7 726.73,706.22 729.68,706.22 		"/>
		<polyline class="st1" points="524.72,699.78 524.72,705.31 527.68,705.31 		"/>
	</g>
	<g id="ANTS_00000088827074322139528290000015312008385175677611_">
		<rect x="215.74" y="759.78" class="st7" width="4.97" height="12.16"/>
		<rect x="215.74" y="737.3" class="st7" width="4.97" height="12.16"/>
		<rect x="215.74" y="714.82" class="st7" width="4.97" height="12.16"/>
		<rect x="215.74" y="692.33" class="st7" width="4.97" height="12.16"/>
		<rect x="218.22" y="669.85" class="st7" width="4.97" height="12.16"/>
		<rect x="220.7" y="647.37" class="st7" width="4.97" height="12.16"/>
		<rect x="220.7" y="624.89" class="st7" width="4.97" height="12.16"/>
		<rect x="220.7" y="602.41" class="st7" width="4.97" height="12.16"/>
		<rect x="220.7" y="579.93" class="st7" width="4.97" height="12.16"/>
		<rect x="220.7" y="557.45" class="st7" width="4.97" height="12.16"/>
		<rect x="220.86" y="534.99" class="st7" width="4.97" height="12.16"/>
		<rect x="220.86" y="512.53" class="st7" width="4.97" height="12.16"/>
		<polygon class="st7" points="234.74,521.77 237.21,533.68 242.08,532.68 239.6,520.77 		"/>
		<polygon class="st7" points="288.3,630.49 283.59,641.71 288.17,643.61 292.88,632.39 		"/>
		<rect x="221.04" y="500.05" class="st7" width="4.97" height="5.85"/>
		<polygon class="st7" points="280.23,647.26 277.14,652.51 281.44,655 284.52,649.75 		"/>
		<polygon class="st7" points="229.28,501.52 232.44,513.27 237.24,511.99 234.08,500.25 		"/>
		<polygon class="st7" points="240.15,542.46 243.32,554.21 248.12,552.93 244.95,541.18 		"/>
		<polygon class="st7" points="246.63,564.37 249.79,576.12 254.59,574.84 251.43,563.09 		"/>
		<polygon class="st7" points="253.02,586.29 256.19,598.03 260.99,596.76 257.82,585.01 		"/>
		<polygon class="st7" points="258.71,610.2 261.88,621.95 266.68,620.67 263.51,608.92 		"/>
		<polygon class="st7" points="295.62,608.44 291.69,619.96 296.4,621.55 300.33,610.03 		"/>
		<polygon class="st7" points="306.49,564.07 303.34,575.83 308.15,577.1 311.29,565.34 		"/>
		<rect x="330.01" y="759.78" class="st7" width="4.97" height="12.16"/>
		<rect x="330.01" y="739.14" class="st7" width="4.97" height="12.16"/>
		<rect x="330.01" y="716.96" class="st7" width="4.97" height="12.16"/>
		<rect x="330.06" y="693.25" class="st7" width="4.97" height="12.16"/>
		<rect x="330.01" y="669.55" class="st7" width="4.97" height="12.16"/>
		<rect x="332.5" y="647.37" class="st7" width="4.97" height="12.16"/>
		<rect x="332.55" y="623.11" class="st7" width="4.97" height="12.16"/>
		<rect x="332.5" y="598.85" class="st7" width="4.97" height="12.16"/>
		<rect x="332.5" y="574.59" class="st7" width="4.97" height="12.16"/>
		<rect x="332.55" y="550.33" class="st7" width="4.97" height="12.16"/>
		<rect x="332.55" y="524.69" class="st7" width="4.97" height="12.16"/>
		<rect x="332.5" y="503.16" class="st7" width="4.97" height="12.16"/>
		<polygon class="st7" points="313.28,541.15 309.55,552.73 314.28,554.24 318.01,542.65 		"/>
		<polygon class="st7" points="133.89,429.97 135.92,435.71 140.61,434.06 138.57,428.33 		"/>
		<rect x="131.4" y="408.07" class="st7" width="4.97" height="12.16"/>
		<rect x="131.4" y="386.22" class="st7" width="4.97" height="12.16"/>
		<rect x="131.4" y="362.5" class="st7" width="4.97" height="12.16"/>
		<rect x="131.4" y="339.39" class="st7" width="4.97" height="12.16"/>
		<rect x="133.3" y="316.59" class="st7" width="4.97" height="12.16"/>
		<rect x="133.89" y="293.78" class="st7" width="4.97" height="12.16"/>
		<polygon class="st7" points="137.16,270.88 134.52,282.76 139.37,283.83 142.01,271.95 		"/>
		<polygon class="st7" points="148.53,257.78 142.01,261.7 144.44,265.69 150.96,261.78 		"/>
		<polygon class="st7" points="150,439.44 143.13,436.17 141.1,440.38 147.97,443.65 		"/>
		
			<rect x="160.45" y="436.5" transform="matrix(0.039 -0.9992 0.9992 0.039 -285.7191 588.1307)" class="st7" width="4.94" height="12.24"/>
		
			<rect x="181.81" y="436.5" transform="matrix(0.0206 -0.9998 0.9998 0.0206 -262.0399 617.7388)" class="st7" width="4.94" height="12.24"/>
		
			<rect x="199.29" y="439.1" transform="matrix(0.0206 -0.9998 0.9998 0.0206 -244.8588 635.1681)" class="st7" width="4.94" height="6.92"/>
		<polygon class="st7" points="215.06,428.41 209.7,439.35 214.17,441.51 219.53,430.57 		"/>
		<rect x="216.34" y="408.07" class="st7" width="4.97" height="12.16"/>
		<rect x="216.34" y="386.22" class="st7" width="4.97" height="12.16"/>
		<rect x="216.34" y="362.5" class="st7" width="4.97" height="12.16"/>
		<rect x="216.34" y="339.39" class="st7" width="4.97" height="12.16"/>
		<rect x="216.34" y="313.31" class="st7" width="4.97" height="12.16"/>
		<rect x="216.34" y="289.21" class="st7" width="4.97" height="12.16"/>
		<rect x="216.34" y="264.8" class="st7" width="4.97" height="12.16"/>
		<polygon class="st7" points="218.8,257.51 214.15,251.52 210.43,254.37 215.09,260.37 		"/>
		<polygon class="st7" points="167.88,249.94 156.32,253.96 157.96,258.62 169.52,254.6 		"/>
		
			<rect x="181.81" y="245.4" transform="matrix(0.0169 -0.9999 0.9999 0.0169 -70.3173 431.5262)" class="st7" width="4.94" height="12.24"/>
		<polygon class="st7" points="206.68,249.77 199.14,248.65 198.45,253.27 205.99,254.39 		"/>
		<polygon class="st7" points="301.3,586.48 298.11,598.22 302.91,599.5 306.1,587.76 		"/>
		<polygon class="st7" points="270.59,648.14 276.26,658.92 280.66,656.63 274.99,645.85 		"/>
		<polygon class="st7" points="263.96,630.88 268.15,642.31 272.82,640.62 268.63,629.19 		"/>
		<polygon class="st7" points="319.14,517.68 315.41,529.27 320.14,530.77 323.87,519.19 		"/>
		<polygon class="st7" points="323.96,501.77 321.32,509.99 326.05,511.49 328.7,503.28 		"/>
		<rect x="289.01" y="285.06" class="st7" width="4.97" height="12.16"/>
		<rect x="289.01" y="305.94" class="st7" width="4.97" height="12.16"/>
		<rect x="289.01" y="325.47" class="st7" width="4.97" height="12.16"/>
		<rect x="289.01" y="347.55" class="st7" width="4.97" height="12.16"/>
		<rect x="289.01" y="370.02" class="st7" width="4.97" height="12.16"/>
		<rect x="289.01" y="393.94" class="st7" width="4.97" height="12.16"/>
		<rect x="289.01" y="417.89" class="st7" width="4.97" height="12.16"/>
		<polygon class="st7" points="290.87,438.89 296.23,444.33 299.78,440.87 294.42,435.44 		"/>
		
			<rect x="308.32" y="437.53" transform="matrix(2.536872e-03 -1 1 2.536872e-03 -133.6494 753.3153)" class="st7" width="4.94" height="12.24"/>
		
			<rect x="326.23" y="437.53" transform="matrix(2.536872e-03 -1 1 2.536872e-03 -115.789 771.2211)" class="st7" width="4.94" height="12.24"/>
		
			<rect x="344.48" y="439.44" transform="matrix(2.536982e-03 -1 1 2.536982e-03 -97.5747 789.4758)" class="st7" width="4.94" height="8.42"/>
		<polygon class="st7" points="359.01,443.03 363.78,431.83 359.2,429.91 354.43,441.11 		"/>
		<rect x="359.35" y="411.81" class="st7" width="4.97" height="12.16"/>
		<rect x="359.35" y="390" class="st7" width="4.97" height="12.16"/>
		<rect x="359.35" y="368.05" class="st7" width="4.97" height="12.16"/>
		<rect x="359.35" y="346.57" class="st7" width="4.97" height="12.16"/>
		<rect x="337.23" y="299.6" class="st7" width="5.5" height="4.94"/>
		<rect x="348.31" y="299.6" class="st7" width="12.24" height="4.94"/>
		<rect x="369.79" y="299.6" class="st7" width="12.24" height="4.94"/>
		<rect x="391.83" y="299.6" class="st7" width="12.24" height="4.94"/>
		<rect x="413.85" y="299.6" class="st7" width="12.24" height="4.94"/>
		<rect x="457.34" y="299.6" class="st7" width="12.24" height="4.94"/>
		<rect x="423.88" y="309.55" class="st7" width="4.97" height="12.16"/>
		<rect x="423.88" y="330.63" class="st7" width="4.97" height="12.16"/>
		<rect x="424.4" y="352.65" class="st7" width="4.97" height="12.16"/>
		<rect x="425.26" y="374.14" class="st7" width="4.97" height="12.16"/>
		<rect x="426.36" y="414.48" class="st7" width="4.97" height="12.16"/>
		<rect x="426.89" y="435.09" class="st7" width="4.97" height="12.16"/>
		<rect x="427.75" y="453.06" class="st7" width="4.97" height="12.16"/>
		<rect x="426.36" y="394.85" class="st7" width="4.97" height="12.16"/>
		<rect x="437.37" y="299.6" class="st7" width="12.24" height="4.94"/>
		<rect x="652.15" y="299.43" class="st7" width="8.75" height="4.94"/>
		<rect x="630.13" y="299.43" class="st7" width="12.24" height="4.94"/>
		<rect x="607.35" y="299.43" class="st7" width="12.24" height="4.94"/>
		<rect x="584.5" y="299.6" class="st7" width="12.24" height="4.94"/>
		<rect x="562.18" y="299.6" class="st7" width="12.24" height="4.94"/>
		<rect x="539.87" y="299.43" class="st7" width="12.24" height="4.94"/>
		<rect x="517.83" y="299.43" class="st7" width="12.24" height="4.94"/>
		<polygon class="st7" points="511.59,300.41 504.47,306.81 508.03,310.72 515.15,304.32 		"/>
		
			<rect x="501.37" y="313.85" transform="matrix(0.9996 -0.0284 0.0284 0.9996 -8.8681 14.4312)" class="st7" width="4.97" height="11.43"/>
		<rect x="502.21" y="330.66" class="st7" width="4.97" height="12.16"/>
		<rect x="502.21" y="351.02" class="st7" width="4.97" height="12.16"/>
		<polygon class="st7" points="513.7,373.07 507.5,366.31 503.83,369.63 510.03,376.39 		"/>
		<rect x="517.83" y="373.92" class="st7" width="12.24" height="4.94"/>
		<rect x="536.99" y="373.92" class="st7" width="12.24" height="4.94"/>
		<polygon class="st7" points="578.44,380.69 573.12,374.85 569.44,378.16 574.76,384 		"/>
		
			<rect x="573.45" y="390.18" transform="matrix(9.720312e-03 -1 1 9.720312e-03 181.2532 968.3561)" class="st7" width="12.16" height="4.97"/>
		
			<rect x="573.96" y="409.01" transform="matrix(9.720312e-03 -1 1 9.720312e-03 162.9238 987.5073)" class="st7" width="12.16" height="4.97"/>
		
			<rect x="573.96" y="427.62" transform="matrix(9.720312e-03 -1 1 9.720312e-03 144.3127 1005.9384)" class="st7" width="12.16" height="4.97"/>
		<polygon class="st7" points="573.87,448.64 579.98,443.11 576.63,439.46 570.52,444.99 		"/>
		
			<rect x="555.79" y="440.46" transform="matrix(9.601271e-03 -1 1 9.601271e-03 106.3382 1000.5195)" class="st7" width="4.94" height="12.24"/>
		
			<rect x="536.38" y="440.46" transform="matrix(9.601271e-03 -1 1 9.601271e-03 87.1134 981.1093)" class="st7" width="4.94" height="12.24"/>
		
			<rect x="515.46" y="439.86" transform="matrix(9.601271e-03 -1 1 9.601271e-03 67.0002 959.5943)" class="st7" width="4.94" height="12.24"/>
		
			<rect x="496.86" y="439.86" transform="matrix(9.601271e-03 -1 1 9.601271e-03 48.5851 941.0015)" class="st7" width="4.94" height="12.24"/>
		
			<rect x="479.12" y="439.86" transform="matrix(9.601271e-03 -1 1 9.601271e-03 31.0148 923.2617)" class="st7" width="4.94" height="12.24"/>
		<rect x="554.03" y="373.92" class="st7" width="12.24" height="4.94"/>
		<rect x="637.44" y="335.51" class="st7" width="4.97" height="12.16"/>
		<rect x="637.44" y="354.58" class="st7" width="4.97" height="12.16"/>
		<rect x="637.44" y="374.85" class="st7" width="4.97" height="12.16"/>
		<rect x="637.44" y="394.39" class="st7" width="4.97" height="12.16"/>
		<rect x="637.44" y="414.46" class="st7" width="4.97" height="12.16"/>
		<rect x="637.44" y="435.2" class="st7" width="4.97" height="12.16"/>
		<rect x="637.44" y="454.76" class="st7" width="4.97" height="12.16"/>
		<rect x="700.06" y="301.9" class="st7" width="4.97" height="10.79"/>
		<rect x="699.67" y="317.83" class="st7" width="4.97" height="12.16"/>
		<rect x="699.67" y="337.92" class="st7" width="4.97" height="12.16"/>
		<rect x="699.67" y="359.74" class="st7" width="4.97" height="12.16"/>
		<rect x="699.67" y="380.5" class="st7" width="4.97" height="12.16"/>
		<rect x="699.67" y="401.34" class="st7" width="4.97" height="12.16"/>
		<rect x="702.91" y="442.43" class="st7" width="5.73" height="4.94"/>
		<rect x="731.09" y="443.34" class="st7" width="12.24" height="4.94"/>
		
			<rect x="700.42" y="419.69" transform="matrix(1 -3.413147e-03 3.413147e-03 1 -1.4491 2.4016)" class="st7" width="4.97" height="12.16"/>
		<rect x="774.99" y="317.83" class="st7" width="4.97" height="12.16"/>
		<rect x="774.99" y="335.51" class="st7" width="4.97" height="12.16"/>
		<rect x="774.99" y="352.43" class="st7" width="4.97" height="12.16"/>
		<rect x="774.99" y="369.31" class="st7" width="4.97" height="12.16"/>
		<rect x="774.99" y="386.59" class="st7" width="4.97" height="12.16"/>
		<rect x="774.99" y="404.28" class="st7" width="4.97" height="12.16"/>
		<rect x="774.99" y="422.38" class="st7" width="4.97" height="12.16"/>
		<rect x="749.23" y="443.34" class="st7" width="12.24" height="4.94"/>
		<polygon class="st7" points="767.2,447.56 776.7,441.45 774,437.3 764.5,443.41 		"/>
		<rect x="702.54" y="299.43" class="st7" width="15.76" height="4.94"/>
		<rect x="724.89" y="299.43" class="st7" width="12.24" height="4.94"/>
		<rect x="744.6" y="299.43" class="st7" width="12.24" height="4.94"/>
		<polygon class="st7" points="770.6,301.21 761.9,299.43 760.9,304.27 769.6,306.05 		"/>
		
			<rect x="700.42" y="435.72" transform="matrix(1 -3.413059e-03 3.413059e-03 1 -1.5003 2.4016)" class="st7" width="4.97" height="10.08"/>
		<polygon class="st7" points="779.37,312 774.89,304.37 770.6,306.87 775.08,314.49 		"/>
		<rect x="713.78" y="443.34" class="st7" width="14.1" height="4.94"/>
		<rect x="899.14" y="303.42" class="st7" width="6.12" height="4.94"/>
		<rect x="880.24" y="303.58" class="st7" width="12.24" height="4.94"/>
		<rect x="860.09" y="303.58" class="st7" width="12.24" height="4.94"/>
		<rect x="839.8" y="303.58" class="st7" width="12.24" height="4.94"/>
		<rect x="826.37" y="304.06" class="st7" width="8.64" height="4.94"/>
		
			<rect x="822.89" y="318.61" transform="matrix(0.019 -0.9998 0.9998 0.019 492.1611 1143.797)" class="st7" width="12.16" height="4.97"/>
		<rect x="826.48" y="333.11" class="st7" width="4.97" height="12.16"/>
		<rect x="826.48" y="350.8" class="st7" width="4.97" height="12.16"/>
		<rect x="826.48" y="367.72" class="st7" width="4.97" height="12.16"/>
		<rect x="826.48" y="384.6" class="st7" width="4.97" height="12.16"/>
		<rect x="826.48" y="401.87" class="st7" width="4.97" height="12.16"/>
		<rect x="826.48" y="419.57" class="st7" width="4.97" height="12.16"/>
		<rect x="826.48" y="437.67" class="st7" width="4.97" height="6.12"/>
		<rect x="892.82" y="372.84" class="st7" width="11.83" height="4.94"/>
		<rect x="873.92" y="373" class="st7" width="12.24" height="4.94"/>
		<rect x="853.78" y="373" class="st7" width="12.24" height="4.94"/>
		<rect x="835.01" y="373" class="st7" width="12.24" height="4.94"/>
		<rect x="883.9" y="438.21" class="st7" width="11.83" height="4.94"/>
		<rect x="863.16" y="438.37" class="st7" width="12.24" height="4.94"/>
		<rect x="844.02" y="438.37" class="st7" width="12.24" height="4.94"/>
		<rect x="829.7" y="438.81" class="st7" width="7.58" height="4.94"/>
		<rect x="901.65" y="438.21" class="st7" width="6.45" height="4.94"/>
		
			<rect x="435.88" y="506.39" transform="matrix(0.9998 -0.0219 0.0219 0.9998 -11.0155 9.7682)" class="st7" width="11.04" height="4.94"/>
		
			<rect x="418.8" y="506.41" transform="matrix(0.9998 -0.0219 0.0219 0.9998 -11.0198 9.4078)" class="st7" width="12.24" height="4.94"/>
		<polygon class="st7" points="411.98,506.43 403.6,507.23 404.08,512.14 412.46,511.34 		"/>
		
			<rect x="385.61" y="657.05" transform="matrix(0.0449 -0.999 0.999 0.0449 -285.0614 1020.9178)" class="st7" width="11.5" height="4.97"/>
		
			<rect x="388.3" y="672.01" transform="matrix(0.9999 -0.015 0.015 0.9999 -10.0863 5.951)" class="st7" width="4.97" height="3.69"/>
		<rect x="442.47" y="599.15" class="st7" width="12.24" height="4.94"/>
		<rect x="421.84" y="599.15" class="st7" width="12.24" height="4.94"/>
		<rect x="421.84" y="599.15" class="st7" width="12.24" height="4.94"/>
		<rect x="514.2" y="663.69" class="st7" width="4.97" height="12.16"/>
		<rect x="514.2" y="641.85" class="st7" width="4.97" height="12.16"/>
		<rect x="514.2" y="618.13" class="st7" width="4.97" height="12.16"/>
		<rect x="514.2" y="595.02" class="st7" width="4.97" height="12.16"/>
		<rect x="516.1" y="572.21" class="st7" width="4.97" height="12.16"/>
		<rect x="516.68" y="549.41" class="st7" width="4.97" height="12.16"/>
		<rect x="596.74" y="662.9" class="st7" width="4.97" height="12.16"/>
		<rect x="596.74" y="641.05" class="st7" width="4.97" height="12.16"/>
		<rect x="596.74" y="617.33" class="st7" width="4.97" height="12.16"/>
		<rect x="596.74" y="594.22" class="st7" width="4.97" height="12.16"/>
		<rect x="596.74" y="568.14" class="st7" width="4.97" height="12.16"/>
		<rect x="596.74" y="544.04" class="st7" width="4.97" height="12.16"/>
		<rect x="596.74" y="519.63" class="st7" width="4.97" height="12.16"/>
		<polygon class="st7" points="531.4,542.72 535.71,554.11 540.36,552.37 536.05,540.98 		"/>
		<polygon class="st7" points="539.99,562.32 544.95,573.44 549.49,571.43 544.53,560.32 		"/>
		<polygon class="st7" points="549.81,582.97 554.78,594.08 559.32,592.08 554.35,580.96 		"/>
		<polygon class="st7" points="559.56,603.63 564.53,614.74 569.07,612.74 564.1,601.62 		"/>
		<polygon class="st7" points="568.92,626.37 573.89,637.49 578.43,635.48 573.46,624.37 		"/>
		<polygon class="st7" points="586.59,662.02 593.88,671.79 597.87,668.84 590.58,659.08 		"/>
		<polygon class="st7" points="577.35,645.99 583.27,656.63 587.62,654.24 581.69,643.6 		"/>
		<rect x="516.68" y="525.76" class="st7" width="4.97" height="12.16"/>
		<rect x="516.68" y="503.24" class="st7" width="4.97" height="12.16"/>
		<rect x="596.74" y="500.63" class="st7" width="4.97" height="12.16"/>
		<polygon class="st7" points="523.73,522.32 528.04,533.7 532.69,531.96 528.38,520.58 		"/>
		<polygon class="st7" points="517.87,500.41 522.18,511.79 526.83,510.05 522.52,498.67 		"/>
		<rect x="744.18" y="500.69" class="st7" width="12.9" height="4.94"/>
		<rect x="722.16" y="500.69" class="st7" width="12.24" height="4.94"/>
		<rect x="699.38" y="500.69" class="st7" width="12.24" height="4.94"/>
		<rect x="676.53" y="500.85" class="st7" width="12.24" height="4.94"/>
		<rect x="654.22" y="500.85" class="st7" width="12.24" height="4.94"/>
		<rect x="631.91" y="500.69" class="st7" width="12.24" height="4.94"/>
		<polygon class="st7" points="750.71,503.9 743.6,514.6 747.74,517.32 754.85,506.62 		"/>
		<polygon class="st7" points="738.69,520.43 731.58,531.13 735.72,533.85 742.84,523.15 		"/>
		<polygon class="st7" points="725.63,539.37 718.51,550.07 722.66,552.8 729.77,542.1 		"/>
		<polygon class="st7" points="713.11,560.17 705.99,570.87 710.14,573.59 717.25,562.89 		"/>
		<polygon class="st7" points="698.76,580.81 691.65,591.51 695.79,594.24 702.91,583.54 		"/>
		<polygon class="st7" points="684.13,601.47 677.02,612.17 681.17,614.89 688.28,604.19 		"/>
		<polygon class="st7" points="670.37,622.78 663.25,633.48 667.4,636.21 674.51,625.51 		"/>
		<rect x="791.62" y="654.08" class="st7" width="12.9" height="4.94"/>
		<rect x="768.87" y="654.24" class="st7" width="12.24" height="4.94"/>
		<rect x="747.15" y="654.24" class="st7" width="12.24" height="4.94"/>
		<rect x="724.3" y="654.24" class="st7" width="12.24" height="4.94"/>
		<rect x="701.99" y="654.16" class="st7" width="12.24" height="4.94"/>
		<rect x="679.68" y="654.24" class="st7" width="12.24" height="4.94"/>
		<polygon class="st7" points="658.01,640.58 651.6,650.94 655.84,653.52 662.24,643.16 		"/>
		<rect x="657.14" y="654.24" class="st7" width="12.24" height="4.94"/>
		
			<rect x="386.58" y="637.58" transform="matrix(0.0449 -0.999 0.999 0.0449 -264.6907 1003.29)" class="st7" width="11.5" height="4.97"/>
		
			<rect x="387.61" y="617.82" transform="matrix(0.0449 -0.999 0.999 0.0449 -243.9584 985.4473)" class="st7" width="11.5" height="4.97"/>
		
			<rect x="389.32" y="597.04" transform="matrix(0.0449 -0.999 0.999 0.0449 -221.5756 967.3058)" class="st7" width="11.5" height="4.97"/>
		
			<rect x="390.35" y="577.56" transform="matrix(0.0449 -0.999 0.999 0.0449 -201.127 949.7343)" class="st7" width="11.5" height="4.97"/>
		
			<rect x="392.06" y="557.54" transform="matrix(0.0449 -0.999 0.999 0.0449 -179.4921 932.3078)" class="st7" width="11.5" height="4.97"/>
		
			<rect x="393.09" y="536.87" transform="matrix(0.0449 -0.999 0.999 0.0449 -157.8571 913.6019)" class="st7" width="11.5" height="4.97"/>
		<polygon class="st7" points="398.66,515.21 397.49,526.65 402.44,527.15 403.6,515.71 		"/>
		
			<rect x="464.46" y="661.21" transform="matrix(0.999 -0.0448 0.0448 0.999 -29.4346 21.6069)" class="st7" width="4.97" height="11.5"/>
		
			<rect x="463.49" y="641.74" transform="matrix(0.999 -0.0448 0.0448 0.999 -28.5627 21.544)" class="st7" width="4.97" height="11.5"/>
		
			<rect x="462.46" y="621.98" transform="matrix(0.999 -0.0448 0.0448 0.999 -27.6776 21.4777)" class="st7" width="4.97" height="11.5"/>
		
			<rect x="460.75" y="601.2" transform="matrix(0.999 -0.0448 0.0448 0.999 -26.7478 21.3805)" class="st7" width="4.97" height="11.5"/>
		
			<rect x="459.72" y="581.72" transform="matrix(0.999 -0.0448 0.0448 0.999 -25.8755 21.3145)" class="st7" width="4.97" height="11.5"/>
		
			<rect x="458.02" y="561.69" transform="matrix(0.999 -0.0448 0.0448 0.999 -24.9792 21.218)" class="st7" width="4.97" height="11.5"/>
		
			<rect x="456.98" y="541.03" transform="matrix(0.999 -0.0448 0.0448 0.999 -24.0536 21.1508)" class="st7" width="4.97" height="11.5"/>
		<polygon class="st7" points="459.65,522.63 460.81,534.07 455.87,534.57 454.71,523.13 		"/>
		<rect x="402.96" y="599.15" class="st7" width="12.24" height="4.94"/>
		<polygon class="st7" points="457.24,509.28 458.6,518.77 453.68,519.09 452.32,509.61 		"/>
	</g>
</g>
<g id="Layer_6">
	<g>
		<path class="st3" d="M410.2,1812.32h17.92l28.33,74.23h-23.52l-2.46-6.68h-22.62l-2.46,6.68h-23.52L410.2,1812.32z M424.2,1863.51
			l-5.04-13.02l-5.04,13.02H424.2z"/>
		<path class="st3" d="M516.24,1840.59c0,5.12-0.9,9.48-2.69,13.08c-1.79,3.6-4.24,6.51-7.33,8.74c-3.1,2.23-6.72,3.86-10.86,4.9
			c-4.14,1.04-8.61,1.56-13.38,1.56v17.7h-23.85v-74.23h23.85c4.78,0,9.24,0.52,13.38,1.56c4.14,1.04,7.76,2.67,10.86,4.9
			c3.1,2.23,5.54,5.14,7.33,8.74C515.35,1831.11,516.24,1835.47,516.24,1840.59z M481.98,1848.82h1.01c3.14,0,5.39-0.72,6.77-2.17
			c1.38-1.45,2.07-3.47,2.07-6.07c0-2.6-0.69-4.62-2.07-6.07c-1.38-1.45-3.64-2.17-6.77-2.17h-1.01V1848.82z"/>
		<path class="st3" d="M521.84,1812.32h25.75c4.78,0,9.2,0.63,13.27,1.89c4.07,1.26,7.6,3.12,10.58,5.56c2.99,2.45,5.32,5.47,7,9.07
			c1.68,3.6,2.52,7.73,2.52,12.41c0,3.71-0.52,6.86-1.57,9.46c-1.05,2.6-2.2,4.75-3.47,6.46c-1.49,1.93-3.17,3.56-5.04,4.9l14,24.48
			h-27.99l-11.2-18.81v18.81h-23.85V1812.32z M545.69,1848.82h1.23c2.84,0,5.24-0.63,7.22-1.89c1.98-1.26,2.97-3.38,2.97-6.34
			c0-2.97-0.99-5.08-2.97-6.34c-1.98-1.26-4.39-1.89-7.22-1.89h-1.23V1848.82z"/>
		<path class="st3" d="M587.12,1812.32h25.31v74.23h-25.31V1812.32z"/>
		<path class="st3" d="M620.27,1812.32h24.86v54.75h20.6v19.48h-45.46V1812.32z"/>
		<path class="st3" d="M704.14,1850.94c1.57-2.97,2.58-5.19,3.02-6.68c0.45-1.48,0.67-2.89,0.67-4.23c0-2.37-0.78-4.21-2.35-5.51
			c-1.57-1.3-3.85-1.95-6.83-1.95c-0.6,0-1.16,0.02-1.68,0.06c-0.52,0.04-1.01,0.09-1.46,0.17c-0.52,0.07-1.01,0.11-1.46,0.11
			v-20.59c1.04-0.22,1.98-0.41,2.8-0.56c0.82-0.15,1.62-0.26,2.41-0.33c0.78-0.07,1.6-0.13,2.46-0.17c0.86-0.04,1.85-0.06,2.97-0.06
			c3.58,0,7.11,0.39,10.58,1.17c3.47,0.78,6.59,2.06,9.35,3.84c2.76,1.78,5,4.16,6.72,7.12c1.72,2.97,2.58,6.6,2.58,10.91
			c0,2-0.22,3.99-0.67,5.95c-0.45,1.97-1.14,4.1-2.07,6.4c-0.93,2.3-2.13,4.88-3.58,7.73c-1.46,2.86-3.16,6.18-5.1,9.96l-1.46,2.78
			h14.11l-6.38,19.48h-43.45L704.14,1850.94z"/>
		<path class="st3" d="M750.05,1850.94c1.57-2.97,2.58-5.19,3.02-6.68c0.45-1.48,0.67-2.89,0.67-4.23c0-2.37-0.78-4.21-2.35-5.51
			c-1.57-1.3-3.85-1.95-6.83-1.95c-0.6,0-1.16,0.02-1.68,0.06c-0.52,0.04-1.01,0.09-1.46,0.17c-0.52,0.07-1.01,0.11-1.46,0.11
			v-20.59c1.04-0.22,1.98-0.41,2.8-0.56c0.82-0.15,1.62-0.26,2.41-0.33c0.78-0.07,1.6-0.13,2.46-0.17c0.86-0.04,1.85-0.06,2.97-0.06
			c3.58,0,7.11,0.39,10.58,1.17c3.47,0.78,6.59,2.06,9.35,3.84c2.76,1.78,5,4.16,6.72,7.12c1.72,2.97,2.58,6.6,2.58,10.91
			c0,2-0.22,3.99-0.67,5.95c-0.45,1.97-1.14,4.1-2.07,6.4c-0.93,2.3-2.13,4.88-3.58,7.73c-1.46,2.86-3.16,6.18-5.1,9.96l-1.46,2.78
			h14.11l-6.38,19.48h-43.45L750.05,1850.94z"/>
		<path class="st3" d="M789.69,1867.96h21.28l-9.74,30.05h-19.04L789.69,1867.96z"/>
		<path class="st3" d="M851.28,1850.94c1.57-2.97,2.58-5.19,3.02-6.68c0.45-1.48,0.67-2.89,0.67-4.23c0-2.37-0.78-4.21-2.35-5.51
			c-1.57-1.3-3.85-1.95-6.83-1.95c-0.6,0-1.16,0.02-1.68,0.06c-0.52,0.04-1.01,0.09-1.46,0.17c-0.52,0.07-1.01,0.11-1.46,0.11
			v-20.59c1.04-0.22,1.98-0.41,2.8-0.56c0.82-0.15,1.62-0.26,2.41-0.33c0.78-0.07,1.6-0.13,2.46-0.17c0.86-0.04,1.85-0.06,2.97-0.06
			c3.58,0,7.11,0.39,10.58,1.17c3.47,0.78,6.59,2.06,9.35,3.84c2.76,1.78,5,4.16,6.72,7.12c1.72,2.97,2.58,6.6,2.58,10.91
			c0,2-0.22,3.99-0.67,5.95c-0.45,1.97-1.14,4.1-2.07,6.4c-0.93,2.3-2.13,4.88-3.58,7.73c-1.46,2.86-3.16,6.18-5.1,9.96l-1.46,2.78
			h14.11l-6.38,19.48h-43.45L851.28,1850.94z"/>
		<path class="st3" d="M944.22,1849.49c0,12.61-2.65,22.26-7.95,28.94c-5.3,6.68-12.69,10.02-22.17,10.02
			c-9.48,0-16.87-3.34-22.17-10.02c-5.3-6.68-7.95-16.32-7.95-28.94c0-12.61,2.65-22.26,7.95-28.94
			c5.3-6.68,12.69-10.02,22.17-10.02c9.48,0,16.87,3.34,22.17,10.02C941.57,1827.23,944.22,1836.88,944.22,1849.49z M921.26,1849.49
			c0-11.65-2.39-17.47-7.17-17.47c-4.78,0-7.17,5.83-7.17,17.47c0,11.65,2.39,17.47,7.17,17.47
			C918.87,1866.96,921.26,1861.14,921.26,1849.49z"/>
		<path class="st3" d="M956.87,1850.94c1.57-2.97,2.58-5.19,3.02-6.68c0.45-1.48,0.67-2.89,0.67-4.23c0-2.37-0.78-4.21-2.35-5.51
			c-1.57-1.3-3.85-1.95-6.83-1.95c-0.6,0-1.16,0.02-1.68,0.06c-0.52,0.04-1.01,0.09-1.46,0.17c-0.52,0.07-1.01,0.11-1.46,0.11
			v-20.59c1.04-0.22,1.98-0.41,2.8-0.56c0.82-0.15,1.62-0.26,2.41-0.33c0.78-0.07,1.6-0.13,2.46-0.17c0.86-0.04,1.85-0.06,2.97-0.06
			c3.58,0,7.11,0.39,10.58,1.17c3.47,0.78,6.59,2.06,9.35,3.84c2.76,1.78,5,4.16,6.72,7.12c1.72,2.97,2.58,6.6,2.58,10.91
			c0,2-0.22,3.99-0.67,5.95c-0.45,1.97-1.14,4.1-2.07,6.4c-0.93,2.3-2.13,4.88-3.58,7.73c-1.46,2.86-3.16,6.18-5.1,9.96l-1.46,2.78
			h14.11l-6.38,19.48h-43.45L956.87,1850.94z"/>
		<path class="st3" d="M990.13,1866.63c0.82,0.15,1.59,0.22,2.3,0.22c0.71,0,1.4,0,2.07,0c2.39,0,4.38-0.24,5.99-0.72
			c1.6-0.48,2.87-1.13,3.81-1.95c0.93-0.82,1.6-1.73,2.02-2.73c0.41-1,0.62-2.06,0.62-3.17c0-1.56-0.52-3.04-1.57-4.45
			c-1.05-1.41-2.35-2.69-3.92-3.84c-1.57-1.15-3.25-2.21-5.04-3.17c-1.79-0.96-3.4-1.78-4.82-2.45c1.27-0.82,2.54-1.67,3.81-2.56
			c1.27-0.89,2.41-1.8,3.42-2.73c1.01-0.93,1.81-1.84,2.41-2.73c0.6-0.89,0.9-1.74,0.9-2.56c0-1.33-0.5-2.24-1.51-2.73
			c-1.01-0.48-2.11-0.72-3.3-0.72c-0.97,0-1.89,0.06-2.74,0.17c-0.86,0.11-1.62,0.24-2.3,0.39c-0.82,0.22-1.53,0.41-2.13,0.56v-18.7
			c1.04-0.22,2.28-0.44,3.7-0.67c1.27-0.15,2.86-0.3,4.76-0.45c1.9-0.15,4.16-0.22,6.77-0.22c7.32,0,12.71,1.65,16.18,4.95
			c3.47,3.3,5.21,7.62,5.21,12.97c0,1.86-0.3,3.54-0.9,5.06c-0.6,1.52-1.27,2.84-2.02,3.95c-0.82,1.33-1.75,2.56-2.8,3.67
			c1.87,1.49,3.54,3.19,5.04,5.12c1.27,1.71,2.42,3.75,3.47,6.12c1.04,2.38,1.57,5.05,1.57,8.01c0,4.6-0.95,8.55-2.86,11.85
			c-1.9,3.3-4.46,6.01-7.67,8.12c-3.21,2.11-6.92,3.67-11.14,4.67c-4.22,1-8.6,1.5-13.16,1.5c-0.75,0-1.62,0-2.63,0
			s-2.18-0.04-3.53-0.11V1866.63z"/>
		<path class="st3" d="M562.66,1931.04h18.64v41.07h15.45v14.61h-34.1V1931.04z"/>
		<path class="st3" d="M616.32,1931.04h13.44l21.25,55.67h-17.64l-1.85-5.01h-16.96l-1.85,5.01h-17.64L616.32,1931.04z
			 M626.82,1969.43l-3.78-9.77l-3.78,9.77H626.82z"/>
		<path class="st3" d="M666.12,1973.36h6.13c1.79,0,2.99-0.33,3.61-1c0.62-0.67,0.92-1.61,0.92-2.84v-38.48h18.48v41.57
			c0,5.18-1.19,8.82-3.57,10.93c-2.38,2.12-6.17,3.17-11.38,3.17h-14.19V1973.36z"/>
		<path class="st3" d="M699.63,1958.92c0-4.01,0.77-7.79,2.31-11.35c1.54-3.56,3.64-6.66,6.3-9.31c2.66-2.64,5.78-4.73,9.36-6.26
			c3.58-1.53,7.39-2.3,11.42-2.3s7.84,0.77,11.42,2.3c3.58,1.53,6.7,3.62,9.36,6.26c2.66,2.64,4.76,5.75,6.3,9.31
			c1.54,3.56,2.31,7.34,2.31,11.35s-0.77,7.79-2.31,11.35c-1.54,3.56-3.64,6.67-6.3,9.31c-2.66,2.64-5.78,4.73-9.36,6.26
			c-3.58,1.53-7.39,2.29-11.42,2.29s-7.84-0.77-11.42-2.29c-3.58-1.53-6.71-3.62-9.36-6.26c-2.66-2.64-4.76-5.75-6.3-9.31
			C700.4,1966.71,699.63,1962.92,699.63,1958.92z M717.27,1958.92c0,1.61,0.31,3.13,0.92,4.55c0.62,1.42,1.46,2.66,2.52,3.71
			c1.06,1.06,2.31,1.89,3.74,2.5c1.43,0.61,2.95,0.92,4.58,0.92c1.62,0,3.15-0.3,4.58-0.92c1.43-0.61,2.67-1.45,3.74-2.5
			c1.06-1.06,1.9-2.3,2.52-3.71c0.62-1.42,0.92-2.93,0.92-4.55c0-1.61-0.31-3.13-0.92-4.55c-0.62-1.42-1.46-2.66-2.52-3.71
			c-1.06-1.06-2.31-1.89-3.74-2.5c-1.43-0.61-2.95-0.92-4.58-0.92c-1.62,0-3.15,0.31-4.58,0.92c-1.43,0.61-2.67,1.45-3.74,2.5
			c-1.06,1.06-1.9,2.3-2.52,3.71C717.57,1955.79,717.27,1957.3,717.27,1958.92z"/>
		<path class="st3" d="M763.04,1931.04h18.64v41.07h15.45v14.61h-34.1V1931.04z"/>
		<path class="st3" d="M800.07,1931.04h18.64v41.07h15.45v14.61h-34.1V1931.04z"/>
		<path class="st3" d="M853.74,1931.04h13.44l21.25,55.67h-17.64l-1.85-5.01h-16.96l-1.85,5.01h-17.64L853.74,1931.04z
			 M864.24,1969.43l-3.78-9.77l-3.78,9.77H864.24z"/>
		<path class="st3" d="M892.37,1972.77h15.96l-7.31,22.54h-14.28L892.37,1972.77z"/>
		<path class="st3" d="M928.23,1958.92c0-4.45,0.78-8.47,2.35-12.06c1.57-3.59,3.7-6.66,6.38-9.22c2.69-2.56,5.82-4.52,9.41-5.88
			c3.58-1.36,7.39-2.04,11.42-2.04c3.19,0,6.03,0.31,8.52,0.92c2.49,0.61,4.63,1.31,6.42,2.09c2.07,0.89,3.86,1.87,5.38,2.92
			l-8.82,15.44c-0.9-0.67-1.88-1.31-2.94-1.92c-0.95-0.44-2.09-0.88-3.4-1.29c-1.32-0.42-2.81-0.63-4.49-0.63
			c-1.74,0-3.33,0.31-4.79,0.92c-1.46,0.61-2.73,1.45-3.82,2.5c-1.09,1.06-1.95,2.3-2.56,3.71c-0.62,1.42-0.92,2.94-0.92,4.55
			c0,1.61,0.32,3.13,0.97,4.55c0.64,1.42,1.52,2.66,2.65,3.71c1.12,1.06,2.44,1.89,3.95,2.5c1.51,0.61,3.16,0.92,4.96,0.92
			c1.79,0,3.39-0.22,4.79-0.67c1.4-0.44,2.57-0.95,3.53-1.5c1.12-0.61,2.1-1.34,2.94-2.17l8.82,15.44c-1.51,1.22-3.3,2.31-5.38,3.25
			c-1.79,0.78-3.95,1.5-6.47,2.17c-2.52,0.67-5.4,1-8.65,1c-4.37,0-8.4-0.71-12.09-2.13c-3.7-1.42-6.89-3.41-9.57-5.97
			c-2.69-2.56-4.79-5.63-6.3-9.22C928.99,1967.22,928.23,1963.26,928.23,1958.92z"/>
		<path class="st3" d="M999.79,1931.04h13.44l21.25,55.67h-17.64l-1.85-5.01h-16.96l-1.85,5.01h-17.64L999.79,1931.04z
			 M1010.28,1969.43l-3.78-9.77l-3.78,9.77H1010.28z"/>
		<path class="st4" d="M527.21,2014.36H534l6.71,9.82l6.68-9.82h6.79v25.58h-8.22v-9.21l-5.25,7.67l-5.29-7.67v9.21h-8.22V2014.36z"
			/>
		<path class="st4" d="M556.31,2027.17c0-1.84,0.35-3.58,1.06-5.22c0.71-1.64,1.67-3.06,2.89-4.28c1.22-1.21,2.66-2.17,4.3-2.88
			c1.65-0.7,3.4-1.05,5.25-1.05c1.85,0,3.6,0.35,5.25,1.05c1.65,0.7,3.08,1.66,4.3,2.88c1.22,1.21,2.19,2.64,2.89,4.28
			c0.71,1.64,1.06,3.38,1.06,5.22c0,1.84-0.35,3.58-1.06,5.22c-0.71,1.64-1.67,3.06-2.89,4.28c-1.22,1.21-2.66,2.17-4.3,2.88
			c-1.65,0.7-3.4,1.05-5.25,1.05c-1.85,0-3.6-0.35-5.25-1.05c-1.65-0.7-3.08-1.66-4.3-2.88c-1.22-1.21-2.19-2.64-2.89-4.28
			C556.66,2030.75,556.31,2029.01,556.31,2027.17z M564.41,2027.17c0,0.74,0.14,1.44,0.42,2.09c0.28,0.65,0.67,1.22,1.16,1.71
			c0.49,0.49,1.06,0.87,1.72,1.15s1.36,0.42,2.1,0.42s1.45-0.14,2.1-0.42s1.23-0.67,1.72-1.15c0.49-0.49,0.87-1.05,1.16-1.71
			s0.42-1.35,0.42-2.09c0-0.74-0.14-1.44-0.42-2.09s-0.67-1.22-1.16-1.71c-0.49-0.49-1.06-0.87-1.72-1.15s-1.36-0.42-2.1-0.42
			s-1.45,0.14-2.1,0.42s-1.23,0.67-1.72,1.15c-0.49,0.49-0.88,1.05-1.16,1.71C564.56,2025.73,564.41,2026.42,564.41,2027.17z"/>
		<path class="st4" d="M585.45,2014.36h8.88c1.65,0,3.17,0.22,4.57,0.65c1.4,0.44,2.62,1.07,3.65,1.92s1.83,1.89,2.41,3.13
			s0.87,2.67,0.87,4.28c0,1.28-0.18,2.37-0.54,3.26c-0.36,0.89-0.76,1.64-1.2,2.22c-0.51,0.67-1.09,1.23-1.74,1.69l4.82,8.44h-9.65
			l-3.86-6.48v6.48h-8.22V2014.36z M593.67,2026.94h0.42c0.98,0,1.81-0.22,2.49-0.65c0.68-0.43,1.02-1.16,1.02-2.19
			s-0.34-1.75-1.02-2.19s-1.51-0.65-2.49-0.65h-0.42V2026.94z"/>
		<path class="st4" d="M607.94,2014.36h15.17v6.71h-6.95v2.84H623v6.37h-6.83v2.95h7.22v6.71h-15.44V2014.36z"/>
		<path class="st4" d="M633.41,2039.94v-25.58h7.14c2.42,0,4.57,0.27,6.46,0.8c1.89,0.54,3.49,1.34,4.79,2.42s2.29,2.41,2.97,4.01
			c0.68,1.6,1.02,3.45,1.02,5.54c0,2.1-0.34,3.94-1.02,5.54c-0.68,1.6-1.67,2.93-2.97,4.01c-1.3,1.07-2.89,1.89-4.79,2.44
			s-4.05,0.82-6.46,0.82H633.41z M641.63,2032.65c1.93,0,3.42-0.45,4.48-1.36c1.05-0.91,1.58-2.29,1.58-4.16
			c0-1.87-0.53-3.25-1.58-4.14c-1.05-0.9-2.55-1.34-4.48-1.34V2032.65z"/>
		<path class="st4" d="M657.92,2014.36h15.17v6.71h-6.95v2.84h6.83v6.37h-6.83v2.95h7.22v6.71h-15.44V2014.36z"/>
		<path class="st4" d="M679.07,2021.07h-4.75v-6.71h17.98v6.71h-4.75v18.87h-8.49V2021.07z"/>
		<path class="st4" d="M701.3,2014.36h6.17l9.76,25.58h-8.1l-0.85-2.3h-7.79l-0.85,2.3h-8.1L701.3,2014.36z M706.12,2032l-1.74-4.49
			l-1.74,4.49H706.12z"/>
		<path class="st4" d="M717.81,2014.36h8.72v25.58h-8.72V2014.36z"/>
		<path class="st4" d="M729.23,2014.36h8.57v18.87h7.1v6.71h-15.67V2014.36z"/>
		<path class="st4" d="M745.56,2032c0.57,0.18,1.16,0.32,1.78,0.42c0.51,0.13,1.1,0.23,1.76,0.31c0.66,0.08,1.32,0.12,1.99,0.12
			c1.18,0,1.78-0.43,1.78-1.3c0-0.33-0.18-0.67-0.54-1.02c-0.36-0.34-0.82-0.73-1.37-1.15c-0.55-0.42-1.14-0.89-1.77-1.4
			c-0.63-0.51-1.22-1.1-1.78-1.76c-0.55-0.67-1.01-1.41-1.37-2.24c-0.36-0.83-0.54-1.78-0.54-2.86c0-1.2,0.22-2.26,0.66-3.18
			c0.44-0.92,1.04-1.69,1.81-2.3c0.77-0.61,1.68-1.08,2.72-1.4c1.04-0.32,2.15-0.48,3.34-0.48c0.62,0,1.24,0.03,1.85,0.1
			c0.62,0.06,1.17,0.12,1.66,0.17c0.57,0.08,1.12,0.15,1.66,0.23v7.17c-0.21-0.02-0.44-0.05-0.69-0.08
			c-0.21-0.03-0.44-0.05-0.69-0.08c-0.26-0.03-0.53-0.04-0.81-0.04c-0.15,0-0.35,0.01-0.58,0.02s-0.45,0.04-0.66,0.1
			c-0.21,0.05-0.39,0.14-0.54,0.27s-0.23,0.31-0.23,0.54c0,0.2,0.17,0.46,0.52,0.77c0.35,0.31,0.77,0.67,1.27,1.07
			c0.5,0.41,1.05,0.88,1.66,1.42s1.16,1.15,1.66,1.84s0.93,1.47,1.27,2.34c0.35,0.87,0.52,1.84,0.52,2.92
			c0,1.12-0.18,2.18-0.54,3.16s-0.92,1.84-1.68,2.57s-1.73,1.3-2.91,1.73c-1.18,0.42-2.59,0.63-4.21,0.63
			c-0.98,0-1.88-0.04-2.72-0.13s-1.58-0.2-2.22-0.33c-0.75-0.13-1.43-0.28-2.04-0.46V2032z"/>
		<path class="st4" d="M770.76,2027.17c0-2.05,0.36-3.89,1.08-5.54c0.72-1.65,1.7-3.06,2.93-4.24c1.24-1.18,2.68-2.08,4.32-2.7
			c1.65-0.63,3.4-0.94,5.25-0.94c1.47,0,2.77,0.14,3.92,0.42c1.14,0.28,2.13,0.6,2.95,0.96c0.95,0.41,1.77,0.86,2.47,1.34l-4.05,7.1
			c-0.41-0.31-0.86-0.6-1.35-0.88c-0.44-0.2-0.96-0.4-1.56-0.59c-0.6-0.19-1.29-0.29-2.06-0.29c-0.8,0-1.53,0.14-2.2,0.42
			s-1.25,0.67-1.76,1.15c-0.5,0.49-0.89,1.05-1.18,1.71c-0.28,0.65-0.42,1.35-0.42,2.09c0,0.74,0.15,1.44,0.44,2.09
			c0.29,0.65,0.7,1.22,1.21,1.71s1.12,0.87,1.81,1.15c0.69,0.28,1.45,0.42,2.28,0.42s1.56-0.1,2.2-0.31
			c0.64-0.2,1.18-0.43,1.62-0.69c0.51-0.28,0.96-0.61,1.35-1l4.05,7.1c-0.69,0.56-1.52,1.06-2.47,1.5c-0.82,0.36-1.81,0.69-2.97,1
			c-1.16,0.31-2.48,0.46-3.97,0.46c-2.01,0-3.86-0.33-5.56-0.98s-3.16-1.57-4.4-2.74c-1.23-1.18-2.2-2.59-2.89-4.24
			C771.11,2030.98,770.76,2029.16,770.76,2027.17z"/>
		<path class="st4" d="M794.45,2027.17c0-1.84,0.35-3.58,1.06-5.22c0.71-1.64,1.67-3.06,2.89-4.28c1.22-1.21,2.66-2.17,4.3-2.88
			c1.65-0.7,3.4-1.05,5.25-1.05c1.85,0,3.6,0.35,5.25,1.05c1.65,0.7,3.08,1.66,4.3,2.88c1.22,1.21,2.19,2.64,2.89,4.28
			c0.71,1.64,1.06,3.38,1.06,5.22c0,1.84-0.35,3.58-1.06,5.22c-0.71,1.64-1.67,3.06-2.89,4.28c-1.22,1.21-2.66,2.17-4.3,2.88
			c-1.65,0.7-3.4,1.05-5.25,1.05c-1.85,0-3.6-0.35-5.25-1.05c-1.65-0.7-3.08-1.66-4.3-2.88c-1.22-1.21-2.19-2.64-2.89-4.28
			C794.81,2030.75,794.45,2029.01,794.45,2027.17z M802.56,2027.17c0,0.74,0.14,1.44,0.42,2.09c0.28,0.65,0.67,1.22,1.16,1.71
			c0.49,0.49,1.06,0.87,1.72,1.15s1.36,0.42,2.1,0.42s1.45-0.14,2.1-0.42s1.23-0.67,1.72-1.15c0.49-0.49,0.87-1.05,1.16-1.71
			s0.42-1.35,0.42-2.09c0-0.74-0.14-1.44-0.42-2.09s-0.67-1.22-1.16-1.71c-0.49-0.49-1.06-0.87-1.72-1.15s-1.36-0.42-2.1-0.42
			s-1.45,0.14-2.1,0.42s-1.23,0.67-1.72,1.15c-0.49,0.49-0.88,1.05-1.16,1.71C802.7,2025.73,802.56,2026.42,802.56,2027.17z"/>
		<path class="st4" d="M823.59,2014.36h6.79l6.71,9.82l6.68-9.82h6.79v25.58h-8.22v-9.21l-5.25,7.67l-5.29-7.67v9.21h-8.22V2014.36z
			"/>
		<path class="st4" d="M853.27,2014.36h8.72v25.58h-8.72V2014.36z"/>
		<path class="st4" d="M864.69,2014.36h6.75l7.1,9.86v-9.86h8.07v25.58h-6.79l-7.06-9.82v9.82h-8.07V2014.36z"/>
		<path class="st4" d="M905.71,2023.06c-0.46-0.41-1.04-0.72-1.74-0.94c-0.7-0.22-1.38-0.33-2.05-0.33c-0.75,0-1.43,0.13-2.04,0.4
			s-1.15,0.64-1.6,1.11c-0.45,0.47-0.8,1.04-1.06,1.71c-0.26,0.67-0.39,1.38-0.39,2.15c0,0.77,0.14,1.48,0.42,2.15
			c0.28,0.67,0.67,1.23,1.16,1.71c0.49,0.47,1.06,0.84,1.72,1.11s1.36,0.4,2.1,0.4c0.88,0,1.67-0.19,2.39-0.56
			c0.72-0.37,1.34-0.88,1.85-1.51h-2.32v-5.37h9.92v8.51c-0.59,1.05-1.3,2-2.12,2.86c-0.82,0.86-1.74,1.59-2.76,2.21
			s-2.12,1.09-3.3,1.42c-1.18,0.33-2.41,0.5-3.67,0.5c-1.85,0-3.6-0.35-5.25-1.04s-3.08-1.64-4.3-2.84
			c-1.22-1.2-2.19-2.62-2.89-4.26c-0.71-1.64-1.06-3.4-1.06-5.29c0-1.84,0.33-3.58,1-5.22c0.67-1.64,1.59-3.06,2.76-4.28
			c1.17-1.21,2.56-2.17,4.17-2.88c1.61-0.7,3.34-1.05,5.19-1.05c1.44,0,2.69,0.14,3.74,0.42c1.05,0.28,1.94,0.6,2.66,0.96
			c0.85,0.41,1.56,0.86,2.12,1.34L905.71,2023.06z"/>
		<path class="st4" d="M923.23,2032c0.57,0.18,1.16,0.32,1.78,0.42c0.51,0.13,1.1,0.23,1.76,0.31c0.66,0.08,1.32,0.12,1.99,0.12
			c1.18,0,1.78-0.43,1.78-1.3c0-0.33-0.18-0.67-0.54-1.02c-0.36-0.34-0.82-0.73-1.37-1.15c-0.55-0.42-1.14-0.89-1.77-1.4
			c-0.63-0.51-1.22-1.1-1.78-1.76c-0.55-0.67-1.01-1.41-1.37-2.24c-0.36-0.83-0.54-1.78-0.54-2.86c0-1.2,0.22-2.26,0.66-3.18
			c0.44-0.92,1.04-1.69,1.81-2.3c0.77-0.61,1.68-1.08,2.72-1.4c1.04-0.32,2.15-0.48,3.34-0.48c0.62,0,1.24,0.03,1.85,0.1
			c0.62,0.06,1.17,0.12,1.66,0.17c0.57,0.08,1.12,0.15,1.66,0.23v7.17c-0.21-0.02-0.44-0.05-0.69-0.08
			c-0.21-0.03-0.44-0.05-0.69-0.08c-0.26-0.03-0.53-0.04-0.81-0.04c-0.15,0-0.35,0.01-0.58,0.02s-0.45,0.04-0.66,0.1
			c-0.21,0.05-0.39,0.14-0.54,0.27s-0.23,0.31-0.23,0.54c0,0.2,0.17,0.46,0.52,0.77c0.35,0.31,0.77,0.67,1.27,1.07
			c0.5,0.41,1.05,0.88,1.66,1.42s1.16,1.15,1.66,1.84s0.93,1.47,1.27,2.34c0.35,0.87,0.52,1.84,0.52,2.92
			c0,1.12-0.18,2.18-0.54,3.16s-0.92,1.84-1.68,2.57s-1.73,1.3-2.91,1.73c-1.18,0.42-2.59,0.63-4.21,0.63
			c-0.98,0-1.88-0.04-2.72-0.13s-1.58-0.2-2.22-0.33c-0.75-0.13-1.43-0.28-2.04-0.46V2032z"/>
		<path class="st4" d="M940.71,2027.17c0-1.84,0.35-3.58,1.06-5.22c0.71-1.64,1.67-3.06,2.89-4.28c1.22-1.21,2.66-2.17,4.3-2.88
			c1.65-0.7,3.4-1.05,5.25-1.05c1.85,0,3.6,0.35,5.25,1.05c1.65,0.7,3.08,1.66,4.3,2.88c1.22,1.21,2.19,2.64,2.89,4.28
			c0.71,1.64,1.06,3.38,1.06,5.22c0,1.84-0.35,3.58-1.06,5.22c-0.71,1.64-1.67,3.06-2.89,4.28c-1.22,1.21-2.66,2.17-4.3,2.88
			c-1.65,0.7-3.4,1.05-5.25,1.05c-1.85,0-3.6-0.35-5.25-1.05c-1.65-0.7-3.08-1.66-4.3-2.88c-1.22-1.21-2.19-2.64-2.89-4.28
			C941.07,2030.75,940.71,2029.01,940.71,2027.17z M948.82,2027.17c0,0.74,0.14,1.44,0.42,2.09c0.28,0.65,0.67,1.22,1.16,1.71
			c0.49,0.49,1.06,0.87,1.72,1.15s1.36,0.42,2.1,0.42s1.45-0.14,2.1-0.42s1.23-0.67,1.72-1.15c0.49-0.49,0.87-1.05,1.16-1.71
			s0.42-1.35,0.42-2.09c0-0.74-0.14-1.44-0.42-2.09s-0.67-1.22-1.16-1.71c-0.49-0.49-1.06-0.87-1.72-1.15s-1.36-0.42-2.1-0.42
			s-1.45,0.14-2.1,0.42s-1.23,0.67-1.72,1.15c-0.49,0.49-0.88,1.05-1.16,1.71C948.96,2025.73,948.82,2026.42,948.82,2027.17z"/>
		<path class="st4" d="M969.27,2027.17c0-1.84,0.35-3.58,1.06-5.22c0.71-1.64,1.67-3.06,2.89-4.28c1.22-1.21,2.66-2.17,4.3-2.88
			c1.65-0.7,3.4-1.05,5.25-1.05c1.85,0,3.6,0.35,5.25,1.05c1.65,0.7,3.08,1.66,4.3,2.88c1.22,1.21,2.19,2.64,2.89,4.28
			c0.71,1.64,1.06,3.38,1.06,5.22c0,1.84-0.35,3.58-1.06,5.22c-0.71,1.64-1.67,3.06-2.89,4.28c-1.22,1.21-2.66,2.17-4.3,2.88
			c-1.65,0.7-3.4,1.05-5.25,1.05c-1.85,0-3.6-0.35-5.25-1.05c-1.65-0.7-3.08-1.66-4.3-2.88c-1.22-1.21-2.19-2.64-2.89-4.28
			C969.62,2030.75,969.27,2029.01,969.27,2027.17z M977.37,2027.17c0,0.74,0.14,1.44,0.42,2.09c0.28,0.65,0.67,1.22,1.16,1.71
			c0.49,0.49,1.06,0.87,1.72,1.15s1.36,0.42,2.1,0.42s1.45-0.14,2.1-0.42s1.23-0.67,1.72-1.15c0.49-0.49,0.87-1.05,1.16-1.71
			s0.42-1.35,0.42-2.09c0-0.74-0.14-1.44-0.42-2.09s-0.67-1.22-1.16-1.71c-0.49-0.49-1.06-0.87-1.72-1.15s-1.36-0.42-2.1-0.42
			s-1.45,0.14-2.1,0.42s-1.23,0.67-1.72,1.15c-0.49,0.49-0.88,1.05-1.16,1.71C977.52,2025.73,977.37,2026.42,977.37,2027.17z"/>
		<path class="st4" d="M998.41,2014.36h6.75l7.1,9.86v-9.86h8.07v25.58h-6.79l-7.06-9.82v9.82h-8.07V2014.36z"/>
		<path class="st4" d="M1022.83,2014.36h8.8l-1.31,18.03h-6.17L1022.83,2014.36z M1023.1,2033.53h8.26v6.41h-8.26V2033.53z"/>
	</g>
</g>
<g id="Layer_5">
	<g>
		<path class="st1" d="M91.52,114.38c1.78,0.57,3.65,1.01,5.59,1.33c1.62,0.41,3.46,0.73,5.53,0.97s4.15,0.36,6.26,0.36
			c3.73,0,5.59-1.37,5.59-4.12c0-1.05-0.57-2.12-1.7-3.21c-1.14-1.09-2.57-2.3-4.32-3.64c-1.74-1.33-3.61-2.81-5.59-4.43
			c-1.99-1.62-3.85-3.48-5.59-5.58c-1.74-2.1-3.18-4.47-4.32-7.1c-1.14-2.63-1.7-5.64-1.7-9.04c0-3.8,0.69-7.16,2.07-10.07
			c1.38-2.91,3.28-5.34,5.71-7.28c2.43-1.94,5.29-3.42,8.57-4.43c3.28-1.01,6.79-1.52,10.52-1.52c1.94,0,3.89,0.1,5.83,0.3
			c1.94,0.2,3.69,0.38,5.23,0.55c1.78,0.24,3.52,0.49,5.23,0.73v22.69c-0.65-0.08-1.38-0.16-2.19-0.24
			c-0.65-0.08-1.38-0.16-2.19-0.24c-0.81-0.08-1.66-0.12-2.55-0.12c-0.49,0-1.09,0.02-1.82,0.06c-0.73,0.04-1.42,0.14-2.07,0.3
			c-0.65,0.16-1.22,0.45-1.7,0.85c-0.49,0.41-0.73,0.97-0.73,1.7c0,0.65,0.55,1.46,1.64,2.43c1.09,0.97,2.43,2.1,4.01,3.4
			c1.58,1.29,3.32,2.79,5.23,4.49c1.9,1.7,3.65,3.64,5.23,5.82c1.58,2.18,2.92,4.65,4.01,7.4c1.09,2.75,1.64,5.82,1.64,9.22
			c0,3.56-0.57,6.9-1.7,10.01c-1.14,3.11-2.9,5.82-5.29,8.13c-2.39,2.31-5.45,4.12-9.18,5.46c-3.73,1.33-8.14,2-13.25,2
			c-3.08,0-5.94-0.14-8.57-0.42c-2.63-0.28-4.96-0.63-6.99-1.03c-2.35-0.41-4.5-0.89-6.44-1.46V114.38z"/>
		<path class="st1" d="M172.48,58.57h19.45l30.75,80.92h-25.53l-2.67-7.28h-24.56l-2.67,7.28h-25.53L172.48,58.57z M187.68,114.38
			l-5.47-14.19l-5.47,14.19H187.68z"/>
		<path class="st1" d="M231.56,58.57l13.74,35.18l13.86-35.18h28.32l-31.61,80.92h-21.03l-31.61-80.92H231.56z"/>
		<path class="st1" d="M289.3,58.57h47.77V79.8H315.2v8.98h21.52v20.14H315.2v9.34h22.73v21.23H289.3V58.57z"/>
		<path class="st1" d="M380.23,79.8h-14.95V58.57h56.65V79.8h-14.95v59.69h-26.74V79.8z"/>
		<path class="st1" d="M426.18,58.57h25.89v27.54h14.47V58.57h26.01v80.92h-26.01v-29.96h-14.47v29.96h-25.89V58.57z"/>
		<path class="st1" d="M501.06,58.57h47.77V79.8h-21.88v8.98h21.52v20.14h-21.52v9.34h22.73v21.23h-48.62V58.57z"/>
		<path class="st1" d="M581.29,139.49V58.57h22.49c7.62,0,14.41,0.85,20.36,2.55c5.96,1.7,10.98,4.25,15.07,7.64
			c4.09,3.4,7.21,7.62,9.36,12.68c2.15,5.06,3.22,10.9,3.22,17.53c0,6.63-1.08,12.48-3.22,17.53c-2.15,5.06-5.27,9.28-9.36,12.68
			c-4.09,3.4-9.12,5.97-15.07,7.7c-5.96,1.74-12.74,2.61-20.36,2.61H581.29z M607.18,116.44c6.08,0,10.78-1.44,14.1-4.31
			c3.32-2.87,4.98-7.26,4.98-13.16c0-5.9-1.66-10.27-4.98-13.1c-3.32-2.83-8.02-4.25-14.1-4.25V116.44z"/>
		<path class="st1" d="M682.55,58.57H702l30.75,80.92h-25.53l-2.67-7.28h-24.56l-2.67,7.28h-25.53L682.55,58.57z M697.74,114.38
			l-5.47-14.19l-5.47,14.19H697.74z"/>
		<path class="st1" d="M745.27,79.8h-14.95V58.57h56.65V79.8h-14.95v59.69h-26.74V79.8z"/>
		<path class="st1" d="M791.22,58.57h47.77V79.8h-21.88v8.98h21.52v20.14h-21.52v9.34h22.73v21.23h-48.62V58.57z"/>
	</g>
</g>
<g id="Layer_7" class="st8">
	<rect x="173.13" y="2205.89" class="st9" width="762.87" height="142.21"/>
</g>
<g id="Layer_8" class="st8">
	<text transform="matrix(1 0 0 1 203.1044 2301.3098)" class="st10"><tspan x="0" y="0" class="st11 st12 st13">eager be</tspan><tspan x="247.79" y="0" class="st11 st12 st13 st14">a</tspan><tspan x="278.78" y="0" class="st11 st12 st13">vers rsvp </tspan><tspan x="572.74" y="0" class="st11 st12 st13 st15">here</tspan></text>
</g>
</svg>
